<svg width="516" height="108" viewBox="0 0 516 108" fill="none" xmlns="http://www.w3.org/2000/svg">
<mask id="path-1-outside-1_28_6" maskUnits="userSpaceOnUse" x="0" y="0" width="516" height="108" fill="black">
<rect fill="white" width="516" height="108"/>
<path d="M2 7C2 4.23858 4.23858 2 7 2H509C511.761 2 514 4.23858 514 7V97C514 99.7614 511.761 102 509 102H7C4.23858 102 2 99.7614 2 97V7Z"/>
</mask>
<path d="M2 7C2 4.23858 4.23858 2 7 2H509C511.761 2 514 4.23858 514 7V97C514 99.7614 511.761 102 509 102H7C4.23858 102 2 99.7614 2 97V7Z" fill="#1E2025"/>
<path d="M27.908 80.36C26.228 80.36 24.752 80.048 23.48 79.424C22.232 78.776 21.26 77.876 20.564 76.724C19.868 75.548 19.52 74.168 19.52 72.584V67.616C19.52 66.008 19.868 64.628 20.564 63.476C21.26 62.324 22.232 61.436 23.48 60.812C24.752 60.164 26.228 59.84 27.908 59.84C30.404 59.84 32.396 60.488 33.884 61.784C35.372 63.056 36.152 64.796 36.224 67.004H31.724C31.652 65.972 31.28 65.18 30.608 64.628C29.96 64.052 29.06 63.764 27.908 63.764C26.708 63.764 25.76 64.1 25.064 64.772C24.368 65.42 24.02 66.356 24.02 67.58V72.584C24.02 73.808 24.368 74.756 25.064 75.428C25.76 76.1 26.708 76.436 27.908 76.436C29.06 76.436 29.96 76.16 30.608 75.608C31.28 75.032 31.652 74.228 31.724 73.196H36.224C36.152 75.404 35.372 77.156 33.884 78.452C32.396 79.724 30.404 80.36 27.908 80.36ZM49.3859 80.36C46.8659 80.36 44.8859 79.664 43.4459 78.272C42.0059 76.856 41.2859 74.936 41.2859 72.512V60.2H45.7859V72.476C45.7859 73.748 46.0979 74.732 46.7219 75.428C47.3459 76.1 48.2339 76.436 49.3859 76.436C50.5139 76.436 51.3899 76.1 52.0139 75.428C52.6619 74.732 52.9859 73.748 52.9859 72.476V60.2H57.4859V72.512C57.4859 74.936 56.7539 76.856 55.2899 78.272C53.8259 79.664 51.8579 80.36 49.3859 80.36ZM72.6639 80.36C71.0319 80.36 69.7359 79.904 68.7759 78.992C67.8159 78.056 67.3359 76.784 67.3359 75.176L68.3439 76.22H67.3359V80H62.9439V53.72H67.4439V59.264L67.2999 63.98H68.3439L67.3359 65.024C67.3359 63.416 67.8159 62.156 68.7759 61.244C69.7359 60.308 71.0319 59.84 72.6639 59.84C74.6559 59.84 76.2519 60.524 77.4519 61.892C78.6519 63.26 79.2519 65.108 79.2519 67.436V72.8C79.2519 75.104 78.6519 76.94 77.4519 78.308C76.2519 79.676 74.6559 80.36 72.6639 80.36ZM71.0799 76.472C72.2319 76.472 73.1319 76.136 73.7799 75.464C74.4279 74.792 74.7519 73.832 74.7519 72.584V67.616C74.7519 66.368 74.4279 65.408 73.7799 64.736C73.1319 64.064 72.2319 63.728 71.0799 63.728C69.9519 63.728 69.0639 64.076 68.4159 64.772C67.7679 65.444 67.4439 66.392 67.4439 67.616V72.584C67.4439 73.808 67.7679 74.768 68.4159 75.464C69.0639 76.136 69.9519 76.472 71.0799 76.472ZM92.3058 80.36C90.6018 80.36 89.1138 80.048 87.8418 79.424C86.5938 78.8 85.6218 77.924 84.9258 76.796C84.2298 75.668 83.8818 74.336 83.8818 72.8H88.4178C88.4178 73.976 88.7538 74.9 89.4258 75.572C90.1218 76.22 91.0938 76.544 92.3418 76.544C93.5898 76.544 94.5498 76.208 95.2218 75.536C95.8938 74.864 96.2298 73.952 96.2298 72.8V70.748C96.2298 69.572 95.8938 68.66 95.2218 68.012C94.5498 67.34 93.5898 67.004 92.3418 67.004H89.3898V62.936L95.1858 57.572H85.0698V53.72H99.7578V57.788L92.3418 64.592V63.152C94.9338 63.152 96.9858 63.836 98.4978 65.204C100.01 66.572 100.766 68.42 100.766 70.748V72.8C100.766 74.336 100.418 75.668 99.7218 76.796C99.0258 77.924 98.0418 78.8 96.7698 79.424C95.4978 80.048 94.0098 80.36 92.3058 80.36ZM112.452 80.36C110.484 80.36 108.888 79.676 107.664 78.308C106.464 76.94 105.864 75.104 105.864 72.8V67.436C105.864 65.108 106.464 63.26 107.664 61.892C108.864 60.524 110.46 59.84 112.452 59.84C114.084 59.84 115.38 60.308 116.34 61.244C117.3 62.156 117.78 63.416 117.78 65.024L116.772 63.98H117.816L117.672 59.264V53.72H122.172V80H117.78V76.22H116.772L117.78 75.176C117.78 76.784 117.3 78.056 116.34 78.992C115.38 79.904 114.084 80.36 112.452 80.36ZM114.036 76.472C115.188 76.472 116.076 76.136 116.7 75.464C117.348 74.768 117.672 73.808 117.672 72.584V67.616C117.672 66.392 117.348 65.444 116.7 64.772C116.076 64.076 115.188 63.728 114.036 63.728C112.884 63.728 111.984 64.064 111.336 64.736C110.688 65.408 110.364 66.368 110.364 67.616V72.584C110.364 73.832 110.688 74.792 111.336 75.464C111.984 76.136 112.884 76.472 114.036 76.472Z" fill="white"/>
<path d="M468.5 59.5V54.676H456.98V47.152L466.844 33.22H472.964L462.02 48.664V49.996H468.5V44.38H473.9V59.5H468.5ZM479.106 59.5V54.424L487.458 46.36C488.442 45.4 489.174 44.512 489.654 43.696C490.158 42.88 490.41 41.992 490.41 41.032C490.41 39.976 490.122 39.16 489.546 38.584C488.994 38.008 488.226 37.72 487.242 37.72C486.162 37.72 485.31 38.044 484.686 38.692C484.086 39.316 483.786 40.192 483.786 41.32H478.386C478.386 39.592 478.746 38.104 479.466 36.856C480.21 35.584 481.254 34.6 482.598 33.904C483.942 33.208 485.526 32.86 487.35 32.86C489.054 32.86 490.53 33.184 491.778 33.832C493.05 34.456 494.034 35.332 494.73 36.46C495.45 37.588 495.81 38.92 495.81 40.456C495.81 42.16 495.39 43.792 494.55 45.352C493.71 46.912 492.366 48.544 490.518 50.248L485.766 54.64H496.098V59.5H479.106Z" fill="white"/>
<path d="M435.113 75.5L437.201 62.36H441.431C442.247 62.36 442.931 62.522 443.483 62.846C444.035 63.158 444.425 63.602 444.653 64.178C444.893 64.754 444.953 65.438 444.833 66.23C444.713 67.01 444.437 67.694 444.005 68.282C443.585 68.858 443.051 69.308 442.403 69.632C441.755 69.944 441.023 70.1 440.207 70.1H437.597L436.733 75.5H435.113ZM437.813 68.642H440.423C441.131 68.642 441.731 68.426 442.223 67.994C442.727 67.55 443.039 66.962 443.159 66.23C443.279 65.486 443.159 64.898 442.799 64.466C442.439 64.034 441.905 63.818 441.197 63.818H438.587L437.813 68.642ZM444.448 75.5L446.014 65.6H447.598L447.292 67.49H447.67L446.968 68.66C447.136 67.592 447.496 66.788 448.048 66.248C448.6 65.696 449.332 65.42 450.244 65.42C451.288 65.42 452.062 65.75 452.566 66.41C453.082 67.058 453.256 67.94 453.088 69.056L452.98 69.65H451.36L451.432 69.2C451.564 68.42 451.474 67.826 451.162 67.418C450.85 66.998 450.346 66.788 449.65 66.788C448.966 66.788 448.396 66.998 447.94 67.418C447.484 67.838 447.19 68.432 447.058 69.2L446.068 75.5H444.448ZM456.807 75.68C456.027 75.68 455.373 75.53 454.845 75.23C454.329 74.93 453.963 74.498 453.747 73.934C453.531 73.358 453.483 72.68 453.603 71.9L454.017 69.2C454.149 68.408 454.413 67.73 454.809 67.166C455.205 66.602 455.715 66.17 456.339 65.87C456.963 65.57 457.665 65.42 458.445 65.42C459.237 65.42 459.891 65.57 460.407 65.87C460.923 66.17 461.289 66.602 461.505 67.166C461.733 67.73 461.787 68.402 461.667 69.182L461.235 71.9C461.115 72.68 460.851 73.358 460.443 73.934C460.047 74.498 459.537 74.93 458.913 75.23C458.301 75.53 457.599 75.68 456.807 75.68ZM457.041 74.24C457.749 74.24 458.325 74.042 458.769 73.646C459.213 73.25 459.495 72.668 459.615 71.9L460.029 69.2C460.161 68.432 460.065 67.85 459.741 67.454C459.429 67.058 458.919 66.86 458.211 66.86C457.515 66.86 456.945 67.058 456.501 67.454C456.057 67.85 455.769 68.432 455.637 69.2L455.223 71.9C455.103 72.668 455.199 73.25 455.511 73.646C455.835 74.042 456.345 74.24 457.041 74.24ZM461.444 78.74L461.696 77.246H464.018C464.762 77.246 465.368 77.042 465.836 76.634C466.316 76.238 466.616 75.674 466.736 74.942L467.978 67.076H463.838L464.072 65.6H469.832L468.356 74.942C468.236 75.71 467.966 76.376 467.546 76.94C467.126 77.516 466.592 77.96 465.944 78.272C465.308 78.584 464.582 78.74 463.766 78.74H461.444ZM469.22 63.818C468.824 63.818 468.53 63.716 468.338 63.512C468.146 63.308 468.074 63.032 468.122 62.684C468.182 62.324 468.338 62.042 468.59 61.838C468.854 61.622 469.184 61.514 469.58 61.514C469.976 61.514 470.27 61.622 470.462 61.838C470.666 62.042 470.738 62.324 470.678 62.684C470.63 63.032 470.474 63.308 470.21 63.512C469.946 63.716 469.616 63.818 469.22 63.818ZM474.793 75.68C474.013 75.68 473.365 75.524 472.849 75.212C472.333 74.9 471.961 74.462 471.733 73.898C471.517 73.322 471.469 72.656 471.589 71.9L472.003 69.2C472.135 68.432 472.399 67.766 472.795 67.202C473.203 66.638 473.713 66.2 474.325 65.888C474.949 65.576 475.651 65.42 476.431 65.42C477.211 65.42 477.859 65.576 478.375 65.888C478.903 66.2 479.275 66.638 479.491 67.202C479.719 67.766 479.767 68.432 479.635 69.2L479.365 70.946H473.317L473.173 71.9C473.053 72.68 473.143 73.28 473.443 73.7C473.755 74.108 474.277 74.312 475.009 74.312C475.633 74.312 476.143 74.204 476.539 73.988C476.947 73.76 477.229 73.424 477.385 72.98H479.005C478.849 73.532 478.573 74.012 478.177 74.42C477.781 74.816 477.289 75.128 476.701 75.356C476.125 75.572 475.489 75.68 474.793 75.68ZM477.961 69.866L478.051 69.2C478.183 68.42 478.093 67.82 477.781 67.4C477.481 66.98 476.959 66.77 476.215 66.77C475.483 66.77 474.895 66.98 474.451 67.4C474.007 67.82 473.719 68.42 473.587 69.2L473.515 69.722H478.105L477.961 69.866ZM483.858 75.68C483.066 75.68 482.4 75.53 481.86 75.23C481.332 74.93 480.954 74.498 480.726 73.934C480.51 73.358 480.462 72.68 480.582 71.9L480.996 69.2C481.128 68.408 481.392 67.73 481.788 67.166C482.196 66.602 482.718 66.17 483.354 65.87C483.99 65.57 484.704 65.42 485.496 65.42C486.636 65.42 487.506 65.726 488.106 66.338C488.706 66.95 488.94 67.784 488.808 68.84H487.188C487.248 68.204 487.11 67.718 486.774 67.382C486.438 67.034 485.934 66.86 485.262 66.86C484.554 66.86 483.966 67.064 483.498 67.472C483.042 67.868 482.754 68.438 482.634 69.182L482.202 71.9C482.082 72.644 482.19 73.22 482.526 73.628C482.862 74.036 483.384 74.24 484.092 74.24C484.764 74.24 485.322 74.066 485.766 73.718C486.21 73.37 486.504 72.884 486.648 72.26H488.268C488.064 73.316 487.56 74.15 486.756 74.762C485.964 75.374 484.998 75.68 483.858 75.68ZM493.895 75.5C493.043 75.5 492.413 75.272 492.005 74.816C491.609 74.36 491.477 73.718 491.609 72.89L492.527 67.076H489.737L489.971 65.6H492.761L493.193 62.9H494.813L494.381 65.6H498.341L498.107 67.076H494.147L493.229 72.89C493.109 73.646 493.409 74.024 494.129 74.024H496.829L496.595 75.5H493.895Z" fill="white"/>
<path d="M0 7C0 3.13401 3.13401 0 7 0H509C512.866 0 516 3.13401 516 7H512C512 5.34315 510.657 4 509 4H7C5.34315 4 4 5.34315 4 7H0ZM516 101C516 104.866 512.866 108 509 108H7C3.13401 108 0 104.866 0 101L4 96C4 96 5.34315 96 7 96H509C510.657 96 512 96 512 96L516 101ZM7 108C3.13401 108 0 104.866 0 101V7C0 3.13401 3.13401 0 7 0V4C5.34315 4 4 5.34315 4 7V96C4 96 5.34315 96 7 96V108ZM509 0C512.866 0 516 3.13401 516 7V101C516 104.866 512.866 108 509 108V96C510.657 96 512 96 512 96V7C512 5.34315 510.657 4 509 4V0Z" fill="white" mask="url(#path-1-outside-1_28_6)"/>
</svg>
