<svg width="516" height="108" viewBox="0 0 516 108" fill="none" xmlns="http://www.w3.org/2000/svg">
<mask id="path-1-outside-1_28_6" maskUnits="userSpaceOnUse" x="0" y="0" width="516" height="108" fill="black">
<rect fill="white" width="516" height="108"/>
<path d="M2 7C2 4.23858 4.23858 2 7 2H509C511.761 2 514 4.23858 514 7V97C514 99.7614 511.761 102 509 102H7C4.23858 102 2 99.7614 2 97V7Z"/>
</mask>
<path d="M2 7C2 4.23858 4.23858 2 7 2H509C511.761 2 514 4.23858 514 7V97C514 99.7614 511.761 102 509 102H7C4.23858 102 2 99.7614 2 97V7Z" fill="#1E2025"/>
<path d="M24.38 80V66.464H18.944V62.396H24.38V59.408C24.38 57.68 24.956 56.3 26.108 55.268C27.26 54.236 28.784 53.72 30.68 53.72H36.476V57.68H30.788C30.212 57.68 29.744 57.848 29.384 58.184C29.048 58.496 28.88 58.928 28.88 59.48V62.396H36.476V66.464H28.88V80H24.38ZM51.5459 80C49.6499 80 48.1619 79.472 47.0819 78.416C46.0259 77.36 45.4979 75.908 45.4979 74.06V64.268H40.1339V60.2H45.4979V54.62H50.0339V60.2H57.6299V64.268H50.0339V74.06C50.0339 75.308 50.6459 75.932 51.8699 75.932H57.2699V80H51.5459ZM62.3319 84.968V80.9H79.6119V84.968H62.3319ZM84.5298 86.48V60.2H88.9218V63.98H89.9298L88.9218 65.024C88.9218 63.416 89.4018 62.156 90.3618 61.244C91.3218 60.308 92.6178 59.84 94.2498 59.84C96.2418 59.84 97.8378 60.524 99.0378 61.892C100.238 63.26 100.838 65.096 100.838 67.4V72.764C100.838 74.3 100.562 75.644 100.01 76.796C99.4818 77.924 98.7258 78.8 97.7418 79.424C96.7578 80.048 95.5938 80.36 94.2498 80.36C92.6178 80.36 91.3218 79.904 90.3618 78.992C89.4018 78.056 88.9218 76.784 88.9218 75.176L89.9298 76.22H88.8858L89.0298 80.936V86.48H84.5298ZM92.6658 76.472C93.8178 76.472 94.7178 76.136 95.3658 75.464C96.0138 74.792 96.3378 73.832 96.3378 72.584V67.616C96.3378 66.368 96.0138 65.408 95.3658 64.736C94.7178 64.064 93.8178 63.728 92.6658 63.728C91.5378 63.728 90.6498 64.076 90.0018 64.772C89.3538 65.444 89.0298 66.392 89.0298 67.616V72.584C89.0298 73.808 89.3538 74.768 90.0018 75.464C90.6498 76.136 91.5378 76.472 92.6658 76.472ZM106.728 80V60.2H110.976V63.98H112.092L110.76 66.284C110.76 64.148 111.24 62.54 112.2 61.46C113.16 60.38 114.576 59.84 116.448 59.84C118.584 59.84 120.264 60.5 121.488 61.82C122.712 63.14 123.324 64.964 123.324 67.292V68.732H118.608V67.616C118.608 66.344 118.272 65.36 117.6 64.664C116.952 63.968 116.052 63.62 114.9 63.62C113.724 63.62 112.812 63.968 112.164 64.664C111.54 65.36 111.228 66.344 111.228 67.616V80H106.728ZM127.666 80V75.896H134.578V64.268H128.566V60.2H138.898V75.896H145.018V80H127.666ZM136.378 56.888C135.466 56.888 134.746 56.66 134.218 56.204C133.69 55.724 133.426 55.088 133.426 54.296C133.426 53.504 133.69 52.88 134.218 52.424C134.746 51.944 135.466 51.704 136.378 51.704C137.29 51.704 138.01 51.944 138.538 52.424C139.066 52.88 139.33 53.504 139.33 54.296C139.33 55.088 139.066 55.724 138.538 56.204C138.01 56.66 137.29 56.888 136.378 56.888ZM149.288 80V60.2H153.68V63.98H154.904L153.68 65.024C153.68 63.392 154.148 62.12 155.084 61.208C156.044 60.296 157.352 59.84 159.008 59.84C160.952 59.84 162.5 60.488 163.652 61.784C164.828 63.08 165.416 64.82 165.416 67.004V80H160.916V67.472C160.916 66.272 160.604 65.348 159.98 64.7C159.356 64.052 158.48 63.728 157.352 63.728C156.248 63.728 155.372 64.064 154.724 64.736C154.1 65.408 153.788 66.368 153.788 67.616V80H149.288ZM181.062 80C179.166 80 177.678 79.472 176.598 78.416C175.542 77.36 175.014 75.908 175.014 74.06V64.268H169.65V60.2H175.014V54.62H179.55V60.2H187.146V64.268H179.55V74.06C179.55 75.308 180.162 75.932 181.386 75.932H186.786V80H181.062ZM197.068 80V66.464H191.632V62.396H197.068V59.408C197.068 57.68 197.644 56.3 198.796 55.268C199.948 54.236 201.472 53.72 203.368 53.72H209.164V57.68H203.476C202.9 57.68 202.432 57.848 202.072 58.184C201.736 58.496 201.568 58.928 201.568 59.48V62.396H209.164V66.464H201.568V80H197.068Z" fill="white"/>
<path d="M468.5 59.5V54.676H456.98V47.152L466.844 33.22H472.964L462.02 48.664V49.996H468.5V44.38H473.9V59.5H468.5ZM479.106 59.5V54.424L487.458 46.36C488.442 45.4 489.174 44.512 489.654 43.696C490.158 42.88 490.41 41.992 490.41 41.032C490.41 39.976 490.122 39.16 489.546 38.584C488.994 38.008 488.226 37.72 487.242 37.72C486.162 37.72 485.31 38.044 484.686 38.692C484.086 39.316 483.786 40.192 483.786 41.32H478.386C478.386 39.592 478.746 38.104 479.466 36.856C480.21 35.584 481.254 34.6 482.598 33.904C483.942 33.208 485.526 32.86 487.35 32.86C489.054 32.86 490.53 33.184 491.778 33.832C493.05 34.456 494.034 35.332 494.73 36.46C495.45 37.588 495.81 38.92 495.81 40.456C495.81 42.16 495.39 43.792 494.55 45.352C493.71 46.912 492.366 48.544 490.518 50.248L485.766 54.64H496.098V59.5H479.106Z" fill="white"/>
<path d="M435.113 75.5L437.201 62.36H441.431C442.247 62.36 442.931 62.522 443.483 62.846C444.035 63.158 444.425 63.602 444.653 64.178C444.893 64.754 444.953 65.438 444.833 66.23C444.713 67.01 444.437 67.694 444.005 68.282C443.585 68.858 443.051 69.308 442.403 69.632C441.755 69.944 441.023 70.1 440.207 70.1H437.597L436.733 75.5H435.113ZM437.813 68.642H440.423C441.131 68.642 441.731 68.426 442.223 67.994C442.727 67.55 443.039 66.962 443.159 66.23C443.279 65.486 443.159 64.898 442.799 64.466C442.439 64.034 441.905 63.818 441.197 63.818H438.587L437.813 68.642ZM444.448 75.5L446.014 65.6H447.598L447.292 67.49H447.67L446.968 68.66C447.136 67.592 447.496 66.788 448.048 66.248C448.6 65.696 449.332 65.42 450.244 65.42C451.288 65.42 452.062 65.75 452.566 66.41C453.082 67.058 453.256 67.94 453.088 69.056L452.98 69.65H451.36L451.432 69.2C451.564 68.42 451.474 67.826 451.162 67.418C450.85 66.998 450.346 66.788 449.65 66.788C448.966 66.788 448.396 66.998 447.94 67.418C447.484 67.838 447.19 68.432 447.058 69.2L446.068 75.5H444.448ZM456.807 75.68C456.027 75.68 455.373 75.53 454.845 75.23C454.329 74.93 453.963 74.498 453.747 73.934C453.531 73.358 453.483 72.68 453.603 71.9L454.017 69.2C454.149 68.408 454.413 67.73 454.809 67.166C455.205 66.602 455.715 66.17 456.339 65.87C456.963 65.57 457.665 65.42 458.445 65.42C459.237 65.42 459.891 65.57 460.407 65.87C460.923 66.17 461.289 66.602 461.505 67.166C461.733 67.73 461.787 68.402 461.667 69.182L461.235 71.9C461.115 72.68 460.851 73.358 460.443 73.934C460.047 74.498 459.537 74.93 458.913 75.23C458.301 75.53 457.599 75.68 456.807 75.68ZM457.041 74.24C457.749 74.24 458.325 74.042 458.769 73.646C459.213 73.25 459.495 72.668 459.615 71.9L460.029 69.2C460.161 68.432 460.065 67.85 459.741 67.454C459.429 67.058 458.919 66.86 458.211 66.86C457.515 66.86 456.945 67.058 456.501 67.454C456.057 67.85 455.769 68.432 455.637 69.2L455.223 71.9C455.103 72.668 455.199 73.25 455.511 73.646C455.835 74.042 456.345 74.24 457.041 74.24ZM461.444 78.74L461.696 77.246H464.018C464.762 77.246 465.368 77.042 465.836 76.634C466.316 76.238 466.616 75.674 466.736 74.942L467.978 67.076H463.838L464.072 65.6H469.832L468.356 74.942C468.236 75.71 467.966 76.376 467.546 76.94C467.126 77.516 466.592 77.96 465.944 78.272C465.308 78.584 464.582 78.74 463.766 78.74H461.444ZM469.22 63.818C468.824 63.818 468.53 63.716 468.338 63.512C468.146 63.308 468.074 63.032 468.122 62.684C468.182 62.324 468.338 62.042 468.59 61.838C468.854 61.622 469.184 61.514 469.58 61.514C469.976 61.514 470.27 61.622 470.462 61.838C470.666 62.042 470.738 62.324 470.678 62.684C470.63 63.032 470.474 63.308 470.21 63.512C469.946 63.716 469.616 63.818 469.22 63.818ZM474.793 75.68C474.013 75.68 473.365 75.524 472.849 75.212C472.333 74.9 471.961 74.462 471.733 73.898C471.517 73.322 471.469 72.656 471.589 71.9L472.003 69.2C472.135 68.432 472.399 67.766 472.795 67.202C473.203 66.638 473.713 66.2 474.325 65.888C474.949 65.576 475.651 65.42 476.431 65.42C477.211 65.42 477.859 65.576 478.375 65.888C478.903 66.2 479.275 66.638 479.491 67.202C479.719 67.766 479.767 68.432 479.635 69.2L479.365 70.946H473.317L473.173 71.9C473.053 72.68 473.143 73.28 473.443 73.7C473.755 74.108 474.277 74.312 475.009 74.312C475.633 74.312 476.143 74.204 476.539 73.988C476.947 73.76 477.229 73.424 477.385 72.98H479.005C478.849 73.532 478.573 74.012 478.177 74.42C477.781 74.816 477.289 75.128 476.701 75.356C476.125 75.572 475.489 75.68 474.793 75.68ZM477.961 69.866L478.051 69.2C478.183 68.42 478.093 67.82 477.781 67.4C477.481 66.98 476.959 66.77 476.215 66.77C475.483 66.77 474.895 66.98 474.451 67.4C474.007 67.82 473.719 68.42 473.587 69.2L473.515 69.722H478.105L477.961 69.866ZM483.858 75.68C483.066 75.68 482.4 75.53 481.86 75.23C481.332 74.93 480.954 74.498 480.726 73.934C480.51 73.358 480.462 72.68 480.582 71.9L480.996 69.2C481.128 68.408 481.392 67.73 481.788 67.166C482.196 66.602 482.718 66.17 483.354 65.87C483.99 65.57 484.704 65.42 485.496 65.42C486.636 65.42 487.506 65.726 488.106 66.338C488.706 66.95 488.94 67.784 488.808 68.84H487.188C487.248 68.204 487.11 67.718 486.774 67.382C486.438 67.034 485.934 66.86 485.262 66.86C484.554 66.86 483.966 67.064 483.498 67.472C483.042 67.868 482.754 68.438 482.634 69.182L482.202 71.9C482.082 72.644 482.19 73.22 482.526 73.628C482.862 74.036 483.384 74.24 484.092 74.24C484.764 74.24 485.322 74.066 485.766 73.718C486.21 73.37 486.504 72.884 486.648 72.26H488.268C488.064 73.316 487.56 74.15 486.756 74.762C485.964 75.374 484.998 75.68 483.858 75.68ZM493.895 75.5C493.043 75.5 492.413 75.272 492.005 74.816C491.609 74.36 491.477 73.718 491.609 72.89L492.527 67.076H489.737L489.971 65.6H492.761L493.193 62.9H494.813L494.381 65.6H498.341L498.107 67.076H494.147L493.229 72.89C493.109 73.646 493.409 74.024 494.129 74.024H496.829L496.595 75.5H493.895Z" fill="white"/>
<path d="M0 7C0 3.13401 3.13401 0 7 0H509C512.866 0 516 3.13401 516 7H512C512 5.34315 510.657 4 509 4H7C5.34315 4 4 5.34315 4 7H0ZM516 101C516 104.866 512.866 108 509 108H7C3.13401 108 0 104.866 0 101L4 96C4 96 5.34315 96 7 96H509C510.657 96 512 96 512 96L516 101ZM7 108C3.13401 108 0 104.866 0 101V7C0 3.13401 3.13401 0 7 0V4C5.34315 4 4 5.34315 4 7V96C4 96 5.34315 96 7 96V108ZM509 0C512.866 0 516 3.13401 516 7V101C516 104.866 512.866 108 509 108V96C510.657 96 512 96 512 96V7C512 5.34315 510.657 4 509 4V0Z" fill="white" mask="url(#path-1-outside-1_28_6)"/>
</svg>
