<svg width="516" height="108" viewBox="0 0 516 108" fill="none" xmlns="http://www.w3.org/2000/svg">
<mask id="path-1-outside-1_28_6" maskUnits="userSpaceOnUse" x="0" y="0" width="516" height="108" fill="black">
<rect fill="white" width="516" height="108"/>
<path d="M2 7C2 4.23858 4.23858 2 7 2H509C511.761 2 514 4.23858 514 7V97C514 99.7614 511.761 102 509 102H7C4.23858 102 2 99.7614 2 97V7Z"/>
</mask>
<path d="M2 7C2 4.23858 4.23858 2 7 2H509C511.761 2 514 4.23858 514 7V97C514 99.7614 511.761 102 509 102H7C4.23858 102 2 99.7614 2 97V7Z" fill="#1E2025"/>
<path d="M24.38 80V66.464H18.944V62.396H24.38V59.408C24.38 57.68 24.956 56.3 26.108 55.268C27.26 54.236 28.784 53.72 30.68 53.72H36.476V57.68H30.788C30.212 57.68 29.744 57.848 29.384 58.184C29.048 58.496 28.88 58.928 28.88 59.48V62.396H36.476V66.464H28.88V80H24.38ZM51.5459 80C49.6499 80 48.1619 79.472 47.0819 78.416C46.0259 77.36 45.4979 75.908 45.4979 74.06V64.268H40.1339V60.2H45.4979V54.62H50.0339V60.2H57.6299V64.268H50.0339V74.06C50.0339 75.308 50.6459 75.932 51.8699 75.932H57.2699V80H51.5459ZM62.3319 84.968V80.9H79.6119V84.968H62.3319ZM94.7178 80C92.8218 80 91.3338 79.472 90.2538 78.416C89.1978 77.36 88.6698 75.908 88.6698 74.06V64.268H83.3058V60.2H88.6698V54.62H93.2058V60.2H100.802V64.268H93.2058V74.06C93.2058 75.308 93.8178 75.932 95.0418 75.932H100.442V80H94.7178ZM106.728 80V60.2H110.976V63.98H112.092L110.76 66.284C110.76 64.148 111.24 62.54 112.2 61.46C113.16 60.38 114.576 59.84 116.448 59.84C118.584 59.84 120.264 60.5 121.488 61.82C122.712 63.14 123.324 64.964 123.324 67.292V68.732H118.608V67.616C118.608 66.344 118.272 65.36 117.6 64.664C116.952 63.968 116.052 63.62 114.9 63.62C113.724 63.62 112.812 63.968 112.164 64.664C111.54 65.36 111.228 66.344 111.228 67.616V80H106.728ZM133.534 80.36C131.494 80.36 129.886 79.82 128.71 78.74C127.534 77.66 126.946 76.208 126.946 74.384C126.946 72.44 127.594 70.94 128.89 69.884C130.186 68.828 132.022 68.3 134.398 68.3H139.33V66.608C139.33 65.648 139.018 64.904 138.394 64.376C137.77 63.824 136.918 63.548 135.838 63.548C134.854 63.548 134.038 63.764 133.39 64.196C132.742 64.628 132.358 65.216 132.238 65.96H127.846C128.062 64.088 128.902 62.6 130.366 61.496C131.83 60.392 133.702 59.84 135.982 59.84C138.406 59.84 140.314 60.452 141.706 61.676C143.122 62.876 143.83 64.508 143.83 66.572V80H139.474V76.544H138.754L139.474 75.572C139.474 77.036 138.934 78.2 137.854 79.064C136.774 79.928 135.334 80.36 133.534 80.36ZM135.01 76.976C136.282 76.976 137.314 76.652 138.106 76.004C138.922 75.356 139.33 74.516 139.33 73.484V71.072H134.47C133.558 71.072 132.826 71.336 132.274 71.864C131.722 72.392 131.446 73.088 131.446 73.952C131.446 74.888 131.758 75.632 132.382 76.184C133.03 76.712 133.906 76.976 135.01 76.976ZM149.288 80V60.2H153.68V63.98H154.904L153.68 65.024C153.68 63.392 154.148 62.12 155.084 61.208C156.044 60.296 157.352 59.84 159.008 59.84C160.952 59.84 162.5 60.488 163.652 61.784C164.828 63.08 165.416 64.82 165.416 67.004V80H160.916V67.472C160.916 66.272 160.604 65.348 159.98 64.7C159.356 64.052 158.48 63.728 157.352 63.728C156.248 63.728 155.372 64.064 154.724 64.736C154.1 65.408 153.788 66.368 153.788 67.616V80H149.288ZM178.146 80.324C176.634 80.324 175.314 80.084 174.186 79.604C173.058 79.124 172.17 78.464 171.522 77.624C170.898 76.76 170.562 75.752 170.514 74.6H175.014C175.062 75.224 175.362 75.728 175.914 76.112C176.49 76.496 177.234 76.688 178.146 76.688H179.73C180.834 76.688 181.662 76.472 182.214 76.04C182.766 75.608 183.042 75.02 183.042 74.276C183.042 73.58 182.79 73.04 182.286 72.656C181.806 72.248 181.05 71.984 180.018 71.864L177.57 71.504C175.314 71.192 173.658 70.592 172.602 69.704C171.546 68.816 171.018 67.484 171.018 65.708C171.018 63.86 171.642 62.432 172.89 61.424C174.138 60.392 175.974 59.876 178.398 59.876H179.766C181.974 59.876 183.738 60.368 185.058 61.352C186.378 62.336 187.086 63.656 187.182 65.312H182.682C182.61 64.784 182.31 64.352 181.782 64.016C181.278 63.68 180.606 63.512 179.766 63.512H178.398C177.366 63.512 176.61 63.704 176.13 64.088C175.674 64.448 175.446 64.988 175.446 65.708C175.446 66.38 175.65 66.884 176.058 67.22C176.466 67.532 177.126 67.76 178.038 67.904L180.594 68.264C182.946 68.6 184.674 69.236 185.778 70.172C186.906 71.084 187.47 72.44 187.47 74.24C187.47 76.16 186.81 77.66 185.49 78.74C184.194 79.796 182.274 80.324 179.73 80.324H178.146ZM200.596 80.36C198.916 80.36 197.44 80.048 196.168 79.424C194.92 78.776 193.948 77.876 193.252 76.724C192.556 75.548 192.208 74.168 192.208 72.584V67.616C192.208 66.008 192.556 64.628 193.252 63.476C193.948 62.324 194.92 61.436 196.168 60.812C197.44 60.164 198.916 59.84 200.596 59.84C203.092 59.84 205.084 60.488 206.572 61.784C208.06 63.056 208.84 64.796 208.912 67.004H204.412C204.34 65.972 203.968 65.18 203.296 64.628C202.648 64.052 201.748 63.764 200.596 63.764C199.396 63.764 198.448 64.1 197.752 64.772C197.056 65.42 196.708 66.356 196.708 67.58V72.584C196.708 73.808 197.056 74.756 197.752 75.428C198.448 76.1 199.396 76.436 200.596 76.436C201.748 76.436 202.648 76.16 203.296 75.608C203.968 75.032 204.34 74.228 204.412 73.196H208.912C208.84 75.404 208.06 77.156 206.572 78.452C205.084 79.724 203.092 80.36 200.596 80.36ZM222.109 80.36C220.429 80.36 218.965 80.036 217.717 79.388C216.469 78.74 215.497 77.84 214.801 76.688C214.129 75.512 213.793 74.144 213.793 72.584V67.616C213.793 66.056 214.129 64.7 214.801 63.548C215.497 62.372 216.469 61.46 217.717 60.812C218.965 60.164 220.429 59.84 222.109 59.84C223.765 59.84 225.205 60.164 226.429 60.812C227.677 61.46 228.637 62.372 229.309 63.548C230.005 64.7 230.353 66.056 230.353 67.616V71.18H218.149V72.584C218.149 73.976 218.485 75.032 219.157 75.752C219.829 76.448 220.825 76.796 222.145 76.796C223.153 76.796 223.969 76.628 224.593 76.292C225.217 75.932 225.613 75.416 225.781 74.744H230.209C229.873 76.448 228.961 77.816 227.473 78.848C226.009 79.856 224.221 80.36 222.109 80.36ZM225.997 68.66V67.58C225.997 66.212 225.673 65.168 225.025 64.448C224.377 63.704 223.405 63.332 222.109 63.332C220.813 63.332 219.829 63.704 219.157 64.448C218.485 65.192 218.149 66.248 218.149 67.616V68.372L226.321 68.3L225.997 68.66ZM235.631 80V60.2H240.023V63.98H241.247L240.023 65.024C240.023 63.392 240.491 62.12 241.427 61.208C242.387 60.296 243.695 59.84 245.351 59.84C247.295 59.84 248.843 60.488 249.995 61.784C251.171 63.08 251.759 64.82 251.759 67.004V80H247.259V67.472C247.259 66.272 246.947 65.348 246.323 64.7C245.699 64.052 244.823 63.728 243.695 63.728C242.591 63.728 241.715 64.064 241.067 64.736C240.443 65.408 240.131 66.368 240.131 67.616V80H235.631ZM263.553 80.36C261.585 80.36 259.989 79.676 258.765 78.308C257.565 76.94 256.965 75.104 256.965 72.8V67.436C256.965 65.108 257.565 63.26 258.765 61.892C259.965 60.524 261.561 59.84 263.553 59.84C265.185 59.84 266.481 60.308 267.441 61.244C268.401 62.156 268.881 63.416 268.881 65.024L267.873 63.98H268.917L268.773 59.264V53.72H273.273V80H268.881V76.22H267.873L268.881 75.176C268.881 76.784 268.401 78.056 267.441 78.992C266.481 79.904 265.185 80.36 263.553 80.36ZM265.137 76.472C266.289 76.472 267.177 76.136 267.801 75.464C268.449 74.768 268.773 73.808 268.773 72.584V67.616C268.773 66.392 268.449 65.444 267.801 64.772C267.177 64.076 266.289 63.728 265.137 63.728C263.985 63.728 263.085 64.064 262.437 64.736C261.789 65.408 261.465 66.368 261.465 67.616V72.584C261.465 73.832 261.789 74.792 262.437 75.464C263.085 76.136 263.985 76.472 265.137 76.472ZM286.867 80.36C285.187 80.36 283.723 80.036 282.475 79.388C281.227 78.74 280.255 77.84 279.559 76.688C278.887 75.512 278.551 74.144 278.551 72.584V67.616C278.551 66.056 278.887 64.7 279.559 63.548C280.255 62.372 281.227 61.46 282.475 60.812C283.723 60.164 285.187 59.84 286.867 59.84C288.523 59.84 289.963 60.164 291.187 60.812C292.435 61.46 293.395 62.372 294.067 63.548C294.763 64.7 295.111 66.056 295.111 67.616V71.18H282.907V72.584C282.907 73.976 283.243 75.032 283.915 75.752C284.587 76.448 285.583 76.796 286.903 76.796C287.911 76.796 288.727 76.628 289.351 76.292C289.975 75.932 290.371 75.416 290.539 74.744H294.967C294.631 76.448 293.719 77.816 292.231 78.848C290.767 79.856 288.979 80.36 286.867 80.36ZM290.755 68.66V67.58C290.755 66.212 290.431 65.168 289.783 64.448C289.135 63.704 288.163 63.332 286.867 63.332C285.571 63.332 284.587 63.704 283.915 64.448C283.243 65.192 282.907 66.248 282.907 67.616V68.372L291.079 68.3L290.755 68.66ZM300.389 80V60.2H304.781V63.98H306.005L304.781 65.024C304.781 63.392 305.249 62.12 306.185 61.208C307.145 60.296 308.453 59.84 310.109 59.84C312.053 59.84 313.601 60.488 314.753 61.784C315.929 63.08 316.517 64.82 316.517 67.004V80H312.017V67.472C312.017 66.272 311.705 65.348 311.081 64.7C310.457 64.052 309.581 63.728 308.453 63.728C307.349 63.728 306.473 64.064 305.825 64.736C305.201 65.408 304.889 66.368 304.889 67.616V80H300.389ZM330.111 80.36C328.431 80.36 326.955 80.048 325.683 79.424C324.435 78.776 323.463 77.876 322.767 76.724C322.071 75.548 321.723 74.168 321.723 72.584V67.616C321.723 66.008 322.071 64.628 322.767 63.476C323.463 62.324 324.435 61.436 325.683 60.812C326.955 60.164 328.431 59.84 330.111 59.84C332.607 59.84 334.599 60.488 336.087 61.784C337.575 63.056 338.355 64.796 338.427 67.004H333.927C333.855 65.972 333.483 65.18 332.811 64.628C332.163 64.052 331.263 63.764 330.111 63.764C328.911 63.764 327.963 64.1 327.267 64.772C326.571 65.42 326.223 66.356 326.223 67.58V72.584C326.223 73.808 326.571 74.756 327.267 75.428C327.963 76.1 328.911 76.436 330.111 76.436C331.263 76.436 332.163 76.16 332.811 75.608C333.483 75.032 333.855 74.228 333.927 73.196H338.427C338.355 75.404 337.575 77.156 336.087 78.452C334.599 79.724 332.607 80.36 330.111 80.36ZM351.625 80.36C349.945 80.36 348.481 80.036 347.233 79.388C345.985 78.74 345.013 77.84 344.317 76.688C343.645 75.512 343.309 74.144 343.309 72.584V67.616C343.309 66.056 343.645 64.7 344.317 63.548C345.013 62.372 345.985 61.46 347.233 60.812C348.481 60.164 349.945 59.84 351.625 59.84C353.281 59.84 354.721 60.164 355.945 60.812C357.193 61.46 358.153 62.372 358.825 63.548C359.521 64.7 359.869 66.056 359.869 67.616V71.18H347.665V72.584C347.665 73.976 348.001 75.032 348.673 75.752C349.345 76.448 350.341 76.796 351.661 76.796C352.669 76.796 353.485 76.628 354.109 76.292C354.733 75.932 355.129 75.416 355.297 74.744H359.725C359.389 76.448 358.477 77.816 356.989 78.848C355.525 79.856 353.737 80.36 351.625 80.36ZM355.513 68.66V67.58C355.513 66.212 355.189 65.168 354.541 64.448C353.893 63.704 352.921 63.332 351.625 63.332C350.329 63.332 349.345 63.704 348.673 64.448C348.001 65.192 347.665 66.248 347.665 67.616V68.372L355.837 68.3L355.513 68.66Z" fill="white"/>
<path d="M468.5 59.5V54.676H456.98V47.152L466.844 33.22H472.964L462.02 48.664V49.996H468.5V44.38H473.9V59.5H468.5ZM479.106 59.5V54.424L487.458 46.36C488.442 45.4 489.174 44.512 489.654 43.696C490.158 42.88 490.41 41.992 490.41 41.032C490.41 39.976 490.122 39.16 489.546 38.584C488.994 38.008 488.226 37.72 487.242 37.72C486.162 37.72 485.31 38.044 484.686 38.692C484.086 39.316 483.786 40.192 483.786 41.32H478.386C478.386 39.592 478.746 38.104 479.466 36.856C480.21 35.584 481.254 34.6 482.598 33.904C483.942 33.208 485.526 32.86 487.35 32.86C489.054 32.86 490.53 33.184 491.778 33.832C493.05 34.456 494.034 35.332 494.73 36.46C495.45 37.588 495.81 38.92 495.81 40.456C495.81 42.16 495.39 43.792 494.55 45.352C493.71 46.912 492.366 48.544 490.518 50.248L485.766 54.64H496.098V59.5H479.106Z" fill="white"/>
<path d="M435.113 75.5L437.201 62.36H441.431C442.247 62.36 442.931 62.522 443.483 62.846C444.035 63.158 444.425 63.602 444.653 64.178C444.893 64.754 444.953 65.438 444.833 66.23C444.713 67.01 444.437 67.694 444.005 68.282C443.585 68.858 443.051 69.308 442.403 69.632C441.755 69.944 441.023 70.1 440.207 70.1H437.597L436.733 75.5H435.113ZM437.813 68.642H440.423C441.131 68.642 441.731 68.426 442.223 67.994C442.727 67.55 443.039 66.962 443.159 66.23C443.279 65.486 443.159 64.898 442.799 64.466C442.439 64.034 441.905 63.818 441.197 63.818H438.587L437.813 68.642ZM444.448 75.5L446.014 65.6H447.598L447.292 67.49H447.67L446.968 68.66C447.136 67.592 447.496 66.788 448.048 66.248C448.6 65.696 449.332 65.42 450.244 65.42C451.288 65.42 452.062 65.75 452.566 66.41C453.082 67.058 453.256 67.94 453.088 69.056L452.98 69.65H451.36L451.432 69.2C451.564 68.42 451.474 67.826 451.162 67.418C450.85 66.998 450.346 66.788 449.65 66.788C448.966 66.788 448.396 66.998 447.94 67.418C447.484 67.838 447.19 68.432 447.058 69.2L446.068 75.5H444.448ZM456.807 75.68C456.027 75.68 455.373 75.53 454.845 75.23C454.329 74.93 453.963 74.498 453.747 73.934C453.531 73.358 453.483 72.68 453.603 71.9L454.017 69.2C454.149 68.408 454.413 67.73 454.809 67.166C455.205 66.602 455.715 66.17 456.339 65.87C456.963 65.57 457.665 65.42 458.445 65.42C459.237 65.42 459.891 65.57 460.407 65.87C460.923 66.17 461.289 66.602 461.505 67.166C461.733 67.73 461.787 68.402 461.667 69.182L461.235 71.9C461.115 72.68 460.851 73.358 460.443 73.934C460.047 74.498 459.537 74.93 458.913 75.23C458.301 75.53 457.599 75.68 456.807 75.68ZM457.041 74.24C457.749 74.24 458.325 74.042 458.769 73.646C459.213 73.25 459.495 72.668 459.615 71.9L460.029 69.2C460.161 68.432 460.065 67.85 459.741 67.454C459.429 67.058 458.919 66.86 458.211 66.86C457.515 66.86 456.945 67.058 456.501 67.454C456.057 67.85 455.769 68.432 455.637 69.2L455.223 71.9C455.103 72.668 455.199 73.25 455.511 73.646C455.835 74.042 456.345 74.24 457.041 74.24ZM461.444 78.74L461.696 77.246H464.018C464.762 77.246 465.368 77.042 465.836 76.634C466.316 76.238 466.616 75.674 466.736 74.942L467.978 67.076H463.838L464.072 65.6H469.832L468.356 74.942C468.236 75.71 467.966 76.376 467.546 76.94C467.126 77.516 466.592 77.96 465.944 78.272C465.308 78.584 464.582 78.74 463.766 78.74H461.444ZM469.22 63.818C468.824 63.818 468.53 63.716 468.338 63.512C468.146 63.308 468.074 63.032 468.122 62.684C468.182 62.324 468.338 62.042 468.59 61.838C468.854 61.622 469.184 61.514 469.58 61.514C469.976 61.514 470.27 61.622 470.462 61.838C470.666 62.042 470.738 62.324 470.678 62.684C470.63 63.032 470.474 63.308 470.21 63.512C469.946 63.716 469.616 63.818 469.22 63.818ZM474.793 75.68C474.013 75.68 473.365 75.524 472.849 75.212C472.333 74.9 471.961 74.462 471.733 73.898C471.517 73.322 471.469 72.656 471.589 71.9L472.003 69.2C472.135 68.432 472.399 67.766 472.795 67.202C473.203 66.638 473.713 66.2 474.325 65.888C474.949 65.576 475.651 65.42 476.431 65.42C477.211 65.42 477.859 65.576 478.375 65.888C478.903 66.2 479.275 66.638 479.491 67.202C479.719 67.766 479.767 68.432 479.635 69.2L479.365 70.946H473.317L473.173 71.9C473.053 72.68 473.143 73.28 473.443 73.7C473.755 74.108 474.277 74.312 475.009 74.312C475.633 74.312 476.143 74.204 476.539 73.988C476.947 73.76 477.229 73.424 477.385 72.98H479.005C478.849 73.532 478.573 74.012 478.177 74.42C477.781 74.816 477.289 75.128 476.701 75.356C476.125 75.572 475.489 75.68 474.793 75.68ZM477.961 69.866L478.051 69.2C478.183 68.42 478.093 67.82 477.781 67.4C477.481 66.98 476.959 66.77 476.215 66.77C475.483 66.77 474.895 66.98 474.451 67.4C474.007 67.82 473.719 68.42 473.587 69.2L473.515 69.722H478.105L477.961 69.866ZM483.858 75.68C483.066 75.68 482.4 75.53 481.86 75.23C481.332 74.93 480.954 74.498 480.726 73.934C480.51 73.358 480.462 72.68 480.582 71.9L480.996 69.2C481.128 68.408 481.392 67.73 481.788 67.166C482.196 66.602 482.718 66.17 483.354 65.87C483.99 65.57 484.704 65.42 485.496 65.42C486.636 65.42 487.506 65.726 488.106 66.338C488.706 66.95 488.94 67.784 488.808 68.84H487.188C487.248 68.204 487.11 67.718 486.774 67.382C486.438 67.034 485.934 66.86 485.262 66.86C484.554 66.86 483.966 67.064 483.498 67.472C483.042 67.868 482.754 68.438 482.634 69.182L482.202 71.9C482.082 72.644 482.19 73.22 482.526 73.628C482.862 74.036 483.384 74.24 484.092 74.24C484.764 74.24 485.322 74.066 485.766 73.718C486.21 73.37 486.504 72.884 486.648 72.26H488.268C488.064 73.316 487.56 74.15 486.756 74.762C485.964 75.374 484.998 75.68 483.858 75.68ZM493.895 75.5C493.043 75.5 492.413 75.272 492.005 74.816C491.609 74.36 491.477 73.718 491.609 72.89L492.527 67.076H489.737L489.971 65.6H492.761L493.193 62.9H494.813L494.381 65.6H498.341L498.107 67.076H494.147L493.229 72.89C493.109 73.646 493.409 74.024 494.129 74.024H496.829L496.595 75.5H493.895Z" fill="white"/>
<path d="M0 7C0 3.13401 3.13401 0 7 0H509C512.866 0 516 3.13401 516 7H512C512 5.34315 510.657 4 509 4H7C5.34315 4 4 5.34315 4 7H0ZM516 101C516 104.866 512.866 108 509 108H7C3.13401 108 0 104.866 0 101L4 96C4 96 5.34315 96 7 96H509C510.657 96 512 96 512 96L516 101ZM7 108C3.13401 108 0 104.866 0 101V7C0 3.13401 3.13401 0 7 0V4C5.34315 4 4 5.34315 4 7V96C4 96 5.34315 96 7 96V108ZM509 0C512.866 0 516 3.13401 516 7V101C516 104.866 512.866 108 509 108V96C510.657 96 512 96 512 96V7C512 5.34315 510.657 4 509 4V0Z" fill="white" mask="url(#path-1-outside-1_28_6)"/>
</svg>
