<svg width="516" height="108" viewBox="0 0 516 108" fill="none" xmlns="http://www.w3.org/2000/svg">
<mask id="path-1-outside-1_28_6" maskUnits="userSpaceOnUse" x="0" y="0" width="516" height="108" fill="black">
<rect fill="white" width="516" height="108"/>
<path d="M2 7C2 4.23858 4.23858 2 7 2H509C511.761 2 514 4.23858 514 7V97C514 99.7614 511.761 102 509 102H7C4.23858 102 2 99.7614 2 97V7Z"/>
</mask>
<path d="M2 7C2 4.23858 4.23858 2 7 2H509C511.761 2 514 4.23858 514 7V97C514 99.7614 511.761 102 509 102H7C4.23858 102 2 99.7614 2 97V7Z" fill="#1E2025"/>
<path d="M19.736 80V75.896H26.648V64.268H20.636V60.2H30.968V75.896H37.088V80H19.736ZM28.448 56.888C27.536 56.888 26.816 56.66 26.288 56.204C25.76 55.724 25.496 55.088 25.496 54.296C25.496 53.504 25.76 52.88 26.288 52.424C26.816 51.944 27.536 51.704 28.448 51.704C29.36 51.704 30.08 51.944 30.608 52.424C31.136 52.88 31.4 53.504 31.4 54.296C31.4 55.088 31.136 55.724 30.608 56.204C30.08 56.66 29.36 56.888 28.448 56.888ZM41.3579 80V60.2H45.7499V63.98H46.9739L45.7499 65.024C45.7499 63.392 46.2179 62.12 47.1539 61.208C48.1139 60.296 49.4219 59.84 51.0779 59.84C53.0219 59.84 54.5699 60.488 55.7219 61.784C56.8979 63.08 57.4859 64.82 57.4859 67.004V80H52.9859V67.472C52.9859 66.272 52.6739 65.348 52.0499 64.7C51.4259 64.052 50.5499 63.728 49.4219 63.728C48.3179 63.728 47.4419 64.064 46.7939 64.736C46.1699 65.408 45.8579 66.368 45.8579 67.616V80H41.3579ZM71.0799 80.36C69.3999 80.36 67.9239 80.048 66.6519 79.424C65.4039 78.776 64.4319 77.876 63.7359 76.724C63.0399 75.548 62.6919 74.168 62.6919 72.584V67.616C62.6919 66.008 63.0399 64.628 63.7359 63.476C64.4319 62.324 65.4039 61.436 66.6519 60.812C67.9239 60.164 69.3999 59.84 71.0799 59.84C73.5759 59.84 75.5679 60.488 77.0559 61.784C78.5439 63.056 79.3239 64.796 79.3959 67.004H74.8959C74.8239 65.972 74.4519 65.18 73.7799 64.628C73.1319 64.052 72.2319 63.764 71.0799 63.764C69.8799 63.764 68.9319 64.1 68.2359 64.772C67.5399 65.42 67.1919 66.356 67.1919 67.58V72.584C67.1919 73.808 67.5399 74.756 68.2359 75.428C68.9319 76.1 69.8799 76.436 71.0799 76.436C72.2319 76.436 73.1319 76.16 73.7799 75.608C74.4519 75.032 74.8239 74.228 74.8959 73.196H79.3959C79.3239 75.404 78.5439 77.156 77.0559 78.452C75.5679 79.724 73.5759 80.36 71.0799 80.36ZM92.5938 80.36C90.9138 80.36 89.4498 80.036 88.2018 79.388C86.9538 78.74 85.9818 77.84 85.2858 76.688C84.6138 75.512 84.2778 74.144 84.2778 72.584V67.616C84.2778 66.056 84.6138 64.7 85.2858 63.548C85.9818 62.372 86.9538 61.46 88.2018 60.812C89.4498 60.164 90.9138 59.84 92.5938 59.84C94.2498 59.84 95.6898 60.164 96.9138 60.812C98.1618 61.46 99.1218 62.372 99.7938 63.548C100.49 64.7 100.838 66.056 100.838 67.616V71.18H88.6338V72.584C88.6338 73.976 88.9698 75.032 89.6418 75.752C90.3138 76.448 91.3098 76.796 92.6298 76.796C93.6378 76.796 94.4538 76.628 95.0778 76.292C95.7018 75.932 96.0978 75.416 96.2658 74.744H100.694C100.358 76.448 99.4458 77.816 97.9578 78.848C96.4938 79.856 94.7058 80.36 92.5938 80.36ZM96.4818 68.66V67.58C96.4818 66.212 96.1578 65.168 95.5098 64.448C94.8618 63.704 93.8898 63.332 92.5938 63.332C91.2978 63.332 90.3138 63.704 89.6418 64.448C88.9698 65.192 88.6338 66.248 88.6338 67.616V68.372L96.8058 68.3L96.4818 68.66ZM106.116 86.48V60.2H110.508V63.98H111.516L110.508 65.024C110.508 63.416 110.988 62.156 111.948 61.244C112.908 60.308 114.204 59.84 115.836 59.84C117.828 59.84 119.424 60.524 120.624 61.892C121.824 63.26 122.424 65.096 122.424 67.4V72.764C122.424 74.3 122.148 75.644 121.596 76.796C121.068 77.924 120.312 78.8 119.328 79.424C118.344 80.048 117.18 80.36 115.836 80.36C114.204 80.36 112.908 79.904 111.948 78.992C110.988 78.056 110.508 76.784 110.508 75.176L111.516 76.22H110.472L110.616 80.936V86.48H106.116ZM114.252 76.472C115.404 76.472 116.304 76.136 116.952 75.464C117.6 74.792 117.924 73.832 117.924 72.584V67.616C117.924 66.368 117.6 65.408 116.952 64.736C116.304 64.064 115.404 63.728 114.252 63.728C113.124 63.728 112.236 64.076 111.588 64.772C110.94 65.444 110.616 66.392 110.616 67.616V72.584C110.616 73.808 110.94 74.768 111.588 75.464C112.236 76.136 113.124 76.472 114.252 76.472ZM137.89 80C135.994 80 134.506 79.472 133.426 78.416C132.37 77.36 131.842 75.908 131.842 74.06V64.268H126.478V60.2H131.842V54.62H136.378V60.2H143.974V64.268H136.378V74.06C136.378 75.308 136.99 75.932 138.214 75.932H143.614V80H137.89ZM149.252 80V75.896H156.164V64.268H150.152V60.2H160.484V75.896H166.604V80H149.252ZM157.964 56.888C157.052 56.888 156.332 56.66 155.804 56.204C155.276 55.724 155.012 55.088 155.012 54.296C155.012 53.504 155.276 52.88 155.804 52.424C156.332 51.944 157.052 51.704 157.964 51.704C158.876 51.704 159.596 51.944 160.124 52.424C160.652 52.88 160.916 53.504 160.916 54.296C160.916 55.088 160.652 55.724 160.124 56.204C159.596 56.66 158.876 56.888 157.964 56.888ZM178.902 80.324C177.222 80.324 175.758 80.012 174.51 79.388C173.286 78.74 172.326 77.84 171.63 76.688C170.958 75.512 170.622 74.132 170.622 72.548V67.652C170.622 66.068 170.958 64.7 171.63 63.548C172.326 62.372 173.286 61.472 174.51 60.848C175.758 60.2 177.222 59.876 178.902 59.876C180.606 59.876 182.07 60.2 183.294 60.848C184.518 61.472 185.466 62.372 186.138 63.548C186.834 64.7 187.182 66.056 187.182 67.616V72.548C187.182 74.132 186.834 75.512 186.138 76.688C185.466 77.84 184.518 78.74 183.294 79.388C182.07 80.012 180.606 80.324 178.902 80.324ZM178.902 76.4C180.102 76.4 181.026 76.076 181.674 75.428C182.346 74.756 182.682 73.796 182.682 72.548V67.652C182.682 66.38 182.346 65.42 181.674 64.772C181.026 64.124 180.102 63.8 178.902 63.8C177.726 63.8 176.802 64.124 176.13 64.772C175.458 65.42 175.122 66.38 175.122 67.652V72.548C175.122 73.796 175.458 74.756 176.13 75.428C176.802 76.076 177.726 76.4 178.902 76.4ZM192.46 80V60.2H196.852V63.98H198.076L196.852 65.024C196.852 63.392 197.32 62.12 198.256 61.208C199.216 60.296 200.524 59.84 202.18 59.84C204.124 59.84 205.672 60.488 206.824 61.784C208 63.08 208.588 64.82 208.588 67.004V80H204.088V67.472C204.088 66.272 203.776 65.348 203.152 64.7C202.528 64.052 201.652 63.728 200.524 63.728C199.42 63.728 198.544 64.064 197.896 64.736C197.272 65.408 196.96 66.368 196.96 67.616V80H192.46Z" fill="white"/>
<path d="M468.5 59.5V54.676H456.98V47.152L466.844 33.22H472.964L462.02 48.664V49.996H468.5V44.38H473.9V59.5H468.5ZM479.106 59.5V54.424L487.458 46.36C488.442 45.4 489.174 44.512 489.654 43.696C490.158 42.88 490.41 41.992 490.41 41.032C490.41 39.976 490.122 39.16 489.546 38.584C488.994 38.008 488.226 37.72 487.242 37.72C486.162 37.72 485.31 38.044 484.686 38.692C484.086 39.316 483.786 40.192 483.786 41.32H478.386C478.386 39.592 478.746 38.104 479.466 36.856C480.21 35.584 481.254 34.6 482.598 33.904C483.942 33.208 485.526 32.86 487.35 32.86C489.054 32.86 490.53 33.184 491.778 33.832C493.05 34.456 494.034 35.332 494.73 36.46C495.45 37.588 495.81 38.92 495.81 40.456C495.81 42.16 495.39 43.792 494.55 45.352C493.71 46.912 492.366 48.544 490.518 50.248L485.766 54.64H496.098V59.5H479.106Z" fill="white"/>
<path d="M435.113 75.5L437.201 62.36H441.431C442.247 62.36 442.931 62.522 443.483 62.846C444.035 63.158 444.425 63.602 444.653 64.178C444.893 64.754 444.953 65.438 444.833 66.23C444.713 67.01 444.437 67.694 444.005 68.282C443.585 68.858 443.051 69.308 442.403 69.632C441.755 69.944 441.023 70.1 440.207 70.1H437.597L436.733 75.5H435.113ZM437.813 68.642H440.423C441.131 68.642 441.731 68.426 442.223 67.994C442.727 67.55 443.039 66.962 443.159 66.23C443.279 65.486 443.159 64.898 442.799 64.466C442.439 64.034 441.905 63.818 441.197 63.818H438.587L437.813 68.642ZM444.448 75.5L446.014 65.6H447.598L447.292 67.49H447.67L446.968 68.66C447.136 67.592 447.496 66.788 448.048 66.248C448.6 65.696 449.332 65.42 450.244 65.42C451.288 65.42 452.062 65.75 452.566 66.41C453.082 67.058 453.256 67.94 453.088 69.056L452.98 69.65H451.36L451.432 69.2C451.564 68.42 451.474 67.826 451.162 67.418C450.85 66.998 450.346 66.788 449.65 66.788C448.966 66.788 448.396 66.998 447.94 67.418C447.484 67.838 447.19 68.432 447.058 69.2L446.068 75.5H444.448ZM456.807 75.68C456.027 75.68 455.373 75.53 454.845 75.23C454.329 74.93 453.963 74.498 453.747 73.934C453.531 73.358 453.483 72.68 453.603 71.9L454.017 69.2C454.149 68.408 454.413 67.73 454.809 67.166C455.205 66.602 455.715 66.17 456.339 65.87C456.963 65.57 457.665 65.42 458.445 65.42C459.237 65.42 459.891 65.57 460.407 65.87C460.923 66.17 461.289 66.602 461.505 67.166C461.733 67.73 461.787 68.402 461.667 69.182L461.235 71.9C461.115 72.68 460.851 73.358 460.443 73.934C460.047 74.498 459.537 74.93 458.913 75.23C458.301 75.53 457.599 75.68 456.807 75.68ZM457.041 74.24C457.749 74.24 458.325 74.042 458.769 73.646C459.213 73.25 459.495 72.668 459.615 71.9L460.029 69.2C460.161 68.432 460.065 67.85 459.741 67.454C459.429 67.058 458.919 66.86 458.211 66.86C457.515 66.86 456.945 67.058 456.501 67.454C456.057 67.85 455.769 68.432 455.637 69.2L455.223 71.9C455.103 72.668 455.199 73.25 455.511 73.646C455.835 74.042 456.345 74.24 457.041 74.24ZM461.444 78.74L461.696 77.246H464.018C464.762 77.246 465.368 77.042 465.836 76.634C466.316 76.238 466.616 75.674 466.736 74.942L467.978 67.076H463.838L464.072 65.6H469.832L468.356 74.942C468.236 75.71 467.966 76.376 467.546 76.94C467.126 77.516 466.592 77.96 465.944 78.272C465.308 78.584 464.582 78.74 463.766 78.74H461.444ZM469.22 63.818C468.824 63.818 468.53 63.716 468.338 63.512C468.146 63.308 468.074 63.032 468.122 62.684C468.182 62.324 468.338 62.042 468.59 61.838C468.854 61.622 469.184 61.514 469.58 61.514C469.976 61.514 470.27 61.622 470.462 61.838C470.666 62.042 470.738 62.324 470.678 62.684C470.63 63.032 470.474 63.308 470.21 63.512C469.946 63.716 469.616 63.818 469.22 63.818ZM474.793 75.68C474.013 75.68 473.365 75.524 472.849 75.212C472.333 74.9 471.961 74.462 471.733 73.898C471.517 73.322 471.469 72.656 471.589 71.9L472.003 69.2C472.135 68.432 472.399 67.766 472.795 67.202C473.203 66.638 473.713 66.2 474.325 65.888C474.949 65.576 475.651 65.42 476.431 65.42C477.211 65.42 477.859 65.576 478.375 65.888C478.903 66.2 479.275 66.638 479.491 67.202C479.719 67.766 479.767 68.432 479.635 69.2L479.365 70.946H473.317L473.173 71.9C473.053 72.68 473.143 73.28 473.443 73.7C473.755 74.108 474.277 74.312 475.009 74.312C475.633 74.312 476.143 74.204 476.539 73.988C476.947 73.76 477.229 73.424 477.385 72.98H479.005C478.849 73.532 478.573 74.012 478.177 74.42C477.781 74.816 477.289 75.128 476.701 75.356C476.125 75.572 475.489 75.68 474.793 75.68ZM477.961 69.866L478.051 69.2C478.183 68.42 478.093 67.82 477.781 67.4C477.481 66.98 476.959 66.77 476.215 66.77C475.483 66.77 474.895 66.98 474.451 67.4C474.007 67.82 473.719 68.42 473.587 69.2L473.515 69.722H478.105L477.961 69.866ZM483.858 75.68C483.066 75.68 482.4 75.53 481.86 75.23C481.332 74.93 480.954 74.498 480.726 73.934C480.51 73.358 480.462 72.68 480.582 71.9L480.996 69.2C481.128 68.408 481.392 67.73 481.788 67.166C482.196 66.602 482.718 66.17 483.354 65.87C483.99 65.57 484.704 65.42 485.496 65.42C486.636 65.42 487.506 65.726 488.106 66.338C488.706 66.95 488.94 67.784 488.808 68.84H487.188C487.248 68.204 487.11 67.718 486.774 67.382C486.438 67.034 485.934 66.86 485.262 66.86C484.554 66.86 483.966 67.064 483.498 67.472C483.042 67.868 482.754 68.438 482.634 69.182L482.202 71.9C482.082 72.644 482.19 73.22 482.526 73.628C482.862 74.036 483.384 74.24 484.092 74.24C484.764 74.24 485.322 74.066 485.766 73.718C486.21 73.37 486.504 72.884 486.648 72.26H488.268C488.064 73.316 487.56 74.15 486.756 74.762C485.964 75.374 484.998 75.68 483.858 75.68ZM493.895 75.5C493.043 75.5 492.413 75.272 492.005 74.816C491.609 74.36 491.477 73.718 491.609 72.89L492.527 67.076H489.737L489.971 65.6H492.761L493.193 62.9H494.813L494.381 65.6H498.341L498.107 67.076H494.147L493.229 72.89C493.109 73.646 493.409 74.024 494.129 74.024H496.829L496.595 75.5H493.895Z" fill="white"/>
<path d="M0 7C0 3.13401 3.13401 0 7 0H509C512.866 0 516 3.13401 516 7H512C512 5.34315 510.657 4 509 4H7C5.34315 4 4 5.34315 4 7H0ZM516 101C516 104.866 512.866 108 509 108H7C3.13401 108 0 104.866 0 101L4 96C4 96 5.34315 96 7 96H509C510.657 96 512 96 512 96L516 101ZM7 108C3.13401 108 0 104.866 0 101V7C0 3.13401 3.13401 0 7 0V4C5.34315 4 4 5.34315 4 7V96C4 96 5.34315 96 7 96V108ZM509 0C512.866 0 516 3.13401 516 7V101C516 104.866 512.866 108 509 108V96C510.657 96 512 96 512 96V7C512 5.34315 510.657 4 509 4V0Z" fill="white" mask="url(#path-1-outside-1_28_6)"/>
</svg>
