<svg width="516" height="108" viewBox="0 0 516 108" fill="none" xmlns="http://www.w3.org/2000/svg">
<mask id="path-1-outside-1_28_6" maskUnits="userSpaceOnUse" x="0" y="0" width="516" height="108" fill="black">
<rect fill="white" width="516" height="108"/>
<path d="M2 7C2 4.23858 4.23858 2 7 2H509C511.761 2 514 4.23858 514 7V97C514 99.7614 511.761 102 509 102H7C4.23858 102 2 99.7614 2 97V7Z"/>
</mask>
<path d="M2 7C2 4.23858 4.23858 2 7 2H509C511.761 2 514 4.23858 514 7V97C514 99.7614 511.761 102 509 102H7C4.23858 102 2 99.7614 2 97V7Z" fill="#1E2025"/>
<path d="M18.872 80V60.2H22.544V62.864H23.3L22.688 63.512C22.688 62.408 23 61.52 23.624 60.848C24.248 60.176 25.052 59.84 26.036 59.84C27.092 59.84 27.908 60.272 28.484 61.136C29.084 62 29.384 63.164 29.384 64.628L28.592 62.864H29.816L29.348 63.512C29.348 62.408 29.66 61.52 30.284 60.848C30.908 60.176 31.736 59.84 32.768 59.84C33.992 59.84 34.964 60.296 35.684 61.208C36.404 62.12 36.764 63.356 36.764 64.916V80H32.804V65.096C32.804 64.448 32.66 63.944 32.372 63.584C32.084 63.2 31.664 63.008 31.112 63.008C30.584 63.008 30.164 63.188 29.852 63.548C29.564 63.908 29.42 64.424 29.42 65.096V80H26.18V65.096C26.18 64.424 26.036 63.908 25.748 63.548C25.46 63.188 25.04 63.008 24.488 63.008C23.936 63.008 23.516 63.188 23.228 63.548C22.964 63.908 22.832 64.424 22.832 65.096V80H18.872ZM41.3219 80V75.896H48.2339V64.268H42.2219V60.2H52.5539V75.896H58.6739V80H41.3219ZM50.0339 56.888C49.1219 56.888 48.4019 56.66 47.8739 56.204C47.3459 55.724 47.0819 55.088 47.0819 54.296C47.0819 53.504 47.3459 52.88 47.8739 52.424C48.4019 51.944 49.1219 51.704 50.0339 51.704C50.9459 51.704 51.6659 51.944 52.1939 52.424C52.7219 52.88 52.9859 53.504 52.9859 54.296C52.9859 55.088 52.7219 55.724 52.1939 56.204C51.6659 56.66 50.9459 56.888 50.0339 56.888ZM62.9439 80V60.2H67.3359V63.98H68.5599L67.3359 65.024C67.3359 63.392 67.8039 62.12 68.7399 61.208C69.6999 60.296 71.0079 59.84 72.6639 59.84C74.6079 59.84 76.1559 60.488 77.3079 61.784C78.4839 63.08 79.0719 64.82 79.0719 67.004V80H74.5719V67.472C74.5719 66.272 74.2599 65.348 73.6359 64.7C73.0119 64.052 72.1359 63.728 71.0079 63.728C69.9039 63.728 69.0279 64.064 68.3799 64.736C67.7559 65.408 67.4439 66.368 67.4439 67.616V80H62.9439ZM84.4938 80V75.896H91.4058V64.268H85.3938V60.2H95.7258V75.896H101.846V80H84.4938ZM93.2058 56.888C92.2938 56.888 91.5738 56.66 91.0458 56.204C90.5178 55.724 90.2538 55.088 90.2538 54.296C90.2538 53.504 90.5178 52.88 91.0458 52.424C91.5738 51.944 92.2938 51.704 93.2058 51.704C94.1178 51.704 94.8378 51.944 95.3658 52.424C95.8938 52.88 96.1578 53.504 96.1578 54.296C96.1578 55.088 95.8938 55.724 95.3658 56.204C94.8378 56.66 94.1178 56.888 93.2058 56.888ZM116.304 80C114.408 80 112.92 79.472 111.84 78.416C110.784 77.36 110.256 75.908 110.256 74.06V64.268H104.892V60.2H110.256V54.62H114.792V60.2H122.388V64.268H114.792V74.06C114.792 75.308 115.404 75.932 116.628 75.932H122.028V80H116.304ZM133.534 80.36C131.494 80.36 129.886 79.82 128.71 78.74C127.534 77.66 126.946 76.208 126.946 74.384C126.946 72.44 127.594 70.94 128.89 69.884C130.186 68.828 132.022 68.3 134.398 68.3H139.33V66.608C139.33 65.648 139.018 64.904 138.394 64.376C137.77 63.824 136.918 63.548 135.838 63.548C134.854 63.548 134.038 63.764 133.39 64.196C132.742 64.628 132.358 65.216 132.238 65.96H127.846C128.062 64.088 128.902 62.6 130.366 61.496C131.83 60.392 133.702 59.84 135.982 59.84C138.406 59.84 140.314 60.452 141.706 61.676C143.122 62.876 143.83 64.508 143.83 66.572V80H139.474V76.544H138.754L139.474 75.572C139.474 77.036 138.934 78.2 137.854 79.064C136.774 79.928 135.334 80.36 133.534 80.36ZM135.01 76.976C136.282 76.976 137.314 76.652 138.106 76.004C138.922 75.356 139.33 74.516 139.33 73.484V71.072H134.47C133.558 71.072 132.826 71.336 132.274 71.864C131.722 72.392 131.446 73.088 131.446 73.952C131.446 74.888 131.758 75.632 132.382 76.184C133.03 76.712 133.906 76.976 135.01 76.976ZM160.34 80C159.044 80 157.904 79.736 156.92 79.208C155.96 78.68 155.204 77.936 154.652 76.976C154.1 75.992 153.824 74.864 153.824 73.592V57.788H147.488V53.72H158.324V73.592C158.324 74.312 158.528 74.888 158.936 75.32C159.368 75.728 159.944 75.932 160.664 75.932H166.64V80H160.34ZM170.982 80V53.72H175.482V67.976H178.614L183.438 60.2H188.478L182.502 69.776L188.586 80H183.438L178.614 71.792H175.482V80H170.982Z" fill="white"/>
<path d="M468.5 59.5V54.676H456.98V47.152L466.844 33.22H472.964L462.02 48.664V49.996H468.5V44.38H473.9V59.5H468.5ZM479.106 59.5V54.424L487.458 46.36C488.442 45.4 489.174 44.512 489.654 43.696C490.158 42.88 490.41 41.992 490.41 41.032C490.41 39.976 490.122 39.16 489.546 38.584C488.994 38.008 488.226 37.72 487.242 37.72C486.162 37.72 485.31 38.044 484.686 38.692C484.086 39.316 483.786 40.192 483.786 41.32H478.386C478.386 39.592 478.746 38.104 479.466 36.856C480.21 35.584 481.254 34.6 482.598 33.904C483.942 33.208 485.526 32.86 487.35 32.86C489.054 32.86 490.53 33.184 491.778 33.832C493.05 34.456 494.034 35.332 494.73 36.46C495.45 37.588 495.81 38.92 495.81 40.456C495.81 42.16 495.39 43.792 494.55 45.352C493.71 46.912 492.366 48.544 490.518 50.248L485.766 54.64H496.098V59.5H479.106Z" fill="white"/>
<path d="M435.113 75.5L437.201 62.36H441.431C442.247 62.36 442.931 62.522 443.483 62.846C444.035 63.158 444.425 63.602 444.653 64.178C444.893 64.754 444.953 65.438 444.833 66.23C444.713 67.01 444.437 67.694 444.005 68.282C443.585 68.858 443.051 69.308 442.403 69.632C441.755 69.944 441.023 70.1 440.207 70.1H437.597L436.733 75.5H435.113ZM437.813 68.642H440.423C441.131 68.642 441.731 68.426 442.223 67.994C442.727 67.55 443.039 66.962 443.159 66.23C443.279 65.486 443.159 64.898 442.799 64.466C442.439 64.034 441.905 63.818 441.197 63.818H438.587L437.813 68.642ZM444.448 75.5L446.014 65.6H447.598L447.292 67.49H447.67L446.968 68.66C447.136 67.592 447.496 66.788 448.048 66.248C448.6 65.696 449.332 65.42 450.244 65.42C451.288 65.42 452.062 65.75 452.566 66.41C453.082 67.058 453.256 67.94 453.088 69.056L452.98 69.65H451.36L451.432 69.2C451.564 68.42 451.474 67.826 451.162 67.418C450.85 66.998 450.346 66.788 449.65 66.788C448.966 66.788 448.396 66.998 447.94 67.418C447.484 67.838 447.19 68.432 447.058 69.2L446.068 75.5H444.448ZM456.807 75.68C456.027 75.68 455.373 75.53 454.845 75.23C454.329 74.93 453.963 74.498 453.747 73.934C453.531 73.358 453.483 72.68 453.603 71.9L454.017 69.2C454.149 68.408 454.413 67.73 454.809 67.166C455.205 66.602 455.715 66.17 456.339 65.87C456.963 65.57 457.665 65.42 458.445 65.42C459.237 65.42 459.891 65.57 460.407 65.87C460.923 66.17 461.289 66.602 461.505 67.166C461.733 67.73 461.787 68.402 461.667 69.182L461.235 71.9C461.115 72.68 460.851 73.358 460.443 73.934C460.047 74.498 459.537 74.93 458.913 75.23C458.301 75.53 457.599 75.68 456.807 75.68ZM457.041 74.24C457.749 74.24 458.325 74.042 458.769 73.646C459.213 73.25 459.495 72.668 459.615 71.9L460.029 69.2C460.161 68.432 460.065 67.85 459.741 67.454C459.429 67.058 458.919 66.86 458.211 66.86C457.515 66.86 456.945 67.058 456.501 67.454C456.057 67.85 455.769 68.432 455.637 69.2L455.223 71.9C455.103 72.668 455.199 73.25 455.511 73.646C455.835 74.042 456.345 74.24 457.041 74.24ZM461.444 78.74L461.696 77.246H464.018C464.762 77.246 465.368 77.042 465.836 76.634C466.316 76.238 466.616 75.674 466.736 74.942L467.978 67.076H463.838L464.072 65.6H469.832L468.356 74.942C468.236 75.71 467.966 76.376 467.546 76.94C467.126 77.516 466.592 77.96 465.944 78.272C465.308 78.584 464.582 78.74 463.766 78.74H461.444ZM469.22 63.818C468.824 63.818 468.53 63.716 468.338 63.512C468.146 63.308 468.074 63.032 468.122 62.684C468.182 62.324 468.338 62.042 468.59 61.838C468.854 61.622 469.184 61.514 469.58 61.514C469.976 61.514 470.27 61.622 470.462 61.838C470.666 62.042 470.738 62.324 470.678 62.684C470.63 63.032 470.474 63.308 470.21 63.512C469.946 63.716 469.616 63.818 469.22 63.818ZM474.793 75.68C474.013 75.68 473.365 75.524 472.849 75.212C472.333 74.9 471.961 74.462 471.733 73.898C471.517 73.322 471.469 72.656 471.589 71.9L472.003 69.2C472.135 68.432 472.399 67.766 472.795 67.202C473.203 66.638 473.713 66.2 474.325 65.888C474.949 65.576 475.651 65.42 476.431 65.42C477.211 65.42 477.859 65.576 478.375 65.888C478.903 66.2 479.275 66.638 479.491 67.202C479.719 67.766 479.767 68.432 479.635 69.2L479.365 70.946H473.317L473.173 71.9C473.053 72.68 473.143 73.28 473.443 73.7C473.755 74.108 474.277 74.312 475.009 74.312C475.633 74.312 476.143 74.204 476.539 73.988C476.947 73.76 477.229 73.424 477.385 72.98H479.005C478.849 73.532 478.573 74.012 478.177 74.42C477.781 74.816 477.289 75.128 476.701 75.356C476.125 75.572 475.489 75.68 474.793 75.68ZM477.961 69.866L478.051 69.2C478.183 68.42 478.093 67.82 477.781 67.4C477.481 66.98 476.959 66.77 476.215 66.77C475.483 66.77 474.895 66.98 474.451 67.4C474.007 67.82 473.719 68.42 473.587 69.2L473.515 69.722H478.105L477.961 69.866ZM483.858 75.68C483.066 75.68 482.4 75.53 481.86 75.23C481.332 74.93 480.954 74.498 480.726 73.934C480.51 73.358 480.462 72.68 480.582 71.9L480.996 69.2C481.128 68.408 481.392 67.73 481.788 67.166C482.196 66.602 482.718 66.17 483.354 65.87C483.99 65.57 484.704 65.42 485.496 65.42C486.636 65.42 487.506 65.726 488.106 66.338C488.706 66.95 488.94 67.784 488.808 68.84H487.188C487.248 68.204 487.11 67.718 486.774 67.382C486.438 67.034 485.934 66.86 485.262 66.86C484.554 66.86 483.966 67.064 483.498 67.472C483.042 67.868 482.754 68.438 482.634 69.182L482.202 71.9C482.082 72.644 482.19 73.22 482.526 73.628C482.862 74.036 483.384 74.24 484.092 74.24C484.764 74.24 485.322 74.066 485.766 73.718C486.21 73.37 486.504 72.884 486.648 72.26H488.268C488.064 73.316 487.56 74.15 486.756 74.762C485.964 75.374 484.998 75.68 483.858 75.68ZM493.895 75.5C493.043 75.5 492.413 75.272 492.005 74.816C491.609 74.36 491.477 73.718 491.609 72.89L492.527 67.076H489.737L489.971 65.6H492.761L493.193 62.9H494.813L494.381 65.6H498.341L498.107 67.076H494.147L493.229 72.89C493.109 73.646 493.409 74.024 494.129 74.024H496.829L496.595 75.5H493.895Z" fill="white"/>
<path d="M0 7C0 3.13401 3.13401 0 7 0H509C512.866 0 516 3.13401 516 7H512C512 5.34315 510.657 4 509 4H7C5.34315 4 4 5.34315 4 7H0ZM516 101C516 104.866 512.866 108 509 108H7C3.13401 108 0 104.866 0 101L4 96C4 96 5.34315 96 7 96H509C510.657 96 512 96 512 96L516 101ZM7 108C3.13401 108 0 104.866 0 101V7C0 3.13401 3.13401 0 7 0V4C5.34315 4 4 5.34315 4 7V96C4 96 5.34315 96 7 96V108ZM509 0C512.866 0 516 3.13401 516 7V101C516 104.866 512.866 108 509 108V96C510.657 96 512 96 512 96V7C512 5.34315 510.657 4 509 4V0Z" fill="white" mask="url(#path-1-outside-1_28_6)"/>
</svg>
