<svg width="516" height="108" viewBox="0 0 516 108" fill="none" xmlns="http://www.w3.org/2000/svg">
<mask id="path-1-outside-1_28_6" maskUnits="userSpaceOnUse" x="0" y="0" width="516" height="108" fill="black">
<rect fill="white" width="516" height="108"/>
<path d="M2 7C2 4.23858 4.23858 2 7 2H509C511.761 2 514 4.23858 514 7V97C514 99.7614 511.761 102 509 102H7C4.23858 102 2 99.7614 2 97V7Z"/>
</mask>
<path d="M2 7C2 4.23858 4.23858 2 7 2H509C511.761 2 514 4.23858 514 7V97C514 99.7614 511.761 102 509 102H7C4.23858 102 2 99.7614 2 97V7Z" fill="#1E2025"/>
<path d="M19.772 80V60.2H24.164V63.98H25.388L24.164 65.024C24.164 63.392 24.632 62.12 25.568 61.208C26.528 60.296 27.836 59.84 29.492 59.84C31.436 59.84 32.984 60.488 34.136 61.784C35.312 63.08 35.9 64.82 35.9 67.004V80H31.4V67.472C31.4 66.272 31.088 65.348 30.464 64.7C29.84 64.052 28.964 63.728 27.836 63.728C26.732 63.728 25.856 64.064 25.208 64.736C24.584 65.408 24.272 66.368 24.272 67.616V80H19.772ZM49.4219 80.36C47.7419 80.36 46.2779 80.036 45.0299 79.388C43.7819 78.74 42.8099 77.84 42.1139 76.688C41.4419 75.512 41.1059 74.144 41.1059 72.584V67.616C41.1059 66.056 41.4419 64.7 42.1139 63.548C42.8099 62.372 43.7819 61.46 45.0299 60.812C46.2779 60.164 47.7419 59.84 49.4219 59.84C51.0779 59.84 52.5179 60.164 53.7419 60.812C54.9899 61.46 55.9499 62.372 56.6219 63.548C57.3179 64.7 57.6659 66.056 57.6659 67.616V71.18H45.4619V72.584C45.4619 73.976 45.7979 75.032 46.4699 75.752C47.1419 76.448 48.1379 76.796 49.4579 76.796C50.4659 76.796 51.2819 76.628 51.9059 76.292C52.5299 75.932 52.9259 75.416 53.0939 74.744H57.5219C57.1859 76.448 56.2739 77.816 54.7859 78.848C53.3219 79.856 51.5339 80.36 49.4219 80.36ZM53.3099 68.66V67.58C53.3099 66.212 52.9859 65.168 52.3379 64.448C51.6899 63.704 50.7179 63.332 49.4219 63.332C48.1259 63.332 47.1419 63.704 46.4699 64.448C45.7979 65.192 45.4619 66.248 45.4619 67.616V68.372L53.6339 68.3L53.3099 68.66ZM73.1319 80C71.2359 80 69.7479 79.472 68.6679 78.416C67.6119 77.36 67.0839 75.908 67.0839 74.06V64.268H61.7199V60.2H67.0839V54.62H71.6199V60.2H79.2159V64.268H71.6199V74.06C71.6199 75.308 72.2319 75.932 73.4559 75.932H78.8559V80H73.1319ZM84.5298 86.48V60.2H88.9218V63.98H89.9298L88.9218 65.024C88.9218 63.416 89.4018 62.156 90.3618 61.244C91.3218 60.308 92.6178 59.84 94.2498 59.84C96.2418 59.84 97.8378 60.524 99.0378 61.892C100.238 63.26 100.838 65.096 100.838 67.4V72.764C100.838 74.3 100.562 75.644 100.01 76.796C99.4818 77.924 98.7258 78.8 97.7418 79.424C96.7578 80.048 95.5938 80.36 94.2498 80.36C92.6178 80.36 91.3218 79.904 90.3618 78.992C89.4018 78.056 88.9218 76.784 88.9218 75.176L89.9298 76.22H88.8858L89.0298 80.936V86.48H84.5298ZM92.6658 76.472C93.8178 76.472 94.7178 76.136 95.3658 75.464C96.0138 74.792 96.3378 73.832 96.3378 72.584V67.616C96.3378 66.368 96.0138 65.408 95.3658 64.736C94.7178 64.064 93.8178 63.728 92.6658 63.728C91.5378 63.728 90.6498 64.076 90.0018 64.772C89.3538 65.444 89.0298 66.392 89.0298 67.616V72.584C89.0298 73.808 89.3538 74.768 90.0018 75.464C90.6498 76.136 91.5378 76.472 92.6658 76.472ZM106.728 80V60.2H110.976V63.98H112.092L110.76 66.284C110.76 64.148 111.24 62.54 112.2 61.46C113.16 60.38 114.576 59.84 116.448 59.84C118.584 59.84 120.264 60.5 121.488 61.82C122.712 63.14 123.324 64.964 123.324 67.292V68.732H118.608V67.616C118.608 66.344 118.272 65.36 117.6 64.664C116.952 63.968 116.052 63.62 114.9 63.62C113.724 63.62 112.812 63.968 112.164 64.664C111.54 65.36 111.228 66.344 111.228 67.616V80H106.728ZM133.534 80.36C131.494 80.36 129.886 79.82 128.71 78.74C127.534 77.66 126.946 76.208 126.946 74.384C126.946 72.44 127.594 70.94 128.89 69.884C130.186 68.828 132.022 68.3 134.398 68.3H139.33V66.608C139.33 65.648 139.018 64.904 138.394 64.376C137.77 63.824 136.918 63.548 135.838 63.548C134.854 63.548 134.038 63.764 133.39 64.196C132.742 64.628 132.358 65.216 132.238 65.96H127.846C128.062 64.088 128.902 62.6 130.366 61.496C131.83 60.392 133.702 59.84 135.982 59.84C138.406 59.84 140.314 60.452 141.706 61.676C143.122 62.876 143.83 64.508 143.83 66.572V80H139.474V76.544H138.754L139.474 75.572C139.474 77.036 138.934 78.2 137.854 79.064C136.774 79.928 135.334 80.36 133.534 80.36ZM135.01 76.976C136.282 76.976 137.314 76.652 138.106 76.004C138.922 75.356 139.33 74.516 139.33 73.484V71.072H134.47C133.558 71.072 132.826 71.336 132.274 71.864C131.722 72.392 131.446 73.088 131.446 73.952C131.446 74.888 131.758 75.632 132.382 76.184C133.03 76.712 133.906 76.976 135.01 76.976ZM157.424 80.36C155.744 80.36 154.268 80.048 152.996 79.424C151.748 78.776 150.776 77.876 150.08 76.724C149.384 75.548 149.036 74.168 149.036 72.584V67.616C149.036 66.008 149.384 64.628 150.08 63.476C150.776 62.324 151.748 61.436 152.996 60.812C154.268 60.164 155.744 59.84 157.424 59.84C159.92 59.84 161.912 60.488 163.4 61.784C164.888 63.056 165.668 64.796 165.74 67.004H161.24C161.168 65.972 160.796 65.18 160.124 64.628C159.476 64.052 158.576 63.764 157.424 63.764C156.224 63.764 155.276 64.1 154.58 64.772C153.884 65.42 153.536 66.356 153.536 67.58V72.584C153.536 73.808 153.884 74.756 154.58 75.428C155.276 76.1 156.224 76.436 157.424 76.436C158.576 76.436 159.476 76.16 160.124 75.608C160.796 75.032 161.168 74.228 161.24 73.196H165.74C165.668 75.404 164.888 77.156 163.4 78.452C161.912 79.724 159.92 80.36 157.424 80.36ZM181.062 80C179.166 80 177.678 79.472 176.598 78.416C175.542 77.36 175.014 75.908 175.014 74.06V64.268H169.65V60.2H175.014V54.62H179.55V60.2H187.146V64.268H179.55V74.06C179.55 75.308 180.162 75.932 181.386 75.932H186.786V80H181.062ZM192.424 80V75.896H199.336V64.268H193.324V60.2H203.656V75.896H209.776V80H192.424ZM201.136 56.888C200.224 56.888 199.504 56.66 198.976 56.204C198.448 55.724 198.184 55.088 198.184 54.296C198.184 53.504 198.448 52.88 198.976 52.424C199.504 51.944 200.224 51.704 201.136 51.704C202.048 51.704 202.768 51.944 203.296 52.424C203.824 52.88 204.088 53.504 204.088 54.296C204.088 55.088 203.824 55.724 203.296 56.204C202.768 56.66 202.048 56.888 201.136 56.888ZM222.181 80.36C220.501 80.36 219.025 80.048 217.753 79.424C216.505 78.776 215.533 77.876 214.837 76.724C214.141 75.548 213.793 74.168 213.793 72.584V67.616C213.793 66.008 214.141 64.628 214.837 63.476C215.533 62.324 216.505 61.436 217.753 60.812C219.025 60.164 220.501 59.84 222.181 59.84C224.677 59.84 226.669 60.488 228.157 61.784C229.645 63.056 230.425 64.796 230.497 67.004H225.997C225.925 65.972 225.553 65.18 224.881 64.628C224.233 64.052 223.333 63.764 222.181 63.764C220.981 63.764 220.033 64.1 219.337 64.772C218.641 65.42 218.293 66.356 218.293 67.58V72.584C218.293 73.808 218.641 74.756 219.337 75.428C220.033 76.1 220.981 76.436 222.181 76.436C223.333 76.436 224.233 76.16 224.881 75.608C225.553 75.032 225.925 74.228 225.997 73.196H230.497C230.425 75.404 229.645 77.156 228.157 78.452C226.669 79.724 224.677 80.36 222.181 80.36ZM243.695 80.36C242.015 80.36 240.551 80.036 239.303 79.388C238.055 78.74 237.083 77.84 236.387 76.688C235.715 75.512 235.379 74.144 235.379 72.584V67.616C235.379 66.056 235.715 64.7 236.387 63.548C237.083 62.372 238.055 61.46 239.303 60.812C240.551 60.164 242.015 59.84 243.695 59.84C245.351 59.84 246.791 60.164 248.015 60.812C249.263 61.46 250.223 62.372 250.895 63.548C251.591 64.7 251.939 66.056 251.939 67.616V71.18H239.735V72.584C239.735 73.976 240.071 75.032 240.743 75.752C241.415 76.448 242.411 76.796 243.731 76.796C244.739 76.796 245.555 76.628 246.179 76.292C246.803 75.932 247.199 75.416 247.367 74.744H251.795C251.459 76.448 250.547 77.816 249.059 78.848C247.595 79.856 245.807 80.36 243.695 80.36ZM247.583 68.66V67.58C247.583 66.212 247.259 65.168 246.611 64.448C245.963 63.704 244.991 63.332 243.695 63.332C242.399 63.332 241.415 63.704 240.743 64.448C240.071 65.192 239.735 66.248 239.735 67.616V68.372L247.907 68.3L247.583 68.66Z" fill="white"/>
<path d="M468.5 59.5V54.676H456.98V47.152L466.844 33.22H472.964L462.02 48.664V49.996H468.5V44.38H473.9V59.5H468.5ZM479.106 59.5V54.424L487.458 46.36C488.442 45.4 489.174 44.512 489.654 43.696C490.158 42.88 490.41 41.992 490.41 41.032C490.41 39.976 490.122 39.16 489.546 38.584C488.994 38.008 488.226 37.72 487.242 37.72C486.162 37.72 485.31 38.044 484.686 38.692C484.086 39.316 483.786 40.192 483.786 41.32H478.386C478.386 39.592 478.746 38.104 479.466 36.856C480.21 35.584 481.254 34.6 482.598 33.904C483.942 33.208 485.526 32.86 487.35 32.86C489.054 32.86 490.53 33.184 491.778 33.832C493.05 34.456 494.034 35.332 494.73 36.46C495.45 37.588 495.81 38.92 495.81 40.456C495.81 42.16 495.39 43.792 494.55 45.352C493.71 46.912 492.366 48.544 490.518 50.248L485.766 54.64H496.098V59.5H479.106Z" fill="white"/>
<path d="M435.113 75.5L437.201 62.36H441.431C442.247 62.36 442.931 62.522 443.483 62.846C444.035 63.158 444.425 63.602 444.653 64.178C444.893 64.754 444.953 65.438 444.833 66.23C444.713 67.01 444.437 67.694 444.005 68.282C443.585 68.858 443.051 69.308 442.403 69.632C441.755 69.944 441.023 70.1 440.207 70.1H437.597L436.733 75.5H435.113ZM437.813 68.642H440.423C441.131 68.642 441.731 68.426 442.223 67.994C442.727 67.55 443.039 66.962 443.159 66.23C443.279 65.486 443.159 64.898 442.799 64.466C442.439 64.034 441.905 63.818 441.197 63.818H438.587L437.813 68.642ZM444.448 75.5L446.014 65.6H447.598L447.292 67.49H447.67L446.968 68.66C447.136 67.592 447.496 66.788 448.048 66.248C448.6 65.696 449.332 65.42 450.244 65.42C451.288 65.42 452.062 65.75 452.566 66.41C453.082 67.058 453.256 67.94 453.088 69.056L452.98 69.65H451.36L451.432 69.2C451.564 68.42 451.474 67.826 451.162 67.418C450.85 66.998 450.346 66.788 449.65 66.788C448.966 66.788 448.396 66.998 447.94 67.418C447.484 67.838 447.19 68.432 447.058 69.2L446.068 75.5H444.448ZM456.807 75.68C456.027 75.68 455.373 75.53 454.845 75.23C454.329 74.93 453.963 74.498 453.747 73.934C453.531 73.358 453.483 72.68 453.603 71.9L454.017 69.2C454.149 68.408 454.413 67.73 454.809 67.166C455.205 66.602 455.715 66.17 456.339 65.87C456.963 65.57 457.665 65.42 458.445 65.42C459.237 65.42 459.891 65.57 460.407 65.87C460.923 66.17 461.289 66.602 461.505 67.166C461.733 67.73 461.787 68.402 461.667 69.182L461.235 71.9C461.115 72.68 460.851 73.358 460.443 73.934C460.047 74.498 459.537 74.93 458.913 75.23C458.301 75.53 457.599 75.68 456.807 75.68ZM457.041 74.24C457.749 74.24 458.325 74.042 458.769 73.646C459.213 73.25 459.495 72.668 459.615 71.9L460.029 69.2C460.161 68.432 460.065 67.85 459.741 67.454C459.429 67.058 458.919 66.86 458.211 66.86C457.515 66.86 456.945 67.058 456.501 67.454C456.057 67.85 455.769 68.432 455.637 69.2L455.223 71.9C455.103 72.668 455.199 73.25 455.511 73.646C455.835 74.042 456.345 74.24 457.041 74.24ZM461.444 78.74L461.696 77.246H464.018C464.762 77.246 465.368 77.042 465.836 76.634C466.316 76.238 466.616 75.674 466.736 74.942L467.978 67.076H463.838L464.072 65.6H469.832L468.356 74.942C468.236 75.71 467.966 76.376 467.546 76.94C467.126 77.516 466.592 77.96 465.944 78.272C465.308 78.584 464.582 78.74 463.766 78.74H461.444ZM469.22 63.818C468.824 63.818 468.53 63.716 468.338 63.512C468.146 63.308 468.074 63.032 468.122 62.684C468.182 62.324 468.338 62.042 468.59 61.838C468.854 61.622 469.184 61.514 469.58 61.514C469.976 61.514 470.27 61.622 470.462 61.838C470.666 62.042 470.738 62.324 470.678 62.684C470.63 63.032 470.474 63.308 470.21 63.512C469.946 63.716 469.616 63.818 469.22 63.818ZM474.793 75.68C474.013 75.68 473.365 75.524 472.849 75.212C472.333 74.9 471.961 74.462 471.733 73.898C471.517 73.322 471.469 72.656 471.589 71.9L472.003 69.2C472.135 68.432 472.399 67.766 472.795 67.202C473.203 66.638 473.713 66.2 474.325 65.888C474.949 65.576 475.651 65.42 476.431 65.42C477.211 65.42 477.859 65.576 478.375 65.888C478.903 66.2 479.275 66.638 479.491 67.202C479.719 67.766 479.767 68.432 479.635 69.2L479.365 70.946H473.317L473.173 71.9C473.053 72.68 473.143 73.28 473.443 73.7C473.755 74.108 474.277 74.312 475.009 74.312C475.633 74.312 476.143 74.204 476.539 73.988C476.947 73.76 477.229 73.424 477.385 72.98H479.005C478.849 73.532 478.573 74.012 478.177 74.42C477.781 74.816 477.289 75.128 476.701 75.356C476.125 75.572 475.489 75.68 474.793 75.68ZM477.961 69.866L478.051 69.2C478.183 68.42 478.093 67.82 477.781 67.4C477.481 66.98 476.959 66.77 476.215 66.77C475.483 66.77 474.895 66.98 474.451 67.4C474.007 67.82 473.719 68.42 473.587 69.2L473.515 69.722H478.105L477.961 69.866ZM483.858 75.68C483.066 75.68 482.4 75.53 481.86 75.23C481.332 74.93 480.954 74.498 480.726 73.934C480.51 73.358 480.462 72.68 480.582 71.9L480.996 69.2C481.128 68.408 481.392 67.73 481.788 67.166C482.196 66.602 482.718 66.17 483.354 65.87C483.99 65.57 484.704 65.42 485.496 65.42C486.636 65.42 487.506 65.726 488.106 66.338C488.706 66.95 488.94 67.784 488.808 68.84H487.188C487.248 68.204 487.11 67.718 486.774 67.382C486.438 67.034 485.934 66.86 485.262 66.86C484.554 66.86 483.966 67.064 483.498 67.472C483.042 67.868 482.754 68.438 482.634 69.182L482.202 71.9C482.082 72.644 482.19 73.22 482.526 73.628C482.862 74.036 483.384 74.24 484.092 74.24C484.764 74.24 485.322 74.066 485.766 73.718C486.21 73.37 486.504 72.884 486.648 72.26H488.268C488.064 73.316 487.56 74.15 486.756 74.762C485.964 75.374 484.998 75.68 483.858 75.68ZM493.895 75.5C493.043 75.5 492.413 75.272 492.005 74.816C491.609 74.36 491.477 73.718 491.609 72.89L492.527 67.076H489.737L489.971 65.6H492.761L493.193 62.9H494.813L494.381 65.6H498.341L498.107 67.076H494.147L493.229 72.89C493.109 73.646 493.409 74.024 494.129 74.024H496.829L496.595 75.5H493.895Z" fill="white"/>
<path d="M0 7C0 3.13401 3.13401 0 7 0H509C512.866 0 516 3.13401 516 7H512C512 5.34315 510.657 4 509 4H7C5.34315 4 4 5.34315 4 7H0ZM516 101C516 104.866 512.866 108 509 108H7C3.13401 108 0 104.866 0 101L4 96C4 96 5.34315 96 7 96H509C510.657 96 512 96 512 96L516 101ZM7 108C3.13401 108 0 104.866 0 101V7C0 3.13401 3.13401 0 7 0V4C5.34315 4 4 5.34315 4 7V96C4 96 5.34315 96 7 96V108ZM509 0C512.866 0 516 3.13401 516 7V101C516 104.866 512.866 108 509 108V96C510.657 96 512 96 512 96V7C512 5.34315 510.657 4 509 4V0Z" fill="white" mask="url(#path-1-outside-1_28_6)"/>
</svg>
