<svg width="516" height="108" viewBox="0 0 516 108" fill="none" xmlns="http://www.w3.org/2000/svg">
<mask id="path-1-outside-1_28_6" maskUnits="userSpaceOnUse" x="0" y="0" width="516" height="108" fill="black">
<rect fill="white" width="516" height="108"/>
<path d="M2 7C2 4.23858 4.23858 2 7 2H509C511.761 2 514 4.23858 514 7V97C514 99.7614 511.761 102 509 102H7C4.23858 102 2 99.7614 2 97V7Z"/>
</mask>
<path d="M2 7C2 4.23858 4.23858 2 7 2H509C511.761 2 514 4.23858 514 7V97C514 99.7614 511.761 102 509 102H7C4.23858 102 2 99.7614 2 97V7Z" fill="#1E2025"/>
<path d="M19.772 86.48V60.2H24.164V63.98H25.172L24.164 65.024C24.164 63.416 24.644 62.156 25.604 61.244C26.564 60.308 27.86 59.84 29.492 59.84C31.484 59.84 33.08 60.524 34.28 61.892C35.48 63.26 36.08 65.096 36.08 67.4V72.764C36.08 74.3 35.804 75.644 35.252 76.796C34.724 77.924 33.968 78.8 32.984 79.424C32 80.048 30.836 80.36 29.492 80.36C27.86 80.36 26.564 79.904 25.604 78.992C24.644 78.056 24.164 76.784 24.164 75.176L25.172 76.22H24.128L24.272 80.936V86.48H19.772ZM27.908 76.472C29.06 76.472 29.96 76.136 30.608 75.464C31.256 74.792 31.58 73.832 31.58 72.584V67.616C31.58 66.368 31.256 65.408 30.608 64.736C29.96 64.064 29.06 63.728 27.908 63.728C26.78 63.728 25.892 64.076 25.244 64.772C24.596 65.444 24.272 66.392 24.272 67.616V72.584C24.272 73.808 24.596 74.768 25.244 75.464C25.892 76.136 26.78 76.472 27.908 76.472ZM41.3579 80V53.72H45.8579V60.2L45.7499 63.98H46.9739L45.7499 65.024C45.7499 63.392 46.2179 62.12 47.1539 61.208C48.1139 60.296 49.4219 59.84 51.0779 59.84C53.0219 59.84 54.5699 60.488 55.7219 61.784C56.8979 63.08 57.4859 64.82 57.4859 67.004V80H52.9859V67.472C52.9859 66.272 52.6739 65.348 52.0499 64.7C51.4259 64.052 50.5499 63.728 49.4219 63.728C48.3179 63.728 47.4419 64.064 46.7939 64.736C46.1699 65.408 45.8579 66.368 45.8579 67.616V80H41.3579ZM62.9079 80V75.896H69.8199V64.268H63.8079V60.2H74.1399V75.896H80.2599V80H62.9079ZM71.6199 56.888C70.7079 56.888 69.9879 56.66 69.4599 56.204C68.9319 55.724 68.6679 55.088 68.6679 54.296C68.6679 53.504 68.9319 52.88 69.4599 52.424C69.9879 51.944 70.7079 51.704 71.6199 51.704C72.5319 51.704 73.2519 51.944 73.7799 52.424C74.3079 52.88 74.5719 53.504 74.5719 54.296C74.5719 55.088 74.3079 55.724 73.7799 56.204C73.2519 56.66 72.5319 56.888 71.6199 56.888ZM95.5818 80C94.2858 80 93.1458 79.736 92.1618 79.208C91.2018 78.68 90.4458 77.936 89.8938 76.976C89.3418 75.992 89.0658 74.864 89.0658 73.592V57.788H82.7298V53.72H93.5658V73.592C93.5658 74.312 93.7698 74.888 94.1778 75.32C94.6098 75.728 95.1858 75.932 95.9058 75.932H101.882V80H95.5818ZM114.144 80.324C112.464 80.324 111 80.012 109.752 79.388C108.528 78.74 107.568 77.84 106.872 76.688C106.2 75.512 105.864 74.132 105.864 72.548V67.652C105.864 66.068 106.2 64.7 106.872 63.548C107.568 62.372 108.528 61.472 109.752 60.848C111 60.2 112.464 59.876 114.144 59.876C115.848 59.876 117.312 60.2 118.536 60.848C119.76 61.472 120.708 62.372 121.38 63.548C122.076 64.7 122.424 66.056 122.424 67.616V72.548C122.424 74.132 122.076 75.512 121.38 76.688C120.708 77.84 119.76 78.74 118.536 79.388C117.312 80.012 115.848 80.324 114.144 80.324ZM114.144 76.4C115.344 76.4 116.268 76.076 116.916 75.428C117.588 74.756 117.924 73.796 117.924 72.548V67.652C117.924 66.38 117.588 65.42 116.916 64.772C116.268 64.124 115.344 63.8 114.144 63.8C112.968 63.8 112.044 64.124 111.372 64.772C110.7 65.42 110.364 66.38 110.364 67.652V72.548C110.364 73.796 110.7 74.756 111.372 75.428C112.044 76.076 112.968 76.4 114.144 76.4ZM134.974 80.324C133.462 80.324 132.142 80.084 131.014 79.604C129.886 79.124 128.998 78.464 128.35 77.624C127.726 76.76 127.39 75.752 127.342 74.6H131.842C131.89 75.224 132.19 75.728 132.742 76.112C133.318 76.496 134.062 76.688 134.974 76.688H136.558C137.662 76.688 138.49 76.472 139.042 76.04C139.594 75.608 139.87 75.02 139.87 74.276C139.87 73.58 139.618 73.04 139.114 72.656C138.634 72.248 137.878 71.984 136.846 71.864L134.398 71.504C132.142 71.192 130.486 70.592 129.43 69.704C128.374 68.816 127.846 67.484 127.846 65.708C127.846 63.86 128.47 62.432 129.718 61.424C130.966 60.392 132.802 59.876 135.226 59.876H136.594C138.802 59.876 140.566 60.368 141.886 61.352C143.206 62.336 143.914 63.656 144.01 65.312H139.51C139.438 64.784 139.138 64.352 138.61 64.016C138.106 63.68 137.434 63.512 136.594 63.512H135.226C134.194 63.512 133.438 63.704 132.958 64.088C132.502 64.448 132.274 64.988 132.274 65.708C132.274 66.38 132.478 66.884 132.886 67.22C133.294 67.532 133.954 67.76 134.866 67.904L137.422 68.264C139.774 68.6 141.502 69.236 142.606 70.172C143.734 71.084 144.298 72.44 144.298 74.24C144.298 76.16 143.638 77.66 142.318 78.74C141.022 79.796 139.102 80.324 136.558 80.324H134.974ZM157.316 80.324C155.636 80.324 154.172 80.012 152.924 79.388C151.7 78.74 150.74 77.84 150.044 76.688C149.372 75.512 149.036 74.132 149.036 72.548V67.652C149.036 66.068 149.372 64.7 150.044 63.548C150.74 62.372 151.7 61.472 152.924 60.848C154.172 60.2 155.636 59.876 157.316 59.876C159.02 59.876 160.484 60.2 161.708 60.848C162.932 61.472 163.88 62.372 164.552 63.548C165.248 64.7 165.596 66.056 165.596 67.616V72.548C165.596 74.132 165.248 75.512 164.552 76.688C163.88 77.84 162.932 78.74 161.708 79.388C160.484 80.012 159.02 80.324 157.316 80.324ZM157.316 76.4C158.516 76.4 159.44 76.076 160.088 75.428C160.76 74.756 161.096 73.796 161.096 72.548V67.652C161.096 66.38 160.76 65.42 160.088 64.772C159.44 64.124 158.516 63.8 157.316 63.8C156.14 63.8 155.216 64.124 154.544 64.772C153.872 65.42 153.536 66.38 153.536 67.652V72.548C153.536 73.796 153.872 74.756 154.544 75.428C155.216 76.076 156.14 76.4 157.316 76.4ZM170.874 86.48V60.2H175.266V63.98H176.274L175.266 65.024C175.266 63.416 175.746 62.156 176.706 61.244C177.666 60.308 178.962 59.84 180.594 59.84C182.586 59.84 184.182 60.524 185.382 61.892C186.582 63.26 187.182 65.096 187.182 67.4V72.764C187.182 74.3 186.906 75.644 186.354 76.796C185.826 77.924 185.07 78.8 184.086 79.424C183.102 80.048 181.938 80.36 180.594 80.36C178.962 80.36 177.666 79.904 176.706 78.992C175.746 78.056 175.266 76.784 175.266 75.176L176.274 76.22H175.23L175.374 80.936V86.48H170.874ZM179.01 76.472C180.162 76.472 181.062 76.136 181.71 75.464C182.358 74.792 182.682 73.832 182.682 72.584V67.616C182.682 66.368 182.358 65.408 181.71 64.736C181.062 64.064 180.162 63.728 179.01 63.728C177.882 63.728 176.994 64.076 176.346 64.772C175.698 65.444 175.374 66.392 175.374 67.616V72.584C175.374 73.808 175.698 74.768 176.346 75.464C176.994 76.136 177.882 76.472 179.01 76.472ZM192.46 80V53.72H196.96V60.2L196.852 63.98H198.076L196.852 65.024C196.852 63.392 197.32 62.12 198.256 61.208C199.216 60.296 200.524 59.84 202.18 59.84C204.124 59.84 205.672 60.488 206.824 61.784C208 63.08 208.588 64.82 208.588 67.004V80H204.088V67.472C204.088 66.272 203.776 65.348 203.152 64.7C202.528 64.052 201.652 63.728 200.524 63.728C199.42 63.728 198.544 64.064 197.896 64.736C197.272 65.408 196.96 66.368 196.96 67.616V80H192.46ZM222.109 80.36C220.429 80.36 218.965 80.036 217.717 79.388C216.469 78.74 215.497 77.84 214.801 76.688C214.129 75.512 213.793 74.144 213.793 72.584V67.616C213.793 66.056 214.129 64.7 214.801 63.548C215.497 62.372 216.469 61.46 217.717 60.812C218.965 60.164 220.429 59.84 222.109 59.84C223.765 59.84 225.205 60.164 226.429 60.812C227.677 61.46 228.637 62.372 229.309 63.548C230.005 64.7 230.353 66.056 230.353 67.616V71.18H218.149V72.584C218.149 73.976 218.485 75.032 219.157 75.752C219.829 76.448 220.825 76.796 222.145 76.796C223.153 76.796 223.969 76.628 224.593 76.292C225.217 75.932 225.613 75.416 225.781 74.744H230.209C229.873 76.448 228.961 77.816 227.473 78.848C226.009 79.856 224.221 80.36 222.109 80.36ZM225.997 68.66V67.58C225.997 66.212 225.673 65.168 225.025 64.448C224.377 63.704 223.405 63.332 222.109 63.332C220.813 63.332 219.829 63.704 219.157 64.448C218.485 65.192 218.149 66.248 218.149 67.616V68.372L226.321 68.3L225.997 68.66ZM236.243 80V60.2H240.491V63.98H241.607L240.275 66.284C240.275 64.148 240.755 62.54 241.715 61.46C242.675 60.38 244.091 59.84 245.963 59.84C248.099 59.84 249.779 60.5 251.003 61.82C252.227 63.14 252.839 64.964 252.839 67.292V68.732H248.123V67.616C248.123 66.344 247.787 65.36 247.115 64.664C246.467 63.968 245.567 63.62 244.415 63.62C243.239 63.62 242.327 63.968 241.679 64.664C241.055 65.36 240.743 66.344 240.743 67.616V80H236.243ZM264.489 80.324C262.977 80.324 261.657 80.084 260.529 79.604C259.401 79.124 258.513 78.464 257.865 77.624C257.241 76.76 256.905 75.752 256.857 74.6H261.357C261.405 75.224 261.705 75.728 262.257 76.112C262.833 76.496 263.577 76.688 264.489 76.688H266.073C267.177 76.688 268.005 76.472 268.557 76.04C269.109 75.608 269.385 75.02 269.385 74.276C269.385 73.58 269.133 73.04 268.629 72.656C268.149 72.248 267.393 71.984 266.361 71.864L263.913 71.504C261.657 71.192 260.001 70.592 258.945 69.704C257.889 68.816 257.361 67.484 257.361 65.708C257.361 63.86 257.985 62.432 259.233 61.424C260.481 60.392 262.317 59.876 264.741 59.876H266.109C268.317 59.876 270.081 60.368 271.401 61.352C272.721 62.336 273.429 63.656 273.525 65.312H269.025C268.953 64.784 268.653 64.352 268.125 64.016C267.621 63.68 266.949 63.512 266.109 63.512H264.741C263.709 63.512 262.953 63.704 262.473 64.088C262.017 64.448 261.789 64.988 261.789 65.708C261.789 66.38 261.993 66.884 262.401 67.22C262.809 67.532 263.469 67.76 264.381 67.904L266.937 68.264C269.289 68.6 271.017 69.236 272.121 70.172C273.249 71.084 273.813 72.44 273.813 74.24C273.813 76.16 273.153 77.66 271.833 78.74C270.537 79.796 268.617 80.324 266.073 80.324H264.489Z" fill="white"/>
<path d="M468.5 59.5V54.676H456.98V47.152L466.844 33.22H472.964L462.02 48.664V49.996H468.5V44.38H473.9V59.5H468.5ZM479.106 59.5V54.424L487.458 46.36C488.442 45.4 489.174 44.512 489.654 43.696C490.158 42.88 490.41 41.992 490.41 41.032C490.41 39.976 490.122 39.16 489.546 38.584C488.994 38.008 488.226 37.72 487.242 37.72C486.162 37.72 485.31 38.044 484.686 38.692C484.086 39.316 483.786 40.192 483.786 41.32H478.386C478.386 39.592 478.746 38.104 479.466 36.856C480.21 35.584 481.254 34.6 482.598 33.904C483.942 33.208 485.526 32.86 487.35 32.86C489.054 32.86 490.53 33.184 491.778 33.832C493.05 34.456 494.034 35.332 494.73 36.46C495.45 37.588 495.81 38.92 495.81 40.456C495.81 42.16 495.39 43.792 494.55 45.352C493.71 46.912 492.366 48.544 490.518 50.248L485.766 54.64H496.098V59.5H479.106Z" fill="white"/>
<path d="M435.113 75.5L437.201 62.36H441.431C442.247 62.36 442.931 62.522 443.483 62.846C444.035 63.158 444.425 63.602 444.653 64.178C444.893 64.754 444.953 65.438 444.833 66.23C444.713 67.01 444.437 67.694 444.005 68.282C443.585 68.858 443.051 69.308 442.403 69.632C441.755 69.944 441.023 70.1 440.207 70.1H437.597L436.733 75.5H435.113ZM437.813 68.642H440.423C441.131 68.642 441.731 68.426 442.223 67.994C442.727 67.55 443.039 66.962 443.159 66.23C443.279 65.486 443.159 64.898 442.799 64.466C442.439 64.034 441.905 63.818 441.197 63.818H438.587L437.813 68.642ZM444.448 75.5L446.014 65.6H447.598L447.292 67.49H447.67L446.968 68.66C447.136 67.592 447.496 66.788 448.048 66.248C448.6 65.696 449.332 65.42 450.244 65.42C451.288 65.42 452.062 65.75 452.566 66.41C453.082 67.058 453.256 67.94 453.088 69.056L452.98 69.65H451.36L451.432 69.2C451.564 68.42 451.474 67.826 451.162 67.418C450.85 66.998 450.346 66.788 449.65 66.788C448.966 66.788 448.396 66.998 447.94 67.418C447.484 67.838 447.19 68.432 447.058 69.2L446.068 75.5H444.448ZM456.807 75.68C456.027 75.68 455.373 75.53 454.845 75.23C454.329 74.93 453.963 74.498 453.747 73.934C453.531 73.358 453.483 72.68 453.603 71.9L454.017 69.2C454.149 68.408 454.413 67.73 454.809 67.166C455.205 66.602 455.715 66.17 456.339 65.87C456.963 65.57 457.665 65.42 458.445 65.42C459.237 65.42 459.891 65.57 460.407 65.87C460.923 66.17 461.289 66.602 461.505 67.166C461.733 67.73 461.787 68.402 461.667 69.182L461.235 71.9C461.115 72.68 460.851 73.358 460.443 73.934C460.047 74.498 459.537 74.93 458.913 75.23C458.301 75.53 457.599 75.68 456.807 75.68ZM457.041 74.24C457.749 74.24 458.325 74.042 458.769 73.646C459.213 73.25 459.495 72.668 459.615 71.9L460.029 69.2C460.161 68.432 460.065 67.85 459.741 67.454C459.429 67.058 458.919 66.86 458.211 66.86C457.515 66.86 456.945 67.058 456.501 67.454C456.057 67.85 455.769 68.432 455.637 69.2L455.223 71.9C455.103 72.668 455.199 73.25 455.511 73.646C455.835 74.042 456.345 74.24 457.041 74.24ZM461.444 78.74L461.696 77.246H464.018C464.762 77.246 465.368 77.042 465.836 76.634C466.316 76.238 466.616 75.674 466.736 74.942L467.978 67.076H463.838L464.072 65.6H469.832L468.356 74.942C468.236 75.71 467.966 76.376 467.546 76.94C467.126 77.516 466.592 77.96 465.944 78.272C465.308 78.584 464.582 78.74 463.766 78.74H461.444ZM469.22 63.818C468.824 63.818 468.53 63.716 468.338 63.512C468.146 63.308 468.074 63.032 468.122 62.684C468.182 62.324 468.338 62.042 468.59 61.838C468.854 61.622 469.184 61.514 469.58 61.514C469.976 61.514 470.27 61.622 470.462 61.838C470.666 62.042 470.738 62.324 470.678 62.684C470.63 63.032 470.474 63.308 470.21 63.512C469.946 63.716 469.616 63.818 469.22 63.818ZM474.793 75.68C474.013 75.68 473.365 75.524 472.849 75.212C472.333 74.9 471.961 74.462 471.733 73.898C471.517 73.322 471.469 72.656 471.589 71.9L472.003 69.2C472.135 68.432 472.399 67.766 472.795 67.202C473.203 66.638 473.713 66.2 474.325 65.888C474.949 65.576 475.651 65.42 476.431 65.42C477.211 65.42 477.859 65.576 478.375 65.888C478.903 66.2 479.275 66.638 479.491 67.202C479.719 67.766 479.767 68.432 479.635 69.2L479.365 70.946H473.317L473.173 71.9C473.053 72.68 473.143 73.28 473.443 73.7C473.755 74.108 474.277 74.312 475.009 74.312C475.633 74.312 476.143 74.204 476.539 73.988C476.947 73.76 477.229 73.424 477.385 72.98H479.005C478.849 73.532 478.573 74.012 478.177 74.42C477.781 74.816 477.289 75.128 476.701 75.356C476.125 75.572 475.489 75.68 474.793 75.68ZM477.961 69.866L478.051 69.2C478.183 68.42 478.093 67.82 477.781 67.4C477.481 66.98 476.959 66.77 476.215 66.77C475.483 66.77 474.895 66.98 474.451 67.4C474.007 67.82 473.719 68.42 473.587 69.2L473.515 69.722H478.105L477.961 69.866ZM483.858 75.68C483.066 75.68 482.4 75.53 481.86 75.23C481.332 74.93 480.954 74.498 480.726 73.934C480.51 73.358 480.462 72.68 480.582 71.9L480.996 69.2C481.128 68.408 481.392 67.73 481.788 67.166C482.196 66.602 482.718 66.17 483.354 65.87C483.99 65.57 484.704 65.42 485.496 65.42C486.636 65.42 487.506 65.726 488.106 66.338C488.706 66.95 488.94 67.784 488.808 68.84H487.188C487.248 68.204 487.11 67.718 486.774 67.382C486.438 67.034 485.934 66.86 485.262 66.86C484.554 66.86 483.966 67.064 483.498 67.472C483.042 67.868 482.754 68.438 482.634 69.182L482.202 71.9C482.082 72.644 482.19 73.22 482.526 73.628C482.862 74.036 483.384 74.24 484.092 74.24C484.764 74.24 485.322 74.066 485.766 73.718C486.21 73.37 486.504 72.884 486.648 72.26H488.268C488.064 73.316 487.56 74.15 486.756 74.762C485.964 75.374 484.998 75.68 483.858 75.68ZM493.895 75.5C493.043 75.5 492.413 75.272 492.005 74.816C491.609 74.36 491.477 73.718 491.609 72.89L492.527 67.076H489.737L489.971 65.6H492.761L493.193 62.9H494.813L494.381 65.6H498.341L498.107 67.076H494.147L493.229 72.89C493.109 73.646 493.409 74.024 494.129 74.024H496.829L496.595 75.5H493.895Z" fill="white"/>
<path d="M0 7C0 3.13401 3.13401 0 7 0H509C512.866 0 516 3.13401 516 7H512C512 5.34315 510.657 4 509 4H7C5.34315 4 4 5.34315 4 7H0ZM516 101C516 104.866 512.866 108 509 108H7C3.13401 108 0 104.866 0 101L4 96C4 96 5.34315 96 7 96H509C510.657 96 512 96 512 96L516 101ZM7 108C3.13401 108 0 104.866 0 101V7C0 3.13401 3.13401 0 7 0V4C5.34315 4 4 5.34315 4 7V96C4 96 5.34315 96 7 96V108ZM509 0C512.866 0 516 3.13401 516 7V101C516 104.866 512.866 108 509 108V96C510.657 96 512 96 512 96V7C512 5.34315 510.657 4 509 4V0Z" fill="white" mask="url(#path-1-outside-1_28_6)"/>
</svg>
