<svg width="516" height="108" viewBox="0 0 516 108" fill="none" xmlns="http://www.w3.org/2000/svg">
<mask id="path-1-outside-1_28_6" maskUnits="userSpaceOnUse" x="0" y="0" width="516" height="108" fill="black">
<rect fill="white" width="516" height="108"/>
<path d="M2 7C2 4.23858 4.23858 2 7 2H509C511.761 2 514 4.23858 514 7V97C514 99.7614 511.761 102 509 102H7C4.23858 102 2 99.7614 2 97V7Z"/>
</mask>
<path d="M2 7C2 4.23858 4.23858 2 7 2H509C511.761 2 514 4.23858 514 7V97C514 99.7614 511.761 102 509 102H7C4.23858 102 2 99.7614 2 97V7Z" fill="#1E2025"/>
<path d="M19.772 86.48V60.2H24.164V63.98H25.172L24.164 65.024C24.164 63.416 24.644 62.156 25.604 61.244C26.564 60.308 27.86 59.84 29.492 59.84C31.484 59.84 33.08 60.524 34.28 61.892C35.48 63.26 36.08 65.096 36.08 67.4V72.764C36.08 74.3 35.804 75.644 35.252 76.796C34.724 77.924 33.968 78.8 32.984 79.424C32 80.048 30.836 80.36 29.492 80.36C27.86 80.36 26.564 79.904 25.604 78.992C24.644 78.056 24.164 76.784 24.164 75.176L25.172 76.22H24.128L24.272 80.936V86.48H19.772ZM27.908 76.472C29.06 76.472 29.96 76.136 30.608 75.464C31.256 74.792 31.58 73.832 31.58 72.584V67.616C31.58 66.368 31.256 65.408 30.608 64.736C29.96 64.064 29.06 63.728 27.908 63.728C26.78 63.728 25.892 64.076 25.244 64.772C24.596 65.444 24.272 66.392 24.272 67.616V72.584C24.272 73.808 24.596 74.768 25.244 75.464C25.892 76.136 26.78 76.472 27.908 76.472ZM49.3859 80.36C46.8659 80.36 44.8859 79.664 43.4459 78.272C42.0059 76.856 41.2859 74.936 41.2859 72.512V60.2H45.7859V72.476C45.7859 73.748 46.0979 74.732 46.7219 75.428C47.3459 76.1 48.2339 76.436 49.3859 76.436C50.5139 76.436 51.3899 76.1 52.0139 75.428C52.6619 74.732 52.9859 73.748 52.9859 72.476V60.2H57.4859V72.512C57.4859 74.936 56.7539 76.856 55.2899 78.272C53.8259 79.664 51.8579 80.36 49.3859 80.36ZM70.2159 80.324C68.7039 80.324 67.3839 80.084 66.2559 79.604C65.1279 79.124 64.2399 78.464 63.5919 77.624C62.9679 76.76 62.6319 75.752 62.5839 74.6H67.0839C67.1319 75.224 67.4319 75.728 67.9839 76.112C68.5599 76.496 69.3039 76.688 70.2159 76.688H71.7999C72.9039 76.688 73.7319 76.472 74.2839 76.04C74.8359 75.608 75.1119 75.02 75.1119 74.276C75.1119 73.58 74.8599 73.04 74.3559 72.656C73.8759 72.248 73.1199 71.984 72.0879 71.864L69.6399 71.504C67.3839 71.192 65.7279 70.592 64.6719 69.704C63.6159 68.816 63.0879 67.484 63.0879 65.708C63.0879 63.86 63.7119 62.432 64.9599 61.424C66.2079 60.392 68.0439 59.876 70.4679 59.876H71.8359C74.0439 59.876 75.8079 60.368 77.1279 61.352C78.4479 62.336 79.1559 63.656 79.2519 65.312H74.7519C74.6799 64.784 74.3799 64.352 73.8519 64.016C73.3479 63.68 72.6759 63.512 71.8359 63.512H70.4679C69.4359 63.512 68.6799 63.704 68.1999 64.088C67.7439 64.448 67.5159 64.988 67.5159 65.708C67.5159 66.38 67.7199 66.884 68.1279 67.22C68.5359 67.532 69.1959 67.76 70.1079 67.904L72.6639 68.264C75.0159 68.6 76.7439 69.236 77.8479 70.172C78.9759 71.084 79.5399 72.44 79.5399 74.24C79.5399 76.16 78.8799 77.66 77.5599 78.74C76.2639 79.796 74.3439 80.324 71.7999 80.324H70.2159ZM84.5298 80V53.72H89.0298V60.2L88.9218 63.98H90.1458L88.9218 65.024C88.9218 63.392 89.3898 62.12 90.3258 61.208C91.2858 60.296 92.5938 59.84 94.2498 59.84C96.1938 59.84 97.7418 60.488 98.8938 61.784C100.07 63.08 100.658 64.82 100.658 67.004V80H96.1578V67.472C96.1578 66.272 95.8458 65.348 95.2218 64.7C94.5978 64.052 93.7218 63.728 92.5938 63.728C91.4898 63.728 90.6138 64.064 89.9658 64.736C89.3418 65.408 89.0298 66.368 89.0298 67.616V80H84.5298ZM105.504 84.968V80.9H122.784V84.968H105.504ZM134.974 80.324C133.462 80.324 132.142 80.084 131.014 79.604C129.886 79.124 128.998 78.464 128.35 77.624C127.726 76.76 127.39 75.752 127.342 74.6H131.842C131.89 75.224 132.19 75.728 132.742 76.112C133.318 76.496 134.062 76.688 134.974 76.688H136.558C137.662 76.688 138.49 76.472 139.042 76.04C139.594 75.608 139.87 75.02 139.87 74.276C139.87 73.58 139.618 73.04 139.114 72.656C138.634 72.248 137.878 71.984 136.846 71.864L134.398 71.504C132.142 71.192 130.486 70.592 129.43 69.704C128.374 68.816 127.846 67.484 127.846 65.708C127.846 63.86 128.47 62.432 129.718 61.424C130.966 60.392 132.802 59.876 135.226 59.876H136.594C138.802 59.876 140.566 60.368 141.886 61.352C143.206 62.336 143.914 63.656 144.01 65.312H139.51C139.438 64.784 139.138 64.352 138.61 64.016C138.106 63.68 137.434 63.512 136.594 63.512H135.226C134.194 63.512 133.438 63.704 132.958 64.088C132.502 64.448 132.274 64.988 132.274 65.708C132.274 66.38 132.478 66.884 132.886 67.22C133.294 67.532 133.954 67.76 134.866 67.904L137.422 68.264C139.774 68.6 141.502 69.236 142.606 70.172C143.734 71.084 144.298 72.44 144.298 74.24C144.298 76.16 143.638 77.66 142.318 78.74C141.022 79.796 139.102 80.324 136.558 80.324H134.974ZM150.26 80L147.236 60.2H150.98L152.636 72.332C152.732 73.028 152.816 73.796 152.888 74.636C152.984 75.476 153.056 76.172 153.104 76.724C153.176 76.172 153.272 75.476 153.392 74.636C153.512 73.796 153.62 73.028 153.716 72.332L155.588 60.2H159.08L160.916 72.332C161.012 73.028 161.12 73.808 161.24 74.672C161.36 75.512 161.456 76.208 161.528 76.76C161.576 76.184 161.648 75.476 161.744 74.636C161.864 73.772 161.96 73.004 162.032 72.332L163.796 60.2H167.396L164.3 80H159.656L157.928 67.796C157.832 67.124 157.724 66.38 157.604 65.564C157.484 64.724 157.388 64.04 157.316 63.512C157.244 64.04 157.148 64.724 157.028 65.564C156.932 66.38 156.824 67.124 156.704 67.796L154.904 80H150.26ZM176.706 80.36C174.666 80.36 173.058 79.82 171.882 78.74C170.706 77.66 170.118 76.208 170.118 74.384C170.118 72.44 170.766 70.94 172.062 69.884C173.358 68.828 175.194 68.3 177.57 68.3H182.502V66.608C182.502 65.648 182.19 64.904 181.566 64.376C180.942 63.824 180.09 63.548 179.01 63.548C178.026 63.548 177.21 63.764 176.562 64.196C175.914 64.628 175.53 65.216 175.41 65.96H171.018C171.234 64.088 172.074 62.6 173.538 61.496C175.002 60.392 176.874 59.84 179.154 59.84C181.578 59.84 183.486 60.452 184.878 61.676C186.294 62.876 187.002 64.508 187.002 66.572V80H182.646V76.544H181.926L182.646 75.572C182.646 77.036 182.106 78.2 181.026 79.064C179.946 79.928 178.506 80.36 176.706 80.36ZM178.182 76.976C179.454 76.976 180.486 76.652 181.278 76.004C182.094 75.356 182.502 74.516 182.502 73.484V71.072H177.642C176.73 71.072 175.998 71.336 175.446 71.864C174.894 72.392 174.618 73.088 174.618 73.952C174.618 74.888 174.93 75.632 175.554 76.184C176.202 76.712 177.078 76.976 178.182 76.976ZM192.46 86.48V60.2H196.852V63.98H197.86L196.852 65.024C196.852 63.416 197.332 62.156 198.292 61.244C199.252 60.308 200.548 59.84 202.18 59.84C204.172 59.84 205.768 60.524 206.968 61.892C208.168 63.26 208.768 65.096 208.768 67.4V72.764C208.768 74.3 208.492 75.644 207.94 76.796C207.412 77.924 206.656 78.8 205.672 79.424C204.688 80.048 203.524 80.36 202.18 80.36C200.548 80.36 199.252 79.904 198.292 78.992C197.332 78.056 196.852 76.784 196.852 75.176L197.86 76.22H196.816L196.96 80.936V86.48H192.46ZM200.596 76.472C201.748 76.472 202.648 76.136 203.296 75.464C203.944 74.792 204.268 73.832 204.268 72.584V67.616C204.268 66.368 203.944 65.408 203.296 64.736C202.648 64.064 201.748 63.728 200.596 63.728C199.468 63.728 198.58 64.076 197.932 64.772C197.284 65.444 196.96 66.392 196.96 67.616V72.584C196.96 73.808 197.284 74.768 197.932 75.464C198.58 76.136 199.468 76.472 200.596 76.472Z" fill="white"/>
<path d="M468.5 59.5V54.676H456.98V47.152L466.844 33.22H472.964L462.02 48.664V49.996H468.5V44.38H473.9V59.5H468.5ZM479.106 59.5V54.424L487.458 46.36C488.442 45.4 489.174 44.512 489.654 43.696C490.158 42.88 490.41 41.992 490.41 41.032C490.41 39.976 490.122 39.16 489.546 38.584C488.994 38.008 488.226 37.72 487.242 37.72C486.162 37.72 485.31 38.044 484.686 38.692C484.086 39.316 483.786 40.192 483.786 41.32H478.386C478.386 39.592 478.746 38.104 479.466 36.856C480.21 35.584 481.254 34.6 482.598 33.904C483.942 33.208 485.526 32.86 487.35 32.86C489.054 32.86 490.53 33.184 491.778 33.832C493.05 34.456 494.034 35.332 494.73 36.46C495.45 37.588 495.81 38.92 495.81 40.456C495.81 42.16 495.39 43.792 494.55 45.352C493.71 46.912 492.366 48.544 490.518 50.248L485.766 54.64H496.098V59.5H479.106Z" fill="white"/>
<path d="M435.113 75.5L437.201 62.36H441.431C442.247 62.36 442.931 62.522 443.483 62.846C444.035 63.158 444.425 63.602 444.653 64.178C444.893 64.754 444.953 65.438 444.833 66.23C444.713 67.01 444.437 67.694 444.005 68.282C443.585 68.858 443.051 69.308 442.403 69.632C441.755 69.944 441.023 70.1 440.207 70.1H437.597L436.733 75.5H435.113ZM437.813 68.642H440.423C441.131 68.642 441.731 68.426 442.223 67.994C442.727 67.55 443.039 66.962 443.159 66.23C443.279 65.486 443.159 64.898 442.799 64.466C442.439 64.034 441.905 63.818 441.197 63.818H438.587L437.813 68.642ZM444.448 75.5L446.014 65.6H447.598L447.292 67.49H447.67L446.968 68.66C447.136 67.592 447.496 66.788 448.048 66.248C448.6 65.696 449.332 65.42 450.244 65.42C451.288 65.42 452.062 65.75 452.566 66.41C453.082 67.058 453.256 67.94 453.088 69.056L452.98 69.65H451.36L451.432 69.2C451.564 68.42 451.474 67.826 451.162 67.418C450.85 66.998 450.346 66.788 449.65 66.788C448.966 66.788 448.396 66.998 447.94 67.418C447.484 67.838 447.19 68.432 447.058 69.2L446.068 75.5H444.448ZM456.807 75.68C456.027 75.68 455.373 75.53 454.845 75.23C454.329 74.93 453.963 74.498 453.747 73.934C453.531 73.358 453.483 72.68 453.603 71.9L454.017 69.2C454.149 68.408 454.413 67.73 454.809 67.166C455.205 66.602 455.715 66.17 456.339 65.87C456.963 65.57 457.665 65.42 458.445 65.42C459.237 65.42 459.891 65.57 460.407 65.87C460.923 66.17 461.289 66.602 461.505 67.166C461.733 67.73 461.787 68.402 461.667 69.182L461.235 71.9C461.115 72.68 460.851 73.358 460.443 73.934C460.047 74.498 459.537 74.93 458.913 75.23C458.301 75.53 457.599 75.68 456.807 75.68ZM457.041 74.24C457.749 74.24 458.325 74.042 458.769 73.646C459.213 73.25 459.495 72.668 459.615 71.9L460.029 69.2C460.161 68.432 460.065 67.85 459.741 67.454C459.429 67.058 458.919 66.86 458.211 66.86C457.515 66.86 456.945 67.058 456.501 67.454C456.057 67.85 455.769 68.432 455.637 69.2L455.223 71.9C455.103 72.668 455.199 73.25 455.511 73.646C455.835 74.042 456.345 74.24 457.041 74.24ZM461.444 78.74L461.696 77.246H464.018C464.762 77.246 465.368 77.042 465.836 76.634C466.316 76.238 466.616 75.674 466.736 74.942L467.978 67.076H463.838L464.072 65.6H469.832L468.356 74.942C468.236 75.71 467.966 76.376 467.546 76.94C467.126 77.516 466.592 77.96 465.944 78.272C465.308 78.584 464.582 78.74 463.766 78.74H461.444ZM469.22 63.818C468.824 63.818 468.53 63.716 468.338 63.512C468.146 63.308 468.074 63.032 468.122 62.684C468.182 62.324 468.338 62.042 468.59 61.838C468.854 61.622 469.184 61.514 469.58 61.514C469.976 61.514 470.27 61.622 470.462 61.838C470.666 62.042 470.738 62.324 470.678 62.684C470.63 63.032 470.474 63.308 470.21 63.512C469.946 63.716 469.616 63.818 469.22 63.818ZM474.793 75.68C474.013 75.68 473.365 75.524 472.849 75.212C472.333 74.9 471.961 74.462 471.733 73.898C471.517 73.322 471.469 72.656 471.589 71.9L472.003 69.2C472.135 68.432 472.399 67.766 472.795 67.202C473.203 66.638 473.713 66.2 474.325 65.888C474.949 65.576 475.651 65.42 476.431 65.42C477.211 65.42 477.859 65.576 478.375 65.888C478.903 66.2 479.275 66.638 479.491 67.202C479.719 67.766 479.767 68.432 479.635 69.2L479.365 70.946H473.317L473.173 71.9C473.053 72.68 473.143 73.28 473.443 73.7C473.755 74.108 474.277 74.312 475.009 74.312C475.633 74.312 476.143 74.204 476.539 73.988C476.947 73.76 477.229 73.424 477.385 72.98H479.005C478.849 73.532 478.573 74.012 478.177 74.42C477.781 74.816 477.289 75.128 476.701 75.356C476.125 75.572 475.489 75.68 474.793 75.68ZM477.961 69.866L478.051 69.2C478.183 68.42 478.093 67.82 477.781 67.4C477.481 66.98 476.959 66.77 476.215 66.77C475.483 66.77 474.895 66.98 474.451 67.4C474.007 67.82 473.719 68.42 473.587 69.2L473.515 69.722H478.105L477.961 69.866ZM483.858 75.68C483.066 75.68 482.4 75.53 481.86 75.23C481.332 74.93 480.954 74.498 480.726 73.934C480.51 73.358 480.462 72.68 480.582 71.9L480.996 69.2C481.128 68.408 481.392 67.73 481.788 67.166C482.196 66.602 482.718 66.17 483.354 65.87C483.99 65.57 484.704 65.42 485.496 65.42C486.636 65.42 487.506 65.726 488.106 66.338C488.706 66.95 488.94 67.784 488.808 68.84H487.188C487.248 68.204 487.11 67.718 486.774 67.382C486.438 67.034 485.934 66.86 485.262 66.86C484.554 66.86 483.966 67.064 483.498 67.472C483.042 67.868 482.754 68.438 482.634 69.182L482.202 71.9C482.082 72.644 482.19 73.22 482.526 73.628C482.862 74.036 483.384 74.24 484.092 74.24C484.764 74.24 485.322 74.066 485.766 73.718C486.21 73.37 486.504 72.884 486.648 72.26H488.268C488.064 73.316 487.56 74.15 486.756 74.762C485.964 75.374 484.998 75.68 483.858 75.68ZM493.895 75.5C493.043 75.5 492.413 75.272 492.005 74.816C491.609 74.36 491.477 73.718 491.609 72.89L492.527 67.076H489.737L489.971 65.6H492.761L493.193 62.9H494.813L494.381 65.6H498.341L498.107 67.076H494.147L493.229 72.89C493.109 73.646 493.409 74.024 494.129 74.024H496.829L496.595 75.5H493.895Z" fill="white"/>
<path d="M0 7C0 3.13401 3.13401 0 7 0H509C512.866 0 516 3.13401 516 7H512C512 5.34315 510.657 4 509 4H7C5.34315 4 4 5.34315 4 7H0ZM516 101C516 104.866 512.866 108 509 108H7C3.13401 108 0 104.866 0 101L4 96C4 96 5.34315 96 7 96H509C510.657 96 512 96 512 96L516 101ZM7 108C3.13401 108 0 104.866 0 101V7C0 3.13401 3.13401 0 7 0V4C5.34315 4 4 5.34315 4 7V96C4 96 5.34315 96 7 96V108ZM509 0C512.866 0 516 3.13401 516 7V101C516 104.866 512.866 108 509 108V96C510.657 96 512 96 512 96V7C512 5.34315 510.657 4 509 4V0Z" fill="white" mask="url(#path-1-outside-1_28_6)"/>
</svg>
