<svg width="516" height="108" viewBox="0 0 516 108" fill="none" xmlns="http://www.w3.org/2000/svg">
<mask id="path-1-outside-1_28_6" maskUnits="userSpaceOnUse" x="0" y="0" width="516" height="108" fill="black">
<rect fill="white" width="516" height="108"/>
<path d="M2 7C2 4.23858 4.23858 2 7 2H509C511.761 2 514 4.23858 514 7V97C514 99.7614 511.761 102 509 102H7C4.23858 102 2 99.7614 2 97V7Z"/>
</mask>
<path d="M2 7C2 4.23858 4.23858 2 7 2H509C511.761 2 514 4.23858 514 7V97C514 99.7614 511.761 102 509 102H7C4.23858 102 2 99.7614 2 97V7Z" fill="#1E2025"/>
<path d="M27.044 80.324C25.532 80.324 24.212 80.084 23.084 79.604C21.956 79.124 21.068 78.464 20.42 77.624C19.796 76.76 19.46 75.752 19.412 74.6H23.912C23.96 75.224 24.26 75.728 24.812 76.112C25.388 76.496 26.132 76.688 27.044 76.688H28.628C29.732 76.688 30.56 76.472 31.112 76.04C31.664 75.608 31.94 75.02 31.94 74.276C31.94 73.58 31.688 73.04 31.184 72.656C30.704 72.248 29.948 71.984 28.916 71.864L26.468 71.504C24.212 71.192 22.556 70.592 21.5 69.704C20.444 68.816 19.916 67.484 19.916 65.708C19.916 63.86 20.54 62.432 21.788 61.424C23.036 60.392 24.872 59.876 27.296 59.876H28.664C30.872 59.876 32.636 60.368 33.956 61.352C35.276 62.336 35.984 63.656 36.08 65.312H31.58C31.508 64.784 31.208 64.352 30.68 64.016C30.176 63.68 29.504 63.512 28.664 63.512H27.296C26.264 63.512 25.508 63.704 25.028 64.088C24.572 64.448 24.344 64.988 24.344 65.708C24.344 66.38 24.548 66.884 24.956 67.22C25.364 67.532 26.024 67.76 26.936 67.904L29.492 68.264C31.844 68.6 33.572 69.236 34.676 70.172C35.804 71.084 36.368 72.44 36.368 74.24C36.368 76.16 35.708 77.66 34.388 78.74C33.092 79.796 31.172 80.324 28.628 80.324H27.044ZM49.3859 80.324C47.7059 80.324 46.2419 80.012 44.9939 79.388C43.7699 78.74 42.8099 77.84 42.1139 76.688C41.4419 75.512 41.1059 74.132 41.1059 72.548V67.652C41.1059 66.068 41.4419 64.7 42.1139 63.548C42.8099 62.372 43.7699 61.472 44.9939 60.848C46.2419 60.2 47.7059 59.876 49.3859 59.876C51.0899 59.876 52.5539 60.2 53.7779 60.848C55.0019 61.472 55.9499 62.372 56.6219 63.548C57.3179 64.7 57.6659 66.056 57.6659 67.616V72.548C57.6659 74.132 57.3179 75.512 56.6219 76.688C55.9499 77.84 55.0019 78.74 53.7779 79.388C52.5539 80.012 51.0899 80.324 49.3859 80.324ZM49.3859 76.4C50.5859 76.4 51.5099 76.076 52.1579 75.428C52.8299 74.756 53.1659 73.796 53.1659 72.548V67.652C53.1659 66.38 52.8299 65.42 52.1579 64.772C51.5099 64.124 50.5859 63.8 49.3859 63.8C48.2099 63.8 47.2859 64.124 46.6139 64.772C45.9419 65.42 45.6059 66.38 45.6059 67.652V72.548C45.6059 73.796 45.9419 74.756 46.6139 75.428C47.2859 76.076 48.2099 76.4 49.3859 76.4ZM62.3319 84.968V80.9H79.6119V84.968H62.3319ZM95.5818 80C94.2858 80 93.1458 79.736 92.1618 79.208C91.2018 78.68 90.4458 77.936 89.8938 76.976C89.3418 75.992 89.0658 74.864 89.0658 73.592V57.788H82.7298V53.72H93.5658V73.592C93.5658 74.312 93.7698 74.888 94.1778 75.32C94.6098 75.728 95.1858 75.932 95.9058 75.932H101.882V80H95.5818ZM114.144 80.324C112.464 80.324 111 80.012 109.752 79.388C108.528 78.74 107.568 77.84 106.872 76.688C106.2 75.512 105.864 74.132 105.864 72.548V67.652C105.864 66.068 106.2 64.7 106.872 63.548C107.568 62.372 108.528 61.472 109.752 60.848C111 60.2 112.464 59.876 114.144 59.876C115.848 59.876 117.312 60.2 118.536 60.848C119.76 61.472 120.708 62.372 121.38 63.548C122.076 64.7 122.424 66.056 122.424 67.616V72.548C122.424 74.132 122.076 75.512 121.38 76.688C120.708 77.84 119.76 78.74 118.536 79.388C117.312 80.012 115.848 80.324 114.144 80.324ZM114.144 76.4C115.344 76.4 116.268 76.076 116.916 75.428C117.588 74.756 117.924 73.796 117.924 72.548V67.652C117.924 66.38 117.588 65.42 116.916 64.772C116.268 64.124 115.344 63.8 114.144 63.8C112.968 63.8 112.044 64.124 111.372 64.772C110.7 65.42 110.364 66.38 110.364 67.652V72.548C110.364 73.796 110.7 74.756 111.372 75.428C112.044 76.076 112.968 76.4 114.144 76.4ZM127.702 80V60.2H132.094V63.98H133.318L132.094 65.024C132.094 63.392 132.562 62.12 133.498 61.208C134.458 60.296 135.766 59.84 137.422 59.84C139.366 59.84 140.914 60.488 142.066 61.784C143.242 63.08 143.83 64.82 143.83 67.004V80H139.33V67.472C139.33 66.272 139.018 65.348 138.394 64.7C137.77 64.052 136.894 63.728 135.766 63.728C134.662 63.728 133.786 64.064 133.138 64.736C132.514 65.408 132.202 66.368 132.202 67.616V80H127.702ZM151.988 86.48V82.736H157.856C158.864 82.736 159.62 82.484 160.124 81.98C160.628 81.5 160.88 80.804 160.88 79.892V78.416L160.952 74.708H159.98L160.952 73.736C160.952 75.344 160.472 76.604 159.512 77.516C158.576 78.404 157.304 78.848 155.696 78.848C153.68 78.848 152.072 78.164 150.872 76.796C149.696 75.428 149.108 73.58 149.108 71.252V67.4C149.108 65.096 149.696 63.26 150.872 61.892C152.072 60.524 153.68 59.84 155.696 59.84C157.304 59.84 158.576 60.296 159.512 61.208C160.472 62.096 160.952 63.344 160.952 64.952L159.98 63.98H160.952L160.844 60.2H165.344V80C165.344 81.992 164.684 83.564 163.364 84.716C162.044 85.892 160.232 86.48 157.928 86.48H151.988ZM157.208 74.96C158.36 74.96 159.248 74.624 159.872 73.952C160.52 73.256 160.844 72.296 160.844 71.072V67.616C160.844 66.392 160.52 65.444 159.872 64.772C159.248 64.076 158.36 63.728 157.208 63.728C156.056 63.728 155.168 64.064 154.544 64.736C153.92 65.408 153.608 66.368 153.608 67.616V71.072C153.608 72.32 153.92 73.28 154.544 73.952C155.168 74.624 156.056 74.96 157.208 74.96Z" fill="white"/>
<path d="M468.5 59.5V54.676H456.98V47.152L466.844 33.22H472.964L462.02 48.664V49.996H468.5V44.38H473.9V59.5H468.5ZM479.106 59.5V54.424L487.458 46.36C488.442 45.4 489.174 44.512 489.654 43.696C490.158 42.88 490.41 41.992 490.41 41.032C490.41 39.976 490.122 39.16 489.546 38.584C488.994 38.008 488.226 37.72 487.242 37.72C486.162 37.72 485.31 38.044 484.686 38.692C484.086 39.316 483.786 40.192 483.786 41.32H478.386C478.386 39.592 478.746 38.104 479.466 36.856C480.21 35.584 481.254 34.6 482.598 33.904C483.942 33.208 485.526 32.86 487.35 32.86C489.054 32.86 490.53 33.184 491.778 33.832C493.05 34.456 494.034 35.332 494.73 36.46C495.45 37.588 495.81 38.92 495.81 40.456C495.81 42.16 495.39 43.792 494.55 45.352C493.71 46.912 492.366 48.544 490.518 50.248L485.766 54.64H496.098V59.5H479.106Z" fill="white"/>
<path d="M435.113 75.5L437.201 62.36H441.431C442.247 62.36 442.931 62.522 443.483 62.846C444.035 63.158 444.425 63.602 444.653 64.178C444.893 64.754 444.953 65.438 444.833 66.23C444.713 67.01 444.437 67.694 444.005 68.282C443.585 68.858 443.051 69.308 442.403 69.632C441.755 69.944 441.023 70.1 440.207 70.1H437.597L436.733 75.5H435.113ZM437.813 68.642H440.423C441.131 68.642 441.731 68.426 442.223 67.994C442.727 67.55 443.039 66.962 443.159 66.23C443.279 65.486 443.159 64.898 442.799 64.466C442.439 64.034 441.905 63.818 441.197 63.818H438.587L437.813 68.642ZM444.448 75.5L446.014 65.6H447.598L447.292 67.49H447.67L446.968 68.66C447.136 67.592 447.496 66.788 448.048 66.248C448.6 65.696 449.332 65.42 450.244 65.42C451.288 65.42 452.062 65.75 452.566 66.41C453.082 67.058 453.256 67.94 453.088 69.056L452.98 69.65H451.36L451.432 69.2C451.564 68.42 451.474 67.826 451.162 67.418C450.85 66.998 450.346 66.788 449.65 66.788C448.966 66.788 448.396 66.998 447.94 67.418C447.484 67.838 447.19 68.432 447.058 69.2L446.068 75.5H444.448ZM456.807 75.68C456.027 75.68 455.373 75.53 454.845 75.23C454.329 74.93 453.963 74.498 453.747 73.934C453.531 73.358 453.483 72.68 453.603 71.9L454.017 69.2C454.149 68.408 454.413 67.73 454.809 67.166C455.205 66.602 455.715 66.17 456.339 65.87C456.963 65.57 457.665 65.42 458.445 65.42C459.237 65.42 459.891 65.57 460.407 65.87C460.923 66.17 461.289 66.602 461.505 67.166C461.733 67.73 461.787 68.402 461.667 69.182L461.235 71.9C461.115 72.68 460.851 73.358 460.443 73.934C460.047 74.498 459.537 74.93 458.913 75.23C458.301 75.53 457.599 75.68 456.807 75.68ZM457.041 74.24C457.749 74.24 458.325 74.042 458.769 73.646C459.213 73.25 459.495 72.668 459.615 71.9L460.029 69.2C460.161 68.432 460.065 67.85 459.741 67.454C459.429 67.058 458.919 66.86 458.211 66.86C457.515 66.86 456.945 67.058 456.501 67.454C456.057 67.85 455.769 68.432 455.637 69.2L455.223 71.9C455.103 72.668 455.199 73.25 455.511 73.646C455.835 74.042 456.345 74.24 457.041 74.24ZM461.444 78.74L461.696 77.246H464.018C464.762 77.246 465.368 77.042 465.836 76.634C466.316 76.238 466.616 75.674 466.736 74.942L467.978 67.076H463.838L464.072 65.6H469.832L468.356 74.942C468.236 75.71 467.966 76.376 467.546 76.94C467.126 77.516 466.592 77.96 465.944 78.272C465.308 78.584 464.582 78.74 463.766 78.74H461.444ZM469.22 63.818C468.824 63.818 468.53 63.716 468.338 63.512C468.146 63.308 468.074 63.032 468.122 62.684C468.182 62.324 468.338 62.042 468.59 61.838C468.854 61.622 469.184 61.514 469.58 61.514C469.976 61.514 470.27 61.622 470.462 61.838C470.666 62.042 470.738 62.324 470.678 62.684C470.63 63.032 470.474 63.308 470.21 63.512C469.946 63.716 469.616 63.818 469.22 63.818ZM474.793 75.68C474.013 75.68 473.365 75.524 472.849 75.212C472.333 74.9 471.961 74.462 471.733 73.898C471.517 73.322 471.469 72.656 471.589 71.9L472.003 69.2C472.135 68.432 472.399 67.766 472.795 67.202C473.203 66.638 473.713 66.2 474.325 65.888C474.949 65.576 475.651 65.42 476.431 65.42C477.211 65.42 477.859 65.576 478.375 65.888C478.903 66.2 479.275 66.638 479.491 67.202C479.719 67.766 479.767 68.432 479.635 69.2L479.365 70.946H473.317L473.173 71.9C473.053 72.68 473.143 73.28 473.443 73.7C473.755 74.108 474.277 74.312 475.009 74.312C475.633 74.312 476.143 74.204 476.539 73.988C476.947 73.76 477.229 73.424 477.385 72.98H479.005C478.849 73.532 478.573 74.012 478.177 74.42C477.781 74.816 477.289 75.128 476.701 75.356C476.125 75.572 475.489 75.68 474.793 75.68ZM477.961 69.866L478.051 69.2C478.183 68.42 478.093 67.82 477.781 67.4C477.481 66.98 476.959 66.77 476.215 66.77C475.483 66.77 474.895 66.98 474.451 67.4C474.007 67.82 473.719 68.42 473.587 69.2L473.515 69.722H478.105L477.961 69.866ZM483.858 75.68C483.066 75.68 482.4 75.53 481.86 75.23C481.332 74.93 480.954 74.498 480.726 73.934C480.51 73.358 480.462 72.68 480.582 71.9L480.996 69.2C481.128 68.408 481.392 67.73 481.788 67.166C482.196 66.602 482.718 66.17 483.354 65.87C483.99 65.57 484.704 65.42 485.496 65.42C486.636 65.42 487.506 65.726 488.106 66.338C488.706 66.95 488.94 67.784 488.808 68.84H487.188C487.248 68.204 487.11 67.718 486.774 67.382C486.438 67.034 485.934 66.86 485.262 66.86C484.554 66.86 483.966 67.064 483.498 67.472C483.042 67.868 482.754 68.438 482.634 69.182L482.202 71.9C482.082 72.644 482.19 73.22 482.526 73.628C482.862 74.036 483.384 74.24 484.092 74.24C484.764 74.24 485.322 74.066 485.766 73.718C486.21 73.37 486.504 72.884 486.648 72.26H488.268C488.064 73.316 487.56 74.15 486.756 74.762C485.964 75.374 484.998 75.68 483.858 75.68ZM493.895 75.5C493.043 75.5 492.413 75.272 492.005 74.816C491.609 74.36 491.477 73.718 491.609 72.89L492.527 67.076H489.737L489.971 65.6H492.761L493.193 62.9H494.813L494.381 65.6H498.341L498.107 67.076H494.147L493.229 72.89C493.109 73.646 493.409 74.024 494.129 74.024H496.829L496.595 75.5H493.895Z" fill="white"/>
<path d="M0 7C0 3.13401 3.13401 0 7 0H509C512.866 0 516 3.13401 516 7H512C512 5.34315 510.657 4 509 4H7C5.34315 4 4 5.34315 4 7H0ZM516 101C516 104.866 512.866 108 509 108H7C3.13401 108 0 104.866 0 101L4 96C4 96 5.34315 96 7 96H509C510.657 96 512 96 512 96L516 101ZM7 108C3.13401 108 0 104.866 0 101V7C0 3.13401 3.13401 0 7 0V4C5.34315 4 4 5.34315 4 7V96C4 96 5.34315 96 7 96V108ZM509 0C512.866 0 516 3.13401 516 7V101C516 104.866 512.866 108 509 108V96C510.657 96 512 96 512 96V7C512 5.34315 510.657 4 509 4V0Z" fill="white" mask="url(#path-1-outside-1_28_6)"/>
</svg>
