<svg width="516" height="108" viewBox="0 0 516 108" fill="none" xmlns="http://www.w3.org/2000/svg">
<mask id="path-1-outside-1_28_6" maskUnits="userSpaceOnUse" x="0" y="0" width="516" height="108" fill="black">
<rect fill="white" width="516" height="108"/>
<path d="M2 7C2 4.23858 4.23858 2 7 2H509C511.761 2 514 4.23858 514 7V97C514 99.7614 511.761 102 509 102H7C4.23858 102 2 99.7614 2 97V7Z"/>
</mask>
<path d="M2 7C2 4.23858 4.23858 2 7 2H509C511.761 2 514 4.23858 514 7V97C514 99.7614 511.761 102 509 102H7C4.23858 102 2 99.7614 2 97V7Z" fill="#1E2025"/>
<path d="M20.744 80L17.72 60.2H21.464L23.12 72.332C23.216 73.028 23.3 73.796 23.372 74.636C23.468 75.476 23.54 76.172 23.588 76.724C23.66 76.172 23.756 75.476 23.876 74.636C23.996 73.796 24.104 73.028 24.2 72.332L26.072 60.2H29.564L31.4 72.332C31.496 73.028 31.604 73.808 31.724 74.672C31.844 75.512 31.94 76.208 32.012 76.76C32.06 76.184 32.132 75.476 32.228 74.636C32.348 73.772 32.444 73.004 32.516 72.332L34.28 60.2H37.88L34.784 80H30.14L28.412 67.796C28.316 67.124 28.208 66.38 28.088 65.564C27.968 64.724 27.872 64.04 27.8 63.512C27.728 64.04 27.632 64.724 27.512 65.564C27.416 66.38 27.308 67.124 27.188 67.796L25.388 80H20.744ZM49.4219 80.36C47.7419 80.36 46.2779 80.036 45.0299 79.388C43.7819 78.74 42.8099 77.84 42.1139 76.688C41.4419 75.512 41.1059 74.144 41.1059 72.584V67.616C41.1059 66.056 41.4419 64.7 42.1139 63.548C42.8099 62.372 43.7819 61.46 45.0299 60.812C46.2779 60.164 47.7419 59.84 49.4219 59.84C51.0779 59.84 52.5179 60.164 53.7419 60.812C54.9899 61.46 55.9499 62.372 56.6219 63.548C57.3179 64.7 57.6659 66.056 57.6659 67.616V71.18H45.4619V72.584C45.4619 73.976 45.7979 75.032 46.4699 75.752C47.1419 76.448 48.1379 76.796 49.4579 76.796C50.4659 76.796 51.2819 76.628 51.9059 76.292C52.5299 75.932 52.9259 75.416 53.0939 74.744H57.5219C57.1859 76.448 56.2739 77.816 54.7859 78.848C53.3219 79.856 51.5339 80.36 49.4219 80.36ZM53.3099 68.66V67.58C53.3099 66.212 52.9859 65.168 52.3379 64.448C51.6899 63.704 50.7179 63.332 49.4219 63.332C48.1259 63.332 47.1419 63.704 46.4699 64.448C45.7979 65.192 45.4619 66.248 45.4619 67.616V68.372L53.6339 68.3L53.3099 68.66ZM72.6639 80.36C71.0319 80.36 69.7359 79.904 68.7759 78.992C67.8159 78.056 67.3359 76.784 67.3359 75.176L68.3439 76.22H67.3359V80H62.9439V53.72H67.4439V59.264L67.2999 63.98H68.3439L67.3359 65.024C67.3359 63.416 67.8159 62.156 68.7759 61.244C69.7359 60.308 71.0319 59.84 72.6639 59.84C74.6559 59.84 76.2519 60.524 77.4519 61.892C78.6519 63.26 79.2519 65.108 79.2519 67.436V72.8C79.2519 75.104 78.6519 76.94 77.4519 78.308C76.2519 79.676 74.6559 80.36 72.6639 80.36ZM71.0799 76.472C72.2319 76.472 73.1319 76.136 73.7799 75.464C74.4279 74.792 74.7519 73.832 74.7519 72.584V67.616C74.7519 66.368 74.4279 65.408 73.7799 64.736C73.1319 64.064 72.2319 63.728 71.0799 63.728C69.9519 63.728 69.0639 64.076 68.4159 64.772C67.7679 65.444 67.4439 66.392 67.4439 67.616V72.584C67.4439 73.808 67.7679 74.768 68.4159 75.464C69.0639 76.136 69.9519 76.472 71.0799 76.472ZM91.8018 80.324C90.2898 80.324 88.9698 80.084 87.8418 79.604C86.7138 79.124 85.8258 78.464 85.1778 77.624C84.5538 76.76 84.2178 75.752 84.1698 74.6H88.6698C88.7178 75.224 89.0178 75.728 89.5698 76.112C90.1458 76.496 90.8898 76.688 91.8018 76.688H93.3858C94.4898 76.688 95.3178 76.472 95.8698 76.04C96.4218 75.608 96.6978 75.02 96.6978 74.276C96.6978 73.58 96.4458 73.04 95.9418 72.656C95.4618 72.248 94.7058 71.984 93.6738 71.864L91.2258 71.504C88.9698 71.192 87.3138 70.592 86.2578 69.704C85.2018 68.816 84.6738 67.484 84.6738 65.708C84.6738 63.86 85.2978 62.432 86.5458 61.424C87.7938 60.392 89.6298 59.876 92.0538 59.876H93.4218C95.6298 59.876 97.3938 60.368 98.7138 61.352C100.034 62.336 100.742 63.656 100.838 65.312H96.3378C96.2658 64.784 95.9658 64.352 95.4378 64.016C94.9338 63.68 94.2618 63.512 93.4218 63.512H92.0538C91.0218 63.512 90.2658 63.704 89.7858 64.088C89.3298 64.448 89.1018 64.988 89.1018 65.708C89.1018 66.38 89.3058 66.884 89.7138 67.22C90.1218 67.532 90.7818 67.76 91.6938 67.904L94.2498 68.264C96.6018 68.6 98.3298 69.236 99.4338 70.172C100.562 71.084 101.126 72.44 101.126 74.24C101.126 76.16 100.466 77.66 99.1458 78.74C97.8498 79.796 95.9298 80.324 93.3858 80.324H91.8018ZM114.18 80.36C112.5 80.36 111.036 80.036 109.788 79.388C108.54 78.74 107.568 77.84 106.872 76.688C106.2 75.512 105.864 74.144 105.864 72.584V67.616C105.864 66.056 106.2 64.7 106.872 63.548C107.568 62.372 108.54 61.46 109.788 60.812C111.036 60.164 112.5 59.84 114.18 59.84C115.836 59.84 117.276 60.164 118.5 60.812C119.748 61.46 120.708 62.372 121.38 63.548C122.076 64.7 122.424 66.056 122.424 67.616V71.18H110.22V72.584C110.22 73.976 110.556 75.032 111.228 75.752C111.9 76.448 112.896 76.796 114.216 76.796C115.224 76.796 116.04 76.628 116.664 76.292C117.288 75.932 117.684 75.416 117.852 74.744H122.28C121.944 76.448 121.032 77.816 119.544 78.848C118.08 79.856 116.292 80.36 114.18 80.36ZM118.068 68.66V67.58C118.068 66.212 117.744 65.168 117.096 64.448C116.448 63.704 115.476 63.332 114.18 63.332C112.884 63.332 111.9 63.704 111.228 64.448C110.556 65.192 110.22 66.248 110.22 67.616V68.372L118.392 68.3L118.068 68.66ZM128.314 80V60.2H132.562V63.98H133.678L132.346 66.284C132.346 64.148 132.826 62.54 133.786 61.46C134.746 60.38 136.162 59.84 138.034 59.84C140.17 59.84 141.85 60.5 143.074 61.82C144.298 63.14 144.91 64.964 144.91 67.292V68.732H140.194V67.616C140.194 66.344 139.858 65.36 139.186 64.664C138.538 63.968 137.638 63.62 136.486 63.62C135.31 63.62 134.398 63.968 133.75 64.664C133.126 65.36 132.814 66.344 132.814 67.616V80H128.314ZM154.436 80L147.92 60.2H152.528L156.308 72.224C156.524 72.944 156.728 73.688 156.92 74.456C157.136 75.224 157.292 75.836 157.388 76.292C157.508 75.836 157.664 75.224 157.856 74.456C158.048 73.688 158.24 72.956 158.432 72.26L162.14 60.2H166.712L160.232 80H154.436Z" fill="white"/>
<path d="M468.5 59.5V54.676H456.98V47.152L466.844 33.22H472.964L462.02 48.664V49.996H468.5V44.38H473.9V59.5H468.5ZM479.106 59.5V54.424L487.458 46.36C488.442 45.4 489.174 44.512 489.654 43.696C490.158 42.88 490.41 41.992 490.41 41.032C490.41 39.976 490.122 39.16 489.546 38.584C488.994 38.008 488.226 37.72 487.242 37.72C486.162 37.72 485.31 38.044 484.686 38.692C484.086 39.316 483.786 40.192 483.786 41.32H478.386C478.386 39.592 478.746 38.104 479.466 36.856C480.21 35.584 481.254 34.6 482.598 33.904C483.942 33.208 485.526 32.86 487.35 32.86C489.054 32.86 490.53 33.184 491.778 33.832C493.05 34.456 494.034 35.332 494.73 36.46C495.45 37.588 495.81 38.92 495.81 40.456C495.81 42.16 495.39 43.792 494.55 45.352C493.71 46.912 492.366 48.544 490.518 50.248L485.766 54.64H496.098V59.5H479.106Z" fill="white"/>
<path d="M435.113 75.5L437.201 62.36H441.431C442.247 62.36 442.931 62.522 443.483 62.846C444.035 63.158 444.425 63.602 444.653 64.178C444.893 64.754 444.953 65.438 444.833 66.23C444.713 67.01 444.437 67.694 444.005 68.282C443.585 68.858 443.051 69.308 442.403 69.632C441.755 69.944 441.023 70.1 440.207 70.1H437.597L436.733 75.5H435.113ZM437.813 68.642H440.423C441.131 68.642 441.731 68.426 442.223 67.994C442.727 67.55 443.039 66.962 443.159 66.23C443.279 65.486 443.159 64.898 442.799 64.466C442.439 64.034 441.905 63.818 441.197 63.818H438.587L437.813 68.642ZM444.448 75.5L446.014 65.6H447.598L447.292 67.49H447.67L446.968 68.66C447.136 67.592 447.496 66.788 448.048 66.248C448.6 65.696 449.332 65.42 450.244 65.42C451.288 65.42 452.062 65.75 452.566 66.41C453.082 67.058 453.256 67.94 453.088 69.056L452.98 69.65H451.36L451.432 69.2C451.564 68.42 451.474 67.826 451.162 67.418C450.85 66.998 450.346 66.788 449.65 66.788C448.966 66.788 448.396 66.998 447.94 67.418C447.484 67.838 447.19 68.432 447.058 69.2L446.068 75.5H444.448ZM456.807 75.68C456.027 75.68 455.373 75.53 454.845 75.23C454.329 74.93 453.963 74.498 453.747 73.934C453.531 73.358 453.483 72.68 453.603 71.9L454.017 69.2C454.149 68.408 454.413 67.73 454.809 67.166C455.205 66.602 455.715 66.17 456.339 65.87C456.963 65.57 457.665 65.42 458.445 65.42C459.237 65.42 459.891 65.57 460.407 65.87C460.923 66.17 461.289 66.602 461.505 67.166C461.733 67.73 461.787 68.402 461.667 69.182L461.235 71.9C461.115 72.68 460.851 73.358 460.443 73.934C460.047 74.498 459.537 74.93 458.913 75.23C458.301 75.53 457.599 75.68 456.807 75.68ZM457.041 74.24C457.749 74.24 458.325 74.042 458.769 73.646C459.213 73.25 459.495 72.668 459.615 71.9L460.029 69.2C460.161 68.432 460.065 67.85 459.741 67.454C459.429 67.058 458.919 66.86 458.211 66.86C457.515 66.86 456.945 67.058 456.501 67.454C456.057 67.85 455.769 68.432 455.637 69.2L455.223 71.9C455.103 72.668 455.199 73.25 455.511 73.646C455.835 74.042 456.345 74.24 457.041 74.24ZM461.444 78.74L461.696 77.246H464.018C464.762 77.246 465.368 77.042 465.836 76.634C466.316 76.238 466.616 75.674 466.736 74.942L467.978 67.076H463.838L464.072 65.6H469.832L468.356 74.942C468.236 75.71 467.966 76.376 467.546 76.94C467.126 77.516 466.592 77.96 465.944 78.272C465.308 78.584 464.582 78.74 463.766 78.74H461.444ZM469.22 63.818C468.824 63.818 468.53 63.716 468.338 63.512C468.146 63.308 468.074 63.032 468.122 62.684C468.182 62.324 468.338 62.042 468.59 61.838C468.854 61.622 469.184 61.514 469.58 61.514C469.976 61.514 470.27 61.622 470.462 61.838C470.666 62.042 470.738 62.324 470.678 62.684C470.63 63.032 470.474 63.308 470.21 63.512C469.946 63.716 469.616 63.818 469.22 63.818ZM474.793 75.68C474.013 75.68 473.365 75.524 472.849 75.212C472.333 74.9 471.961 74.462 471.733 73.898C471.517 73.322 471.469 72.656 471.589 71.9L472.003 69.2C472.135 68.432 472.399 67.766 472.795 67.202C473.203 66.638 473.713 66.2 474.325 65.888C474.949 65.576 475.651 65.42 476.431 65.42C477.211 65.42 477.859 65.576 478.375 65.888C478.903 66.2 479.275 66.638 479.491 67.202C479.719 67.766 479.767 68.432 479.635 69.2L479.365 70.946H473.317L473.173 71.9C473.053 72.68 473.143 73.28 473.443 73.7C473.755 74.108 474.277 74.312 475.009 74.312C475.633 74.312 476.143 74.204 476.539 73.988C476.947 73.76 477.229 73.424 477.385 72.98H479.005C478.849 73.532 478.573 74.012 478.177 74.42C477.781 74.816 477.289 75.128 476.701 75.356C476.125 75.572 475.489 75.68 474.793 75.68ZM477.961 69.866L478.051 69.2C478.183 68.42 478.093 67.82 477.781 67.4C477.481 66.98 476.959 66.77 476.215 66.77C475.483 66.77 474.895 66.98 474.451 67.4C474.007 67.82 473.719 68.42 473.587 69.2L473.515 69.722H478.105L477.961 69.866ZM483.858 75.68C483.066 75.68 482.4 75.53 481.86 75.23C481.332 74.93 480.954 74.498 480.726 73.934C480.51 73.358 480.462 72.68 480.582 71.9L480.996 69.2C481.128 68.408 481.392 67.73 481.788 67.166C482.196 66.602 482.718 66.17 483.354 65.87C483.99 65.57 484.704 65.42 485.496 65.42C486.636 65.42 487.506 65.726 488.106 66.338C488.706 66.95 488.94 67.784 488.808 68.84H487.188C487.248 68.204 487.11 67.718 486.774 67.382C486.438 67.034 485.934 66.86 485.262 66.86C484.554 66.86 483.966 67.064 483.498 67.472C483.042 67.868 482.754 68.438 482.634 69.182L482.202 71.9C482.082 72.644 482.19 73.22 482.526 73.628C482.862 74.036 483.384 74.24 484.092 74.24C484.764 74.24 485.322 74.066 485.766 73.718C486.21 73.37 486.504 72.884 486.648 72.26H488.268C488.064 73.316 487.56 74.15 486.756 74.762C485.964 75.374 484.998 75.68 483.858 75.68ZM493.895 75.5C493.043 75.5 492.413 75.272 492.005 74.816C491.609 74.36 491.477 73.718 491.609 72.89L492.527 67.076H489.737L489.971 65.6H492.761L493.193 62.9H494.813L494.381 65.6H498.341L498.107 67.076H494.147L493.229 72.89C493.109 73.646 493.409 74.024 494.129 74.024H496.829L496.595 75.5H493.895Z" fill="white"/>
<path d="M0 7C0 3.13401 3.13401 0 7 0H509C512.866 0 516 3.13401 516 7H512C512 5.34315 510.657 4 509 4H7C5.34315 4 4 5.34315 4 7H0ZM516 101C516 104.866 512.866 108 509 108H7C3.13401 108 0 104.866 0 101L4 96C4 96 5.34315 96 7 96H509C510.657 96 512 96 512 96L516 101ZM7 108C3.13401 108 0 104.866 0 101V7C0 3.13401 3.13401 0 7 0V4C5.34315 4 4 5.34315 4 7V96C4 96 5.34315 96 7 96V108ZM509 0C512.866 0 516 3.13401 516 7V101C516 104.866 512.866 108 509 108V96C510.657 96 512 96 512 96V7C512 5.34315 510.657 4 509 4V0Z" fill="white" mask="url(#path-1-outside-1_28_6)"/>
</svg>
