<svg width="516" height="108" viewBox="0 0 516 108" fill="none" xmlns="http://www.w3.org/2000/svg">
<mask id="path-1-outside-1_3_120" maskUnits="userSpaceOnUse" x="0" y="0" width="516" height="108" fill="black">
<rect fill="white" width="516" height="108"/>
<path d="M2 7C2 4.23858 4.23858 2 7 2H509C511.761 2 514 4.23858 514 7V97C514 99.7614 511.761 102 509 102H7C4.23858 102 2 99.7614 2 97V7Z"/>
</mask>
<path d="M2 7C2 4.23858 4.23858 2 7 2H509C511.761 2 514 4.23858 514 7V97C514 99.7614 511.761 102 509 102H7C4.23858 102 2 99.7614 2 97V7Z" fill="white"/>
<path d="M29.492 80.36C27.86 80.36 26.564 79.904 25.604 78.992C24.644 78.056 24.164 76.784 24.164 75.176L25.172 76.22H24.164V80H19.772V53.72H24.272V59.264L24.128 63.98H25.172L24.164 65.024C24.164 63.416 24.644 62.156 25.604 61.244C26.564 60.308 27.86 59.84 29.492 59.84C31.484 59.84 33.08 60.524 34.28 61.892C35.48 63.26 36.08 65.108 36.08 67.436V72.8C36.08 75.104 35.48 76.94 34.28 78.308C33.08 79.676 31.484 80.36 29.492 80.36ZM27.908 76.472C29.06 76.472 29.96 76.136 30.608 75.464C31.256 74.792 31.58 73.832 31.58 72.584V67.616C31.58 66.368 31.256 65.408 30.608 64.736C29.96 64.064 29.06 63.728 27.908 63.728C26.78 63.728 25.892 64.076 25.244 64.772C24.596 65.444 24.272 66.392 24.272 67.616V72.584C24.272 73.808 24.596 74.768 25.244 75.464C25.892 76.136 26.78 76.472 27.908 76.472ZM49.3859 80.324C47.7059 80.324 46.2419 80.012 44.9939 79.388C43.7699 78.74 42.8099 77.84 42.1139 76.688C41.4419 75.512 41.1059 74.132 41.1059 72.548V67.652C41.1059 66.068 41.4419 64.7 42.1139 63.548C42.8099 62.372 43.7699 61.472 44.9939 60.848C46.2419 60.2 47.7059 59.876 49.3859 59.876C51.0899 59.876 52.5539 60.2 53.7779 60.848C55.0019 61.472 55.9499 62.372 56.6219 63.548C57.3179 64.7 57.6659 66.056 57.6659 67.616V72.548C57.6659 74.132 57.3179 75.512 56.6219 76.688C55.9499 77.84 55.0019 78.74 53.7779 79.388C52.5539 80.012 51.0899 80.324 49.3859 80.324ZM49.3859 76.4C50.5859 76.4 51.5099 76.076 52.1579 75.428C52.8299 74.756 53.1659 73.796 53.1659 72.548V67.652C53.1659 66.38 52.8299 65.42 52.1579 64.772C51.5099 64.124 50.5859 63.8 49.3859 63.8C48.2099 63.8 47.2859 64.124 46.6139 64.772C45.9419 65.42 45.6059 66.38 45.6059 67.652V72.548C45.6059 73.796 45.9419 74.756 46.6139 75.428C47.2859 76.076 48.2099 76.4 49.3859 76.4ZM63.5559 80V60.2H67.8039V63.98H68.9199L67.5879 66.284C67.5879 64.148 68.0679 62.54 69.0279 61.46C69.9879 60.38 71.4039 59.84 73.2759 59.84C75.4119 59.84 77.0919 60.5 78.3159 61.82C79.5399 63.14 80.1519 64.964 80.1519 67.292V68.732H75.4359V67.616C75.4359 66.344 75.0999 65.36 74.4279 64.664C73.7799 63.968 72.8799 63.62 71.7279 63.62C70.5519 63.62 69.6399 63.968 68.9919 64.664C68.3679 65.36 68.0559 66.344 68.0559 67.616V80H63.5559ZM84.5298 80V60.2H88.9218V63.98H90.1458L88.9218 65.024C88.9218 63.392 89.3898 62.12 90.3258 61.208C91.2858 60.296 92.5938 59.84 94.2498 59.84C96.1938 59.84 97.7418 60.488 98.8938 61.784C100.07 63.08 100.658 64.82 100.658 67.004V80H96.1578V67.472C96.1578 66.272 95.8458 65.348 95.2218 64.7C94.5978 64.052 93.7218 63.728 92.5938 63.728C91.4898 63.728 90.6138 64.064 89.9658 64.736C89.3418 65.408 89.0298 66.368 89.0298 67.616V80H84.5298ZM106.188 80V75.644L114.396 67.4C115.548 66.224 116.4 65.168 116.952 64.232C117.504 63.272 117.78 62.288 117.78 61.28C117.78 60.056 117.444 59.108 116.772 58.436C116.1 57.74 115.188 57.392 114.036 57.392C112.764 57.392 111.768 57.764 111.048 58.508C110.328 59.228 109.968 60.236 109.968 61.532H105.468C105.492 59.852 105.852 58.412 106.548 57.212C107.268 55.988 108.276 55.04 109.572 54.368C110.868 53.696 112.38 53.36 114.108 53.36C115.764 53.36 117.204 53.672 118.428 54.296C119.652 54.92 120.6 55.796 121.272 56.924C121.944 58.052 122.28 59.396 122.28 60.956C122.28 62.564 121.86 64.136 121.02 65.672C120.204 67.184 118.884 68.816 117.06 70.568L111.588 75.932H122.604V80H106.188ZM137.422 80.36C135.79 80.36 134.494 79.904 133.534 78.992C132.574 78.056 132.094 76.784 132.094 75.176L133.102 76.22H132.094V80H127.702V53.72H132.202V59.264L132.058 63.98H133.102L132.094 65.024C132.094 63.416 132.574 62.156 133.534 61.244C134.494 60.308 135.79 59.84 137.422 59.84C139.414 59.84 141.01 60.524 142.21 61.892C143.41 63.26 144.01 65.108 144.01 67.436V72.8C144.01 75.104 143.41 76.94 142.21 78.308C141.01 79.676 139.414 80.36 137.422 80.36ZM135.838 76.472C136.99 76.472 137.89 76.136 138.538 75.464C139.186 74.792 139.51 73.832 139.51 72.584V67.616C139.51 66.368 139.186 65.408 138.538 64.736C137.89 64.064 136.99 63.728 135.838 63.728C134.71 63.728 133.822 64.076 133.174 64.772C132.526 65.444 132.202 66.392 132.202 67.616V72.584C132.202 73.808 132.526 74.768 133.174 75.464C133.822 76.136 134.71 76.472 135.838 76.472ZM157.352 80.36C155.672 80.36 154.208 80.036 152.96 79.388C151.712 78.74 150.74 77.84 150.044 76.688C149.372 75.512 149.036 74.144 149.036 72.584V67.616C149.036 66.056 149.372 64.7 150.044 63.548C150.74 62.372 151.712 61.46 152.96 60.812C154.208 60.164 155.672 59.84 157.352 59.84C159.008 59.84 160.448 60.164 161.672 60.812C162.92 61.46 163.88 62.372 164.552 63.548C165.248 64.7 165.596 66.056 165.596 67.616V71.18H153.392V72.584C153.392 73.976 153.728 75.032 154.4 75.752C155.072 76.448 156.068 76.796 157.388 76.796C158.396 76.796 159.212 76.628 159.836 76.292C160.46 75.932 160.856 75.416 161.024 74.744H165.452C165.116 76.448 164.204 77.816 162.716 78.848C161.252 79.856 159.464 80.36 157.352 80.36ZM161.24 68.66V67.58C161.24 66.212 160.916 65.168 160.268 64.448C159.62 63.704 158.648 63.332 157.352 63.332C156.056 63.332 155.072 63.704 154.4 64.448C153.728 65.192 153.392 66.248 153.392 67.616V68.372L161.564 68.3L161.24 68.66ZM171.486 80V60.2H175.734V63.98H176.85L175.518 66.284C175.518 64.148 175.998 62.54 176.958 61.46C177.918 60.38 179.334 59.84 181.206 59.84C183.342 59.84 185.022 60.5 186.246 61.82C187.47 63.14 188.082 64.964 188.082 67.292V68.732H183.366V67.616C183.366 66.344 183.03 65.36 182.358 64.664C181.71 63.968 180.81 63.62 179.658 63.62C178.482 63.62 177.57 63.968 176.922 64.664C176.298 65.36 175.986 66.344 175.986 67.616V80H171.486ZM200.488 80.324C198.808 80.324 197.344 80.012 196.096 79.388C194.872 78.74 193.912 77.84 193.216 76.688C192.544 75.512 192.208 74.132 192.208 72.548V67.652C192.208 66.068 192.544 64.7 193.216 63.548C193.912 62.372 194.872 61.472 196.096 60.848C197.344 60.2 198.808 59.876 200.488 59.876C202.192 59.876 203.656 60.2 204.88 60.848C206.104 61.472 207.052 62.372 207.724 63.548C208.42 64.7 208.768 66.056 208.768 67.616V72.548C208.768 74.132 208.42 75.512 207.724 76.688C207.052 77.84 206.104 78.74 204.88 79.388C203.656 80.012 202.192 80.324 200.488 80.324ZM200.488 76.4C201.688 76.4 202.612 76.076 203.26 75.428C203.932 74.756 204.268 73.796 204.268 72.548V67.652C204.268 66.38 203.932 65.42 203.26 64.772C202.612 64.124 201.688 63.8 200.488 63.8C199.312 63.8 198.388 64.124 197.716 64.772C197.044 65.42 196.708 66.38 196.708 67.652V72.548C196.708 73.796 197.044 74.756 197.716 75.428C198.388 76.076 199.312 76.4 200.488 76.4ZM222.073 80.324C220.393 80.324 218.929 80.012 217.681 79.388C216.457 78.74 215.497 77.84 214.801 76.688C214.129 75.512 213.793 74.132 213.793 72.548V67.652C213.793 66.068 214.129 64.7 214.801 63.548C215.497 62.372 216.457 61.472 217.681 60.848C218.929 60.2 220.393 59.876 222.073 59.876C223.777 59.876 225.241 60.2 226.465 60.848C227.689 61.472 228.637 62.372 229.309 63.548C230.005 64.7 230.353 66.056 230.353 67.616V72.548C230.353 74.132 230.005 75.512 229.309 76.688C228.637 77.84 227.689 78.74 226.465 79.388C225.241 80.012 223.777 80.324 222.073 80.324ZM222.073 76.4C223.273 76.4 224.197 76.076 224.845 75.428C225.517 74.756 225.853 73.796 225.853 72.548V67.652C225.853 66.38 225.517 65.42 224.845 64.772C224.197 64.124 223.273 63.8 222.073 63.8C220.897 63.8 219.973 64.124 219.301 64.772C218.629 65.42 218.293 66.38 218.293 67.652V72.548C218.293 73.796 218.629 74.756 219.301 75.428C219.973 76.076 220.897 76.4 222.073 76.4ZM245.819 80C243.923 80 242.435 79.472 241.355 78.416C240.299 77.36 239.771 75.908 239.771 74.06V64.268H234.407V60.2H239.771V54.62H244.307V60.2H251.903V64.268H244.307V74.06C244.307 75.308 244.919 75.932 246.143 75.932H251.543V80H245.819Z" fill="#1E2025"/>
<path d="M468.5 59.5V54.676H456.98V47.152L466.844 33.22H472.964L462.02 48.664V49.996H468.5V44.38H473.9V59.5H468.5ZM479.106 59.5V54.424L487.458 46.36C488.442 45.4 489.174 44.512 489.654 43.696C490.158 42.88 490.41 41.992 490.41 41.032C490.41 39.976 490.122 39.16 489.546 38.584C488.994 38.008 488.226 37.72 487.242 37.72C486.162 37.72 485.31 38.044 484.686 38.692C484.086 39.316 483.786 40.192 483.786 41.32H478.386C478.386 39.592 478.746 38.104 479.466 36.856C480.21 35.584 481.254 34.6 482.598 33.904C483.942 33.208 485.526 32.86 487.35 32.86C489.054 32.86 490.53 33.184 491.778 33.832C493.05 34.456 494.034 35.332 494.73 36.46C495.45 37.588 495.81 38.92 495.81 40.456C495.81 42.16 495.39 43.792 494.55 45.352C493.71 46.912 492.366 48.544 490.518 50.248L485.766 54.64H496.098V59.5H479.106Z" fill="#1E2025"/>
<path d="M435.905 75.5V62.36H440.135C440.951 62.36 441.659 62.522 442.259 62.846C442.859 63.158 443.321 63.602 443.645 64.178C443.981 64.754 444.149 65.438 444.149 66.23C444.149 67.01 443.981 67.694 443.645 68.282C443.321 68.858 442.859 69.308 442.259 69.632C441.659 69.944 440.951 70.1 440.135 70.1H437.525V75.5H435.905ZM437.525 68.642H440.135C440.843 68.642 441.407 68.426 441.827 67.994C442.259 67.55 442.475 66.962 442.475 66.23C442.475 65.486 442.259 64.898 441.827 64.466C441.407 64.034 440.843 63.818 440.135 63.818H437.525V68.642ZM445.24 75.5V65.6H446.824V67.49H447.202L446.68 68.66C446.68 67.592 446.908 66.788 447.364 66.248C447.832 65.696 448.522 65.42 449.434 65.42C450.478 65.42 451.306 65.75 451.918 66.41C452.542 67.058 452.854 67.94 452.854 69.056V69.65H451.234V69.2C451.234 68.42 451.042 67.826 450.658 67.418C450.286 66.998 449.752 66.788 449.056 66.788C448.372 66.788 447.832 66.998 447.436 67.418C447.052 67.838 446.86 68.432 446.86 69.2V75.5H445.24ZM457.635 75.644C456.843 75.644 456.159 75.494 455.583 75.194C455.007 74.894 454.557 74.462 454.233 73.898C453.921 73.322 453.765 72.644 453.765 71.864V69.236C453.765 68.444 453.921 67.766 454.233 67.202C454.557 66.638 455.007 66.206 455.583 65.906C456.159 65.606 456.843 65.456 457.635 65.456C458.427 65.456 459.111 65.606 459.687 65.906C460.263 66.206 460.707 66.638 461.019 67.202C461.343 67.766 461.505 68.438 461.505 69.218V71.864C461.505 72.644 461.343 73.322 461.019 73.898C460.707 74.462 460.263 74.894 459.687 75.194C459.111 75.494 458.427 75.644 457.635 75.644ZM457.635 74.204C458.343 74.204 458.895 74.006 459.291 73.61C459.687 73.214 459.885 72.632 459.885 71.864V69.236C459.885 68.468 459.687 67.886 459.291 67.49C458.895 67.094 458.343 66.896 457.635 66.896C456.939 66.896 456.387 67.094 455.979 67.49C455.583 67.886 455.385 68.468 455.385 69.236V71.864C455.385 72.632 455.583 73.214 455.979 73.61C456.387 74.006 456.939 74.204 457.635 74.204ZM462.758 78.74V77.246H465.08C465.824 77.246 466.4 77.042 466.808 76.634C467.228 76.238 467.438 75.674 467.438 74.942V67.076H463.298V65.6H469.058V74.942C469.058 76.106 468.698 77.03 467.978 77.714C467.258 78.398 466.292 78.74 465.08 78.74H462.758ZM468.158 63.818C467.762 63.818 467.45 63.716 467.222 63.512C466.994 63.308 466.88 63.032 466.88 62.684C466.88 62.324 466.994 62.042 467.222 61.838C467.45 61.622 467.762 61.514 468.158 61.514C468.554 61.514 468.866 61.622 469.094 61.838C469.322 62.042 469.436 62.324 469.436 62.684C469.436 63.032 469.322 63.308 469.094 63.512C468.866 63.716 468.554 63.818 468.158 63.818ZM475.621 75.68C474.841 75.68 474.157 75.524 473.569 75.212C472.993 74.9 472.543 74.462 472.219 73.898C471.907 73.322 471.751 72.656 471.751 71.9V69.2C471.751 68.432 471.907 67.766 472.219 67.202C472.543 66.638 472.993 66.2 473.569 65.888C474.157 65.576 474.841 65.42 475.621 65.42C476.401 65.42 477.079 65.576 477.655 65.888C478.243 66.2 478.693 66.638 479.005 67.202C479.329 67.766 479.491 68.432 479.491 69.2V70.946H473.335V71.9C473.335 72.68 473.533 73.28 473.929 73.7C474.325 74.108 474.889 74.312 475.621 74.312C476.245 74.312 476.749 74.204 477.133 73.988C477.517 73.76 477.751 73.424 477.835 72.98H479.455C479.347 73.808 478.939 74.468 478.231 74.96C477.535 75.44 476.665 75.68 475.621 75.68ZM477.907 69.866V69.2C477.907 68.42 477.709 67.82 477.313 67.4C476.929 66.98 476.365 66.77 475.621 66.77C474.889 66.77 474.325 66.98 473.929 67.4C473.533 67.82 473.335 68.42 473.335 69.2V69.722H478.033L477.907 69.866ZM484.686 75.68C483.894 75.68 483.198 75.53 482.598 75.23C482.01 74.93 481.554 74.498 481.23 73.934C480.906 73.358 480.744 72.68 480.744 71.9V69.2C480.744 68.408 480.906 67.73 481.23 67.166C481.554 66.602 482.01 66.17 482.598 65.87C483.198 65.57 483.894 65.42 484.686 65.42C485.826 65.42 486.744 65.726 487.44 66.338C488.136 66.95 488.502 67.784 488.538 68.84H486.918C486.882 68.204 486.666 67.718 486.27 67.382C485.886 67.034 485.358 66.86 484.686 66.86C483.978 66.86 483.414 67.064 482.994 67.472C482.574 67.868 482.364 68.438 482.364 69.182V71.9C482.364 72.644 482.574 73.22 482.994 73.628C483.414 74.036 483.978 74.24 484.686 74.24C485.358 74.24 485.886 74.066 486.27 73.718C486.666 73.37 486.882 72.884 486.918 72.26H488.538C488.502 73.316 488.136 74.15 487.44 74.762C486.744 75.374 485.826 75.68 484.686 75.68ZM494.687 75.5C493.835 75.5 493.169 75.272 492.689 74.816C492.221 74.36 491.987 73.718 491.987 72.89V67.076H489.197V65.6H491.987V62.81H493.607V65.6H497.567V67.076H493.607V72.89C493.607 73.646 493.967 74.024 494.687 74.024H497.387V75.5H494.687Z" fill="#1E2025"/>
<path d="M0 7C0 3.13401 3.13401 0 7 0H509C512.866 0 516 3.13401 516 7H512C512 5.34315 510.657 4 509 4H7C5.34315 4 4 5.34315 4 7H0ZM516 101C516 104.866 512.866 108 509 108H7C3.13401 108 0 104.866 0 101L4 96C4 96 5.34315 96 7 96H509C510.657 96 512 96 512 96L516 101ZM7 108C3.13401 108 0 104.866 0 101V7C0 3.13401 3.13401 0 7 0V4C5.34315 4 4 5.34315 4 7V96C4 96 5.34315 96 7 96V108ZM509 0C512.866 0 516 3.13401 516 7V101C516 104.866 512.866 108 509 108V96C510.657 96 512 96 512 96V7C512 5.34315 510.657 4 509 4V0Z" fill="#1E2025" mask="url(#path-1-outside-1_3_120)"/>
</svg>
