<svg width="516" height="108" viewBox="0 0 516 108" fill="none" xmlns="http://www.w3.org/2000/svg">
<mask id="path-1-outside-1_3_120" maskUnits="userSpaceOnUse" x="0" y="0" width="516" height="108" fill="black">
<rect fill="white" width="516" height="108"/>
<path d="M2 7C2 4.23858 4.23858 2 7 2H509C511.761 2 514 4.23858 514 7V97C514 99.7614 511.761 102 509 102H7C4.23858 102 2 99.7614 2 97V7Z"/>
</mask>
<path d="M2 7C2 4.23858 4.23858 2 7 2H509C511.761 2 514 4.23858 514 7V97C514 99.7614 511.761 102 509 102H7C4.23858 102 2 99.7614 2 97V7Z" fill="white"/>
<path d="M24.38 80V66.464H18.944V62.396H24.38V59.408C24.38 57.68 24.956 56.3 26.108 55.268C27.26 54.236 28.784 53.72 30.68 53.72H36.476V57.68H30.788C30.212 57.68 29.744 57.848 29.384 58.184C29.048 58.496 28.88 58.928 28.88 59.48V62.396H36.476V66.464H28.88V80H24.38ZM41.9699 80V60.2H46.2179V63.98H47.3339L46.0019 66.284C46.0019 64.148 46.4819 62.54 47.4419 61.46C48.4019 60.38 49.8179 59.84 51.6899 59.84C53.8259 59.84 55.5059 60.5 56.7299 61.82C57.9539 63.14 58.5659 64.964 58.5659 67.292V68.732H53.8499V67.616C53.8499 66.344 53.5139 65.36 52.8419 64.664C52.1939 63.968 51.2939 63.62 50.1419 63.62C48.9659 63.62 48.0539 63.968 47.4059 64.664C46.7819 65.36 46.4699 66.344 46.4699 67.616V80H41.9699ZM68.7759 80.36C66.7359 80.36 65.1279 79.82 63.9519 78.74C62.7759 77.66 62.1879 76.208 62.1879 74.384C62.1879 72.44 62.8359 70.94 64.1319 69.884C65.4279 68.828 67.2639 68.3 69.6399 68.3H74.5719V66.608C74.5719 65.648 74.2599 64.904 73.6359 64.376C73.0119 63.824 72.1599 63.548 71.0799 63.548C70.0959 63.548 69.2799 63.764 68.6319 64.196C67.9839 64.628 67.5999 65.216 67.4799 65.96H63.0879C63.3039 64.088 64.1439 62.6 65.6079 61.496C67.0719 60.392 68.9439 59.84 71.2239 59.84C73.6479 59.84 75.5559 60.452 76.9479 61.676C78.3639 62.876 79.0719 64.508 79.0719 66.572V80H74.7159V76.544H73.9959L74.7159 75.572C74.7159 77.036 74.1759 78.2 73.0959 79.064C72.0159 79.928 70.5759 80.36 68.7759 80.36ZM70.2519 76.976C71.5239 76.976 72.5559 76.652 73.3479 76.004C74.1639 75.356 74.5719 74.516 74.5719 73.484V71.072H69.7119C68.7999 71.072 68.0679 71.336 67.5159 71.864C66.9639 72.392 66.6879 73.088 66.6879 73.952C66.6879 74.888 66.9999 75.632 67.6239 76.184C68.2719 76.712 69.1479 76.976 70.2519 76.976ZM92.6658 80.36C90.9858 80.36 89.5098 80.048 88.2378 79.424C86.9898 78.776 86.0178 77.876 85.3218 76.724C84.6258 75.548 84.2778 74.168 84.2778 72.584V67.616C84.2778 66.008 84.6258 64.628 85.3218 63.476C86.0178 62.324 86.9898 61.436 88.2378 60.812C89.5098 60.164 90.9858 59.84 92.6658 59.84C95.1618 59.84 97.1538 60.488 98.6418 61.784C100.13 63.056 100.91 64.796 100.982 67.004H96.4818C96.4098 65.972 96.0378 65.18 95.3658 64.628C94.7178 64.052 93.8178 63.764 92.6658 63.764C91.4658 63.764 90.5178 64.1 89.8218 64.772C89.1258 65.42 88.7778 66.356 88.7778 67.58V72.584C88.7778 73.808 89.1258 74.756 89.8218 75.428C90.5178 76.1 91.4658 76.436 92.6658 76.436C93.8178 76.436 94.7178 76.16 95.3658 75.608C96.0378 75.032 96.4098 74.228 96.4818 73.196H100.982C100.91 75.404 100.13 77.156 98.6418 78.452C97.1538 79.724 95.1618 80.36 92.6658 80.36ZM116.304 80C114.408 80 112.92 79.472 111.84 78.416C110.784 77.36 110.256 75.908 110.256 74.06V64.268H104.892V60.2H110.256V54.62H114.792V60.2H122.388V64.268H114.792V74.06C114.792 75.308 115.404 75.932 116.628 75.932H122.028V80H116.304ZM129.97 70.208V66.032H141.49V70.208H129.97ZM157.316 80.324C155.636 80.324 154.172 80.012 152.924 79.388C151.7 78.74 150.74 77.84 150.044 76.688C149.372 75.512 149.036 74.132 149.036 72.548V67.652C149.036 66.068 149.372 64.7 150.044 63.548C150.74 62.372 151.7 61.472 152.924 60.848C154.172 60.2 155.636 59.876 157.316 59.876C159.02 59.876 160.484 60.2 161.708 60.848C162.932 61.472 163.88 62.372 164.552 63.548C165.248 64.7 165.596 66.056 165.596 67.616V72.548C165.596 74.132 165.248 75.512 164.552 76.688C163.88 77.84 162.932 78.74 161.708 79.388C160.484 80.012 159.02 80.324 157.316 80.324ZM157.316 76.4C158.516 76.4 159.44 76.076 160.088 75.428C160.76 74.756 161.096 73.796 161.096 72.548V67.652C161.096 66.38 160.76 65.42 160.088 64.772C159.44 64.124 158.516 63.8 157.316 63.8C156.14 63.8 155.216 64.124 154.544 64.772C153.872 65.42 153.536 66.38 153.536 67.652V72.548C153.536 73.796 153.872 74.756 154.544 75.428C155.216 76.076 156.14 76.4 157.316 76.4ZM181.926 80C180.63 80 179.49 79.736 178.506 79.208C177.546 78.68 176.79 77.936 176.238 76.976C175.686 75.992 175.41 74.864 175.41 73.592V57.788H169.074V53.72H179.91V73.592C179.91 74.312 180.114 74.888 180.522 75.32C180.954 75.728 181.53 75.932 182.25 75.932H188.226V80H181.926Z" fill="#1E2025"/>
<path d="M468.5 59.5V54.676H456.98V47.152L466.844 33.22H472.964L462.02 48.664V49.996H468.5V44.38H473.9V59.5H468.5ZM479.106 59.5V54.424L487.458 46.36C488.442 45.4 489.174 44.512 489.654 43.696C490.158 42.88 490.41 41.992 490.41 41.032C490.41 39.976 490.122 39.16 489.546 38.584C488.994 38.008 488.226 37.72 487.242 37.72C486.162 37.72 485.31 38.044 484.686 38.692C484.086 39.316 483.786 40.192 483.786 41.32H478.386C478.386 39.592 478.746 38.104 479.466 36.856C480.21 35.584 481.254 34.6 482.598 33.904C483.942 33.208 485.526 32.86 487.35 32.86C489.054 32.86 490.53 33.184 491.778 33.832C493.05 34.456 494.034 35.332 494.73 36.46C495.45 37.588 495.81 38.92 495.81 40.456C495.81 42.16 495.39 43.792 494.55 45.352C493.71 46.912 492.366 48.544 490.518 50.248L485.766 54.64H496.098V59.5H479.106Z" fill="#1E2025"/>
<path d="M435.905 75.5V62.36H440.135C440.951 62.36 441.659 62.522 442.259 62.846C442.859 63.158 443.321 63.602 443.645 64.178C443.981 64.754 444.149 65.438 444.149 66.23C444.149 67.01 443.981 67.694 443.645 68.282C443.321 68.858 442.859 69.308 442.259 69.632C441.659 69.944 440.951 70.1 440.135 70.1H437.525V75.5H435.905ZM437.525 68.642H440.135C440.843 68.642 441.407 68.426 441.827 67.994C442.259 67.55 442.475 66.962 442.475 66.23C442.475 65.486 442.259 64.898 441.827 64.466C441.407 64.034 440.843 63.818 440.135 63.818H437.525V68.642ZM445.24 75.5V65.6H446.824V67.49H447.202L446.68 68.66C446.68 67.592 446.908 66.788 447.364 66.248C447.832 65.696 448.522 65.42 449.434 65.42C450.478 65.42 451.306 65.75 451.918 66.41C452.542 67.058 452.854 67.94 452.854 69.056V69.65H451.234V69.2C451.234 68.42 451.042 67.826 450.658 67.418C450.286 66.998 449.752 66.788 449.056 66.788C448.372 66.788 447.832 66.998 447.436 67.418C447.052 67.838 446.86 68.432 446.86 69.2V75.5H445.24ZM457.635 75.644C456.843 75.644 456.159 75.494 455.583 75.194C455.007 74.894 454.557 74.462 454.233 73.898C453.921 73.322 453.765 72.644 453.765 71.864V69.236C453.765 68.444 453.921 67.766 454.233 67.202C454.557 66.638 455.007 66.206 455.583 65.906C456.159 65.606 456.843 65.456 457.635 65.456C458.427 65.456 459.111 65.606 459.687 65.906C460.263 66.206 460.707 66.638 461.019 67.202C461.343 67.766 461.505 68.438 461.505 69.218V71.864C461.505 72.644 461.343 73.322 461.019 73.898C460.707 74.462 460.263 74.894 459.687 75.194C459.111 75.494 458.427 75.644 457.635 75.644ZM457.635 74.204C458.343 74.204 458.895 74.006 459.291 73.61C459.687 73.214 459.885 72.632 459.885 71.864V69.236C459.885 68.468 459.687 67.886 459.291 67.49C458.895 67.094 458.343 66.896 457.635 66.896C456.939 66.896 456.387 67.094 455.979 67.49C455.583 67.886 455.385 68.468 455.385 69.236V71.864C455.385 72.632 455.583 73.214 455.979 73.61C456.387 74.006 456.939 74.204 457.635 74.204ZM462.758 78.74V77.246H465.08C465.824 77.246 466.4 77.042 466.808 76.634C467.228 76.238 467.438 75.674 467.438 74.942V67.076H463.298V65.6H469.058V74.942C469.058 76.106 468.698 77.03 467.978 77.714C467.258 78.398 466.292 78.74 465.08 78.74H462.758ZM468.158 63.818C467.762 63.818 467.45 63.716 467.222 63.512C466.994 63.308 466.88 63.032 466.88 62.684C466.88 62.324 466.994 62.042 467.222 61.838C467.45 61.622 467.762 61.514 468.158 61.514C468.554 61.514 468.866 61.622 469.094 61.838C469.322 62.042 469.436 62.324 469.436 62.684C469.436 63.032 469.322 63.308 469.094 63.512C468.866 63.716 468.554 63.818 468.158 63.818ZM475.621 75.68C474.841 75.68 474.157 75.524 473.569 75.212C472.993 74.9 472.543 74.462 472.219 73.898C471.907 73.322 471.751 72.656 471.751 71.9V69.2C471.751 68.432 471.907 67.766 472.219 67.202C472.543 66.638 472.993 66.2 473.569 65.888C474.157 65.576 474.841 65.42 475.621 65.42C476.401 65.42 477.079 65.576 477.655 65.888C478.243 66.2 478.693 66.638 479.005 67.202C479.329 67.766 479.491 68.432 479.491 69.2V70.946H473.335V71.9C473.335 72.68 473.533 73.28 473.929 73.7C474.325 74.108 474.889 74.312 475.621 74.312C476.245 74.312 476.749 74.204 477.133 73.988C477.517 73.76 477.751 73.424 477.835 72.98H479.455C479.347 73.808 478.939 74.468 478.231 74.96C477.535 75.44 476.665 75.68 475.621 75.68ZM477.907 69.866V69.2C477.907 68.42 477.709 67.82 477.313 67.4C476.929 66.98 476.365 66.77 475.621 66.77C474.889 66.77 474.325 66.98 473.929 67.4C473.533 67.82 473.335 68.42 473.335 69.2V69.722H478.033L477.907 69.866ZM484.686 75.68C483.894 75.68 483.198 75.53 482.598 75.23C482.01 74.93 481.554 74.498 481.23 73.934C480.906 73.358 480.744 72.68 480.744 71.9V69.2C480.744 68.408 480.906 67.73 481.23 67.166C481.554 66.602 482.01 66.17 482.598 65.87C483.198 65.57 483.894 65.42 484.686 65.42C485.826 65.42 486.744 65.726 487.44 66.338C488.136 66.95 488.502 67.784 488.538 68.84H486.918C486.882 68.204 486.666 67.718 486.27 67.382C485.886 67.034 485.358 66.86 484.686 66.86C483.978 66.86 483.414 67.064 482.994 67.472C482.574 67.868 482.364 68.438 482.364 69.182V71.9C482.364 72.644 482.574 73.22 482.994 73.628C483.414 74.036 483.978 74.24 484.686 74.24C485.358 74.24 485.886 74.066 486.27 73.718C486.666 73.37 486.882 72.884 486.918 72.26H488.538C488.502 73.316 488.136 74.15 487.44 74.762C486.744 75.374 485.826 75.68 484.686 75.68ZM494.687 75.5C493.835 75.5 493.169 75.272 492.689 74.816C492.221 74.36 491.987 73.718 491.987 72.89V67.076H489.197V65.6H491.987V62.81H493.607V65.6H497.567V67.076H493.607V72.89C493.607 73.646 493.967 74.024 494.687 74.024H497.387V75.5H494.687Z" fill="#1E2025"/>
<path d="M0 7C0 3.13401 3.13401 0 7 0H509C512.866 0 516 3.13401 516 7H512C512 5.34315 510.657 4 509 4H7C5.34315 4 4 5.34315 4 7H0ZM516 101C516 104.866 512.866 108 509 108H7C3.13401 108 0 104.866 0 101L4 96C4 96 5.34315 96 7 96H509C510.657 96 512 96 512 96L516 101ZM7 108C3.13401 108 0 104.866 0 101V7C0 3.13401 3.13401 0 7 0V4C5.34315 4 4 5.34315 4 7V96C4 96 5.34315 96 7 96V108ZM509 0C512.866 0 516 3.13401 516 7V101C516 104.866 512.866 108 509 108V96C510.657 96 512 96 512 96V7C512 5.34315 510.657 4 509 4V0Z" fill="#1E2025" mask="url(#path-1-outside-1_3_120)"/>
</svg>
