<svg width="516" height="108" viewBox="0 0 516 108" fill="none" xmlns="http://www.w3.org/2000/svg">
<mask id="path-1-outside-1_3_120" maskUnits="userSpaceOnUse" x="0" y="0" width="516" height="108" fill="black">
<rect fill="white" width="516" height="108"/>
<path d="M2 7C2 4.23858 4.23858 2 7 2H509C511.761 2 514 4.23858 514 7V97C514 99.7614 511.761 102 509 102H7C4.23858 102 2 99.7614 2 97V7Z"/>
</mask>
<path d="M2 7C2 4.23858 4.23858 2 7 2H509C511.761 2 514 4.23858 514 7V97C514 99.7614 511.761 102 509 102H7C4.23858 102 2 99.7614 2 97V7Z" fill="white"/>
<path d="M24.38 80V66.464H18.944V62.396H24.38V59.408C24.38 57.68 24.956 56.3 26.108 55.268C27.26 54.236 28.784 53.72 30.68 53.72H36.476V57.68H30.788C30.212 57.68 29.744 57.848 29.384 58.184C29.048 58.496 28.88 58.928 28.88 59.48V62.396H36.476V66.464H28.88V80H24.38ZM51.5459 80C49.6499 80 48.1619 79.472 47.0819 78.416C46.0259 77.36 45.4979 75.908 45.4979 74.06V64.268H40.1339V60.2H45.4979V54.62H50.0339V60.2H57.6299V64.268H50.0339V74.06C50.0339 75.308 50.6459 75.932 51.8699 75.932H57.2699V80H51.5459ZM62.3319 84.968V80.9H79.6119V84.968H62.3319ZM84.5298 86.48V60.2H88.9218V63.98H89.9298L88.9218 65.024C88.9218 63.416 89.4018 62.156 90.3618 61.244C91.3218 60.308 92.6178 59.84 94.2498 59.84C96.2418 59.84 97.8378 60.524 99.0378 61.892C100.238 63.26 100.838 65.096 100.838 67.4V72.764C100.838 74.3 100.562 75.644 100.01 76.796C99.4818 77.924 98.7258 78.8 97.7418 79.424C96.7578 80.048 95.5938 80.36 94.2498 80.36C92.6178 80.36 91.3218 79.904 90.3618 78.992C89.4018 78.056 88.9218 76.784 88.9218 75.176L89.9298 76.22H88.8858L89.0298 80.936V86.48H84.5298ZM92.6658 76.472C93.8178 76.472 94.7178 76.136 95.3658 75.464C96.0138 74.792 96.3378 73.832 96.3378 72.584V67.616C96.3378 66.368 96.0138 65.408 95.3658 64.736C94.7178 64.064 93.8178 63.728 92.6658 63.728C91.5378 63.728 90.6498 64.076 90.0018 64.772C89.3538 65.444 89.0298 66.392 89.0298 67.616V72.584C89.0298 73.808 89.3538 74.768 90.0018 75.464C90.6498 76.136 91.5378 76.472 92.6658 76.472ZM106.728 80V60.2H110.976V63.98H112.092L110.76 66.284C110.76 64.148 111.24 62.54 112.2 61.46C113.16 60.38 114.576 59.84 116.448 59.84C118.584 59.84 120.264 60.5 121.488 61.82C122.712 63.14 123.324 64.964 123.324 67.292V68.732H118.608V67.616C118.608 66.344 118.272 65.36 117.6 64.664C116.952 63.968 116.052 63.62 114.9 63.62C113.724 63.62 112.812 63.968 112.164 64.664C111.54 65.36 111.228 66.344 111.228 67.616V80H106.728ZM127.666 80V75.896H134.578V64.268H128.566V60.2H138.898V75.896H145.018V80H127.666ZM136.378 56.888C135.466 56.888 134.746 56.66 134.218 56.204C133.69 55.724 133.426 55.088 133.426 54.296C133.426 53.504 133.69 52.88 134.218 52.424C134.746 51.944 135.466 51.704 136.378 51.704C137.29 51.704 138.01 51.944 138.538 52.424C139.066 52.88 139.33 53.504 139.33 54.296C139.33 55.088 139.066 55.724 138.538 56.204C138.01 56.66 137.29 56.888 136.378 56.888ZM149.288 80V60.2H153.68V63.98H154.904L153.68 65.024C153.68 63.392 154.148 62.12 155.084 61.208C156.044 60.296 157.352 59.84 159.008 59.84C160.952 59.84 162.5 60.488 163.652 61.784C164.828 63.08 165.416 64.82 165.416 67.004V80H160.916V67.472C160.916 66.272 160.604 65.348 159.98 64.7C159.356 64.052 158.48 63.728 157.352 63.728C156.248 63.728 155.372 64.064 154.724 64.736C154.1 65.408 153.788 66.368 153.788 67.616V80H149.288ZM181.062 80C179.166 80 177.678 79.472 176.598 78.416C175.542 77.36 175.014 75.908 175.014 74.06V64.268H169.65V60.2H175.014V54.62H179.55V60.2H187.146V64.268H179.55V74.06C179.55 75.308 180.162 75.932 181.386 75.932H186.786V80H181.062ZM197.068 80V66.464H191.632V62.396H197.068V59.408C197.068 57.68 197.644 56.3 198.796 55.268C199.948 54.236 201.472 53.72 203.368 53.72H209.164V57.68H203.476C202.9 57.68 202.432 57.848 202.072 58.184C201.736 58.496 201.568 58.928 201.568 59.48V62.396H209.164V66.464H201.568V80H197.068Z" fill="#1E2025"/>
<path d="M468.5 59.5V54.676H456.98V47.152L466.844 33.22H472.964L462.02 48.664V49.996H468.5V44.38H473.9V59.5H468.5ZM479.106 59.5V54.424L487.458 46.36C488.442 45.4 489.174 44.512 489.654 43.696C490.158 42.88 490.41 41.992 490.41 41.032C490.41 39.976 490.122 39.16 489.546 38.584C488.994 38.008 488.226 37.72 487.242 37.72C486.162 37.72 485.31 38.044 484.686 38.692C484.086 39.316 483.786 40.192 483.786 41.32H478.386C478.386 39.592 478.746 38.104 479.466 36.856C480.21 35.584 481.254 34.6 482.598 33.904C483.942 33.208 485.526 32.86 487.35 32.86C489.054 32.86 490.53 33.184 491.778 33.832C493.05 34.456 494.034 35.332 494.73 36.46C495.45 37.588 495.81 38.92 495.81 40.456C495.81 42.16 495.39 43.792 494.55 45.352C493.71 46.912 492.366 48.544 490.518 50.248L485.766 54.64H496.098V59.5H479.106Z" fill="#1E2025"/>
<path d="M435.905 75.5V62.36H440.135C440.951 62.36 441.659 62.522 442.259 62.846C442.859 63.158 443.321 63.602 443.645 64.178C443.981 64.754 444.149 65.438 444.149 66.23C444.149 67.01 443.981 67.694 443.645 68.282C443.321 68.858 442.859 69.308 442.259 69.632C441.659 69.944 440.951 70.1 440.135 70.1H437.525V75.5H435.905ZM437.525 68.642H440.135C440.843 68.642 441.407 68.426 441.827 67.994C442.259 67.55 442.475 66.962 442.475 66.23C442.475 65.486 442.259 64.898 441.827 64.466C441.407 64.034 440.843 63.818 440.135 63.818H437.525V68.642ZM445.24 75.5V65.6H446.824V67.49H447.202L446.68 68.66C446.68 67.592 446.908 66.788 447.364 66.248C447.832 65.696 448.522 65.42 449.434 65.42C450.478 65.42 451.306 65.75 451.918 66.41C452.542 67.058 452.854 67.94 452.854 69.056V69.65H451.234V69.2C451.234 68.42 451.042 67.826 450.658 67.418C450.286 66.998 449.752 66.788 449.056 66.788C448.372 66.788 447.832 66.998 447.436 67.418C447.052 67.838 446.86 68.432 446.86 69.2V75.5H445.24ZM457.635 75.644C456.843 75.644 456.159 75.494 455.583 75.194C455.007 74.894 454.557 74.462 454.233 73.898C453.921 73.322 453.765 72.644 453.765 71.864V69.236C453.765 68.444 453.921 67.766 454.233 67.202C454.557 66.638 455.007 66.206 455.583 65.906C456.159 65.606 456.843 65.456 457.635 65.456C458.427 65.456 459.111 65.606 459.687 65.906C460.263 66.206 460.707 66.638 461.019 67.202C461.343 67.766 461.505 68.438 461.505 69.218V71.864C461.505 72.644 461.343 73.322 461.019 73.898C460.707 74.462 460.263 74.894 459.687 75.194C459.111 75.494 458.427 75.644 457.635 75.644ZM457.635 74.204C458.343 74.204 458.895 74.006 459.291 73.61C459.687 73.214 459.885 72.632 459.885 71.864V69.236C459.885 68.468 459.687 67.886 459.291 67.49C458.895 67.094 458.343 66.896 457.635 66.896C456.939 66.896 456.387 67.094 455.979 67.49C455.583 67.886 455.385 68.468 455.385 69.236V71.864C455.385 72.632 455.583 73.214 455.979 73.61C456.387 74.006 456.939 74.204 457.635 74.204ZM462.758 78.74V77.246H465.08C465.824 77.246 466.4 77.042 466.808 76.634C467.228 76.238 467.438 75.674 467.438 74.942V67.076H463.298V65.6H469.058V74.942C469.058 76.106 468.698 77.03 467.978 77.714C467.258 78.398 466.292 78.74 465.08 78.74H462.758ZM468.158 63.818C467.762 63.818 467.45 63.716 467.222 63.512C466.994 63.308 466.88 63.032 466.88 62.684C466.88 62.324 466.994 62.042 467.222 61.838C467.45 61.622 467.762 61.514 468.158 61.514C468.554 61.514 468.866 61.622 469.094 61.838C469.322 62.042 469.436 62.324 469.436 62.684C469.436 63.032 469.322 63.308 469.094 63.512C468.866 63.716 468.554 63.818 468.158 63.818ZM475.621 75.68C474.841 75.68 474.157 75.524 473.569 75.212C472.993 74.9 472.543 74.462 472.219 73.898C471.907 73.322 471.751 72.656 471.751 71.9V69.2C471.751 68.432 471.907 67.766 472.219 67.202C472.543 66.638 472.993 66.2 473.569 65.888C474.157 65.576 474.841 65.42 475.621 65.42C476.401 65.42 477.079 65.576 477.655 65.888C478.243 66.2 478.693 66.638 479.005 67.202C479.329 67.766 479.491 68.432 479.491 69.2V70.946H473.335V71.9C473.335 72.68 473.533 73.28 473.929 73.7C474.325 74.108 474.889 74.312 475.621 74.312C476.245 74.312 476.749 74.204 477.133 73.988C477.517 73.76 477.751 73.424 477.835 72.98H479.455C479.347 73.808 478.939 74.468 478.231 74.96C477.535 75.44 476.665 75.68 475.621 75.68ZM477.907 69.866V69.2C477.907 68.42 477.709 67.82 477.313 67.4C476.929 66.98 476.365 66.77 475.621 66.77C474.889 66.77 474.325 66.98 473.929 67.4C473.533 67.82 473.335 68.42 473.335 69.2V69.722H478.033L477.907 69.866ZM484.686 75.68C483.894 75.68 483.198 75.53 482.598 75.23C482.01 74.93 481.554 74.498 481.23 73.934C480.906 73.358 480.744 72.68 480.744 71.9V69.2C480.744 68.408 480.906 67.73 481.23 67.166C481.554 66.602 482.01 66.17 482.598 65.87C483.198 65.57 483.894 65.42 484.686 65.42C485.826 65.42 486.744 65.726 487.44 66.338C488.136 66.95 488.502 67.784 488.538 68.84H486.918C486.882 68.204 486.666 67.718 486.27 67.382C485.886 67.034 485.358 66.86 484.686 66.86C483.978 66.86 483.414 67.064 482.994 67.472C482.574 67.868 482.364 68.438 482.364 69.182V71.9C482.364 72.644 482.574 73.22 482.994 73.628C483.414 74.036 483.978 74.24 484.686 74.24C485.358 74.24 485.886 74.066 486.27 73.718C486.666 73.37 486.882 72.884 486.918 72.26H488.538C488.502 73.316 488.136 74.15 487.44 74.762C486.744 75.374 485.826 75.68 484.686 75.68ZM494.687 75.5C493.835 75.5 493.169 75.272 492.689 74.816C492.221 74.36 491.987 73.718 491.987 72.89V67.076H489.197V65.6H491.987V62.81H493.607V65.6H497.567V67.076H493.607V72.89C493.607 73.646 493.967 74.024 494.687 74.024H497.387V75.5H494.687Z" fill="#1E2025"/>
<path d="M0 7C0 3.13401 3.13401 0 7 0H509C512.866 0 516 3.13401 516 7H512C512 5.34315 510.657 4 509 4H7C5.34315 4 4 5.34315 4 7H0ZM516 101C516 104.866 512.866 108 509 108H7C3.13401 108 0 104.866 0 101L4 96C4 96 5.34315 96 7 96H509C510.657 96 512 96 512 96L516 101ZM7 108C3.13401 108 0 104.866 0 101V7C0 3.13401 3.13401 0 7 0V4C5.34315 4 4 5.34315 4 7V96C4 96 5.34315 96 7 96V108ZM509 0C512.866 0 516 3.13401 516 7V101C516 104.866 512.866 108 509 108V96C510.657 96 512 96 512 96V7C512 5.34315 510.657 4 509 4V0Z" fill="#1E2025" mask="url(#path-1-outside-1_3_120)"/>
</svg>
