<svg width="516" height="108" viewBox="0 0 516 108" fill="none" xmlns="http://www.w3.org/2000/svg">
<mask id="path-1-outside-1_3_120" maskUnits="userSpaceOnUse" x="0" y="0" width="516" height="108" fill="black">
<rect fill="white" width="516" height="108"/>
<path d="M2 7C2 4.23858 4.23858 2 7 2H509C511.761 2 514 4.23858 514 7V97C514 99.7614 511.761 102 509 102H7C4.23858 102 2 99.7614 2 97V7Z"/>
</mask>
<path d="M2 7C2 4.23858 4.23858 2 7 2H509C511.761 2 514 4.23858 514 7V97C514 99.7614 511.761 102 509 102H7C4.23858 102 2 99.7614 2 97V7Z" fill="white"/>
<path d="M22.472 86.48V82.736H28.34C29.348 82.736 30.104 82.484 30.608 81.98C31.112 81.5 31.364 80.804 31.364 79.892V78.416L31.436 74.708H30.464L31.436 73.736C31.436 75.344 30.956 76.604 29.996 77.516C29.06 78.404 27.788 78.848 26.18 78.848C24.164 78.848 22.556 78.164 21.356 76.796C20.18 75.428 19.592 73.58 19.592 71.252V67.4C19.592 65.096 20.18 63.26 21.356 61.892C22.556 60.524 24.164 59.84 26.18 59.84C27.788 59.84 29.06 60.296 29.996 61.208C30.956 62.096 31.436 63.344 31.436 64.952L30.464 63.98H31.436L31.328 60.2H35.828V80C35.828 81.992 35.168 83.564 33.848 84.716C32.528 85.892 30.716 86.48 28.412 86.48H22.472ZM27.692 74.96C28.844 74.96 29.732 74.624 30.356 73.952C31.004 73.256 31.328 72.296 31.328 71.072V67.616C31.328 66.392 31.004 65.444 30.356 64.772C29.732 64.076 28.844 63.728 27.692 63.728C26.54 63.728 25.652 64.064 25.028 64.736C24.404 65.408 24.092 66.368 24.092 67.616V71.072C24.092 72.32 24.404 73.28 25.028 73.952C25.652 74.624 26.54 74.96 27.692 74.96ZM49.4219 80.36C47.7419 80.36 46.2779 80.036 45.0299 79.388C43.7819 78.74 42.8099 77.84 42.1139 76.688C41.4419 75.512 41.1059 74.144 41.1059 72.584V67.616C41.1059 66.056 41.4419 64.7 42.1139 63.548C42.8099 62.372 43.7819 61.46 45.0299 60.812C46.2779 60.164 47.7419 59.84 49.4219 59.84C51.0779 59.84 52.5179 60.164 53.7419 60.812C54.9899 61.46 55.9499 62.372 56.6219 63.548C57.3179 64.7 57.6659 66.056 57.6659 67.616V71.18H45.4619V72.584C45.4619 73.976 45.7979 75.032 46.4699 75.752C47.1419 76.448 48.1379 76.796 49.4579 76.796C50.4659 76.796 51.2819 76.628 51.9059 76.292C52.5299 75.932 52.9259 75.416 53.0939 74.744H57.5219C57.1859 76.448 56.2739 77.816 54.7859 78.848C53.3219 79.856 51.5339 80.36 49.4219 80.36ZM53.3099 68.66V67.58C53.3099 66.212 52.9859 65.168 52.3379 64.448C51.6899 63.704 50.7179 63.332 49.4219 63.332C48.1259 63.332 47.1419 63.704 46.4699 64.448C45.7979 65.192 45.4619 66.248 45.4619 67.616V68.372L53.6339 68.3L53.3099 68.66ZM73.1319 80C71.2359 80 69.7479 79.472 68.6679 78.416C67.6119 77.36 67.0839 75.908 67.0839 74.06V64.268H61.7199V60.2H67.0839V54.62H71.6199V60.2H79.2159V64.268H71.6199V74.06C71.6199 75.308 72.2319 75.932 73.4559 75.932H78.8559V80H73.1319ZM83.9178 84.968V80.9H101.198V84.968H83.9178ZM106.116 80V60.2H110.508V63.98H111.732L110.508 65.024C110.508 63.392 110.976 62.12 111.912 61.208C112.872 60.296 114.18 59.84 115.836 59.84C117.78 59.84 119.328 60.488 120.48 61.784C121.656 63.08 122.244 64.82 122.244 67.004V80H117.744V67.472C117.744 66.272 117.432 65.348 116.808 64.7C116.184 64.052 115.308 63.728 114.18 63.728C113.076 63.728 112.2 64.064 111.552 64.736C110.928 65.408 110.616 66.368 110.616 67.616V80H106.116ZM135.766 80.36C134.086 80.36 132.622 80.036 131.374 79.388C130.126 78.74 129.154 77.84 128.458 76.688C127.786 75.512 127.45 74.144 127.45 72.584V67.616C127.45 66.056 127.786 64.7 128.458 63.548C129.154 62.372 130.126 61.46 131.374 60.812C132.622 60.164 134.086 59.84 135.766 59.84C137.422 59.84 138.862 60.164 140.086 60.812C141.334 61.46 142.294 62.372 142.966 63.548C143.662 64.7 144.01 66.056 144.01 67.616V71.18H131.806V72.584C131.806 73.976 132.142 75.032 132.814 75.752C133.486 76.448 134.482 76.796 135.802 76.796C136.81 76.796 137.626 76.628 138.25 76.292C138.874 75.932 139.27 75.416 139.438 74.744H143.866C143.53 76.448 142.618 77.816 141.13 78.848C139.666 79.856 137.878 80.36 135.766 80.36ZM139.654 68.66V67.58C139.654 66.212 139.33 65.168 138.682 64.448C138.034 63.704 137.062 63.332 135.766 63.332C134.47 63.332 133.486 63.704 132.814 64.448C132.142 65.192 131.806 66.248 131.806 67.616V68.372L139.978 68.3L139.654 68.66ZM147.812 80L154.724 69.776L148.28 60.2H153.356L156.416 65.06C156.608 65.348 156.776 65.672 156.92 66.032C157.088 66.392 157.22 66.68 157.316 66.896C157.412 66.68 157.544 66.392 157.712 66.032C157.88 65.672 158.048 65.348 158.216 65.06L161.312 60.2H166.388L159.944 69.776L166.82 80H161.708L158.288 74.564C158.096 74.252 157.916 73.916 157.748 73.556C157.58 73.196 157.436 72.908 157.316 72.692C157.22 72.908 157.088 73.196 156.92 73.556C156.752 73.916 156.572 74.252 156.38 74.564L152.888 80H147.812ZM181.062 80C179.166 80 177.678 79.472 176.598 78.416C175.542 77.36 175.014 75.908 175.014 74.06V64.268H169.65V60.2H175.014V54.62H179.55V60.2H187.146V64.268H179.55V74.06C179.55 75.308 180.162 75.932 181.386 75.932H186.786V80H181.062ZM191.848 84.968V80.9H209.128V84.968H191.848ZM225.097 80C223.801 80 222.661 79.736 221.677 79.208C220.717 78.68 219.961 77.936 219.409 76.976C218.857 75.992 218.581 74.864 218.581 73.592V57.788H212.245V53.72H223.081V73.592C223.081 74.312 223.285 74.888 223.693 75.32C224.125 75.728 224.701 75.932 225.421 75.932H231.397V80H225.097ZM235.595 80V75.896H242.507V64.268H236.495V60.2H246.827V75.896H252.947V80H235.595ZM244.307 56.888C243.395 56.888 242.675 56.66 242.147 56.204C241.619 55.724 241.355 55.088 241.355 54.296C241.355 53.504 241.619 52.88 242.147 52.424C242.675 51.944 243.395 51.704 244.307 51.704C245.219 51.704 245.939 51.944 246.467 52.424C246.995 52.88 247.259 53.504 247.259 54.296C247.259 55.088 246.995 55.724 246.467 56.204C245.939 56.66 245.219 56.888 244.307 56.888ZM257.217 80V60.2H261.609V63.98H262.833L261.609 65.024C261.609 63.392 262.077 62.12 263.013 61.208C263.973 60.296 265.281 59.84 266.937 59.84C268.881 59.84 270.429 60.488 271.581 61.784C272.757 63.08 273.345 64.82 273.345 67.004V80H268.845V67.472C268.845 66.272 268.533 65.348 267.909 64.7C267.285 64.052 266.409 63.728 265.281 63.728C264.177 63.728 263.301 64.064 262.653 64.736C262.029 65.408 261.717 66.368 261.717 67.616V80H257.217ZM286.867 80.36C285.187 80.36 283.723 80.036 282.475 79.388C281.227 78.74 280.255 77.84 279.559 76.688C278.887 75.512 278.551 74.144 278.551 72.584V67.616C278.551 66.056 278.887 64.7 279.559 63.548C280.255 62.372 281.227 61.46 282.475 60.812C283.723 60.164 285.187 59.84 286.867 59.84C288.523 59.84 289.963 60.164 291.187 60.812C292.435 61.46 293.395 62.372 294.067 63.548C294.763 64.7 295.111 66.056 295.111 67.616V71.18H282.907V72.584C282.907 73.976 283.243 75.032 283.915 75.752C284.587 76.448 285.583 76.796 286.903 76.796C287.911 76.796 288.727 76.628 289.351 76.292C289.975 75.932 290.371 75.416 290.539 74.744H294.967C294.631 76.448 293.719 77.816 292.231 78.848C290.767 79.856 288.979 80.36 286.867 80.36ZM290.755 68.66V67.58C290.755 66.212 290.431 65.168 289.783 64.448C289.135 63.704 288.163 63.332 286.867 63.332C285.571 63.332 284.587 63.704 283.915 64.448C283.243 65.192 282.907 66.248 282.907 67.616V68.372L291.079 68.3L290.755 68.66Z" fill="#1E2025"/>
<path d="M468.5 59.5V54.676H456.98V47.152L466.844 33.22H472.964L462.02 48.664V49.996H468.5V44.38H473.9V59.5H468.5ZM479.106 59.5V54.424L487.458 46.36C488.442 45.4 489.174 44.512 489.654 43.696C490.158 42.88 490.41 41.992 490.41 41.032C490.41 39.976 490.122 39.16 489.546 38.584C488.994 38.008 488.226 37.72 487.242 37.72C486.162 37.72 485.31 38.044 484.686 38.692C484.086 39.316 483.786 40.192 483.786 41.32H478.386C478.386 39.592 478.746 38.104 479.466 36.856C480.21 35.584 481.254 34.6 482.598 33.904C483.942 33.208 485.526 32.86 487.35 32.86C489.054 32.86 490.53 33.184 491.778 33.832C493.05 34.456 494.034 35.332 494.73 36.46C495.45 37.588 495.81 38.92 495.81 40.456C495.81 42.16 495.39 43.792 494.55 45.352C493.71 46.912 492.366 48.544 490.518 50.248L485.766 54.64H496.098V59.5H479.106Z" fill="#1E2025"/>
<path d="M435.905 75.5V62.36H440.135C440.951 62.36 441.659 62.522 442.259 62.846C442.859 63.158 443.321 63.602 443.645 64.178C443.981 64.754 444.149 65.438 444.149 66.23C444.149 67.01 443.981 67.694 443.645 68.282C443.321 68.858 442.859 69.308 442.259 69.632C441.659 69.944 440.951 70.1 440.135 70.1H437.525V75.5H435.905ZM437.525 68.642H440.135C440.843 68.642 441.407 68.426 441.827 67.994C442.259 67.55 442.475 66.962 442.475 66.23C442.475 65.486 442.259 64.898 441.827 64.466C441.407 64.034 440.843 63.818 440.135 63.818H437.525V68.642ZM445.24 75.5V65.6H446.824V67.49H447.202L446.68 68.66C446.68 67.592 446.908 66.788 447.364 66.248C447.832 65.696 448.522 65.42 449.434 65.42C450.478 65.42 451.306 65.75 451.918 66.41C452.542 67.058 452.854 67.94 452.854 69.056V69.65H451.234V69.2C451.234 68.42 451.042 67.826 450.658 67.418C450.286 66.998 449.752 66.788 449.056 66.788C448.372 66.788 447.832 66.998 447.436 67.418C447.052 67.838 446.86 68.432 446.86 69.2V75.5H445.24ZM457.635 75.644C456.843 75.644 456.159 75.494 455.583 75.194C455.007 74.894 454.557 74.462 454.233 73.898C453.921 73.322 453.765 72.644 453.765 71.864V69.236C453.765 68.444 453.921 67.766 454.233 67.202C454.557 66.638 455.007 66.206 455.583 65.906C456.159 65.606 456.843 65.456 457.635 65.456C458.427 65.456 459.111 65.606 459.687 65.906C460.263 66.206 460.707 66.638 461.019 67.202C461.343 67.766 461.505 68.438 461.505 69.218V71.864C461.505 72.644 461.343 73.322 461.019 73.898C460.707 74.462 460.263 74.894 459.687 75.194C459.111 75.494 458.427 75.644 457.635 75.644ZM457.635 74.204C458.343 74.204 458.895 74.006 459.291 73.61C459.687 73.214 459.885 72.632 459.885 71.864V69.236C459.885 68.468 459.687 67.886 459.291 67.49C458.895 67.094 458.343 66.896 457.635 66.896C456.939 66.896 456.387 67.094 455.979 67.49C455.583 67.886 455.385 68.468 455.385 69.236V71.864C455.385 72.632 455.583 73.214 455.979 73.61C456.387 74.006 456.939 74.204 457.635 74.204ZM462.758 78.74V77.246H465.08C465.824 77.246 466.4 77.042 466.808 76.634C467.228 76.238 467.438 75.674 467.438 74.942V67.076H463.298V65.6H469.058V74.942C469.058 76.106 468.698 77.03 467.978 77.714C467.258 78.398 466.292 78.74 465.08 78.74H462.758ZM468.158 63.818C467.762 63.818 467.45 63.716 467.222 63.512C466.994 63.308 466.88 63.032 466.88 62.684C466.88 62.324 466.994 62.042 467.222 61.838C467.45 61.622 467.762 61.514 468.158 61.514C468.554 61.514 468.866 61.622 469.094 61.838C469.322 62.042 469.436 62.324 469.436 62.684C469.436 63.032 469.322 63.308 469.094 63.512C468.866 63.716 468.554 63.818 468.158 63.818ZM475.621 75.68C474.841 75.68 474.157 75.524 473.569 75.212C472.993 74.9 472.543 74.462 472.219 73.898C471.907 73.322 471.751 72.656 471.751 71.9V69.2C471.751 68.432 471.907 67.766 472.219 67.202C472.543 66.638 472.993 66.2 473.569 65.888C474.157 65.576 474.841 65.42 475.621 65.42C476.401 65.42 477.079 65.576 477.655 65.888C478.243 66.2 478.693 66.638 479.005 67.202C479.329 67.766 479.491 68.432 479.491 69.2V70.946H473.335V71.9C473.335 72.68 473.533 73.28 473.929 73.7C474.325 74.108 474.889 74.312 475.621 74.312C476.245 74.312 476.749 74.204 477.133 73.988C477.517 73.76 477.751 73.424 477.835 72.98H479.455C479.347 73.808 478.939 74.468 478.231 74.96C477.535 75.44 476.665 75.68 475.621 75.68ZM477.907 69.866V69.2C477.907 68.42 477.709 67.82 477.313 67.4C476.929 66.98 476.365 66.77 475.621 66.77C474.889 66.77 474.325 66.98 473.929 67.4C473.533 67.82 473.335 68.42 473.335 69.2V69.722H478.033L477.907 69.866ZM484.686 75.68C483.894 75.68 483.198 75.53 482.598 75.23C482.01 74.93 481.554 74.498 481.23 73.934C480.906 73.358 480.744 72.68 480.744 71.9V69.2C480.744 68.408 480.906 67.73 481.23 67.166C481.554 66.602 482.01 66.17 482.598 65.87C483.198 65.57 483.894 65.42 484.686 65.42C485.826 65.42 486.744 65.726 487.44 66.338C488.136 66.95 488.502 67.784 488.538 68.84H486.918C486.882 68.204 486.666 67.718 486.27 67.382C485.886 67.034 485.358 66.86 484.686 66.86C483.978 66.86 483.414 67.064 482.994 67.472C482.574 67.868 482.364 68.438 482.364 69.182V71.9C482.364 72.644 482.574 73.22 482.994 73.628C483.414 74.036 483.978 74.24 484.686 74.24C485.358 74.24 485.886 74.066 486.27 73.718C486.666 73.37 486.882 72.884 486.918 72.26H488.538C488.502 73.316 488.136 74.15 487.44 74.762C486.744 75.374 485.826 75.68 484.686 75.68ZM494.687 75.5C493.835 75.5 493.169 75.272 492.689 74.816C492.221 74.36 491.987 73.718 491.987 72.89V67.076H489.197V65.6H491.987V62.81H493.607V65.6H497.567V67.076H493.607V72.89C493.607 73.646 493.967 74.024 494.687 74.024H497.387V75.5H494.687Z" fill="#1E2025"/>
<path d="M0 7C0 3.13401 3.13401 0 7 0H509C512.866 0 516 3.13401 516 7H512C512 5.34315 510.657 4 509 4H7C5.34315 4 4 5.34315 4 7H0ZM516 101C516 104.866 512.866 108 509 108H7C3.13401 108 0 104.866 0 101L4 96C4 96 5.34315 96 7 96H509C510.657 96 512 96 512 96L516 101ZM7 108C3.13401 108 0 104.866 0 101V7C0 3.13401 3.13401 0 7 0V4C5.34315 4 4 5.34315 4 7V96C4 96 5.34315 96 7 96V108ZM509 0C512.866 0 516 3.13401 516 7V101C516 104.866 512.866 108 509 108V96C510.657 96 512 96 512 96V7C512 5.34315 510.657 4 509 4V0Z" fill="#1E2025" mask="url(#path-1-outside-1_3_120)"/>
</svg>
