<svg width="516" height="108" viewBox="0 0 516 108" fill="none" xmlns="http://www.w3.org/2000/svg">
<mask id="path-1-outside-1_3_120" maskUnits="userSpaceOnUse" x="0" y="0" width="516" height="108" fill="black">
<rect fill="white" width="516" height="108"/>
<path d="M2 7C2 4.23858 4.23858 2 7 2H509C511.761 2 514 4.23858 514 7V97C514 99.7614 511.761 102 509 102H7C4.23858 102 2 99.7614 2 97V7Z"/>
</mask>
<path d="M2 7C2 4.23858 4.23858 2 7 2H509C511.761 2 514 4.23858 514 7V97C514 99.7614 511.761 102 509 102H7C4.23858 102 2 99.7614 2 97V7Z" fill="white"/>
<path d="M19.736 80V75.896H26.648V64.268H20.636V60.2H30.968V75.896H37.088V80H19.736ZM28.448 56.888C27.536 56.888 26.816 56.66 26.288 56.204C25.76 55.724 25.496 55.088 25.496 54.296C25.496 53.504 25.76 52.88 26.288 52.424C26.816 51.944 27.536 51.704 28.448 51.704C29.36 51.704 30.08 51.944 30.608 52.424C31.136 52.88 31.4 53.504 31.4 54.296C31.4 55.088 31.136 55.724 30.608 56.204C30.08 56.66 29.36 56.888 28.448 56.888ZM41.3579 80V60.2H45.7499V63.98H46.9739L45.7499 65.024C45.7499 63.392 46.2179 62.12 47.1539 61.208C48.1139 60.296 49.4219 59.84 51.0779 59.84C53.0219 59.84 54.5699 60.488 55.7219 61.784C56.8979 63.08 57.4859 64.82 57.4859 67.004V80H52.9859V67.472C52.9859 66.272 52.6739 65.348 52.0499 64.7C51.4259 64.052 50.5499 63.728 49.4219 63.728C48.3179 63.728 47.4419 64.064 46.7939 64.736C46.1699 65.408 45.8579 66.368 45.8579 67.616V80H41.3579ZM71.0799 80.36C69.3999 80.36 67.9239 80.048 66.6519 79.424C65.4039 78.776 64.4319 77.876 63.7359 76.724C63.0399 75.548 62.6919 74.168 62.6919 72.584V67.616C62.6919 66.008 63.0399 64.628 63.7359 63.476C64.4319 62.324 65.4039 61.436 66.6519 60.812C67.9239 60.164 69.3999 59.84 71.0799 59.84C73.5759 59.84 75.5679 60.488 77.0559 61.784C78.5439 63.056 79.3239 64.796 79.3959 67.004H74.8959C74.8239 65.972 74.4519 65.18 73.7799 64.628C73.1319 64.052 72.2319 63.764 71.0799 63.764C69.8799 63.764 68.9319 64.1 68.2359 64.772C67.5399 65.42 67.1919 66.356 67.1919 67.58V72.584C67.1919 73.808 67.5399 74.756 68.2359 75.428C68.9319 76.1 69.8799 76.436 71.0799 76.436C72.2319 76.436 73.1319 76.16 73.7799 75.608C74.4519 75.032 74.8239 74.228 74.8959 73.196H79.3959C79.3239 75.404 78.5439 77.156 77.0559 78.452C75.5679 79.724 73.5759 80.36 71.0799 80.36ZM92.5938 80.36C90.9138 80.36 89.4498 80.036 88.2018 79.388C86.9538 78.74 85.9818 77.84 85.2858 76.688C84.6138 75.512 84.2778 74.144 84.2778 72.584V67.616C84.2778 66.056 84.6138 64.7 85.2858 63.548C85.9818 62.372 86.9538 61.46 88.2018 60.812C89.4498 60.164 90.9138 59.84 92.5938 59.84C94.2498 59.84 95.6898 60.164 96.9138 60.812C98.1618 61.46 99.1218 62.372 99.7938 63.548C100.49 64.7 100.838 66.056 100.838 67.616V71.18H88.6338V72.584C88.6338 73.976 88.9698 75.032 89.6418 75.752C90.3138 76.448 91.3098 76.796 92.6298 76.796C93.6378 76.796 94.4538 76.628 95.0778 76.292C95.7018 75.932 96.0978 75.416 96.2658 74.744H100.694C100.358 76.448 99.4458 77.816 97.9578 78.848C96.4938 79.856 94.7058 80.36 92.5938 80.36ZM96.4818 68.66V67.58C96.4818 66.212 96.1578 65.168 95.5098 64.448C94.8618 63.704 93.8898 63.332 92.5938 63.332C91.2978 63.332 90.3138 63.704 89.6418 64.448C88.9698 65.192 88.6338 66.248 88.6338 67.616V68.372L96.8058 68.3L96.4818 68.66ZM106.116 86.48V60.2H110.508V63.98H111.516L110.508 65.024C110.508 63.416 110.988 62.156 111.948 61.244C112.908 60.308 114.204 59.84 115.836 59.84C117.828 59.84 119.424 60.524 120.624 61.892C121.824 63.26 122.424 65.096 122.424 67.4V72.764C122.424 74.3 122.148 75.644 121.596 76.796C121.068 77.924 120.312 78.8 119.328 79.424C118.344 80.048 117.18 80.36 115.836 80.36C114.204 80.36 112.908 79.904 111.948 78.992C110.988 78.056 110.508 76.784 110.508 75.176L111.516 76.22H110.472L110.616 80.936V86.48H106.116ZM114.252 76.472C115.404 76.472 116.304 76.136 116.952 75.464C117.6 74.792 117.924 73.832 117.924 72.584V67.616C117.924 66.368 117.6 65.408 116.952 64.736C116.304 64.064 115.404 63.728 114.252 63.728C113.124 63.728 112.236 64.076 111.588 64.772C110.94 65.444 110.616 66.392 110.616 67.616V72.584C110.616 73.808 110.94 74.768 111.588 75.464C112.236 76.136 113.124 76.472 114.252 76.472ZM137.89 80C135.994 80 134.506 79.472 133.426 78.416C132.37 77.36 131.842 75.908 131.842 74.06V64.268H126.478V60.2H131.842V54.62H136.378V60.2H143.974V64.268H136.378V74.06C136.378 75.308 136.99 75.932 138.214 75.932H143.614V80H137.89ZM149.252 80V75.896H156.164V64.268H150.152V60.2H160.484V75.896H166.604V80H149.252ZM157.964 56.888C157.052 56.888 156.332 56.66 155.804 56.204C155.276 55.724 155.012 55.088 155.012 54.296C155.012 53.504 155.276 52.88 155.804 52.424C156.332 51.944 157.052 51.704 157.964 51.704C158.876 51.704 159.596 51.944 160.124 52.424C160.652 52.88 160.916 53.504 160.916 54.296C160.916 55.088 160.652 55.724 160.124 56.204C159.596 56.66 158.876 56.888 157.964 56.888ZM178.902 80.324C177.222 80.324 175.758 80.012 174.51 79.388C173.286 78.74 172.326 77.84 171.63 76.688C170.958 75.512 170.622 74.132 170.622 72.548V67.652C170.622 66.068 170.958 64.7 171.63 63.548C172.326 62.372 173.286 61.472 174.51 60.848C175.758 60.2 177.222 59.876 178.902 59.876C180.606 59.876 182.07 60.2 183.294 60.848C184.518 61.472 185.466 62.372 186.138 63.548C186.834 64.7 187.182 66.056 187.182 67.616V72.548C187.182 74.132 186.834 75.512 186.138 76.688C185.466 77.84 184.518 78.74 183.294 79.388C182.07 80.012 180.606 80.324 178.902 80.324ZM178.902 76.4C180.102 76.4 181.026 76.076 181.674 75.428C182.346 74.756 182.682 73.796 182.682 72.548V67.652C182.682 66.38 182.346 65.42 181.674 64.772C181.026 64.124 180.102 63.8 178.902 63.8C177.726 63.8 176.802 64.124 176.13 64.772C175.458 65.42 175.122 66.38 175.122 67.652V72.548C175.122 73.796 175.458 74.756 176.13 75.428C176.802 76.076 177.726 76.4 178.902 76.4ZM192.46 80V60.2H196.852V63.98H198.076L196.852 65.024C196.852 63.392 197.32 62.12 198.256 61.208C199.216 60.296 200.524 59.84 202.18 59.84C204.124 59.84 205.672 60.488 206.824 61.784C208 63.08 208.588 64.82 208.588 67.004V80H204.088V67.472C204.088 66.272 203.776 65.348 203.152 64.7C202.528 64.052 201.652 63.728 200.524 63.728C199.42 63.728 198.544 64.064 197.896 64.736C197.272 65.408 196.96 66.368 196.96 67.616V80H192.46Z" fill="#1E2025"/>
<path d="M468.5 59.5V54.676H456.98V47.152L466.844 33.22H472.964L462.02 48.664V49.996H468.5V44.38H473.9V59.5H468.5ZM479.106 59.5V54.424L487.458 46.36C488.442 45.4 489.174 44.512 489.654 43.696C490.158 42.88 490.41 41.992 490.41 41.032C490.41 39.976 490.122 39.16 489.546 38.584C488.994 38.008 488.226 37.72 487.242 37.72C486.162 37.72 485.31 38.044 484.686 38.692C484.086 39.316 483.786 40.192 483.786 41.32H478.386C478.386 39.592 478.746 38.104 479.466 36.856C480.21 35.584 481.254 34.6 482.598 33.904C483.942 33.208 485.526 32.86 487.35 32.86C489.054 32.86 490.53 33.184 491.778 33.832C493.05 34.456 494.034 35.332 494.73 36.46C495.45 37.588 495.81 38.92 495.81 40.456C495.81 42.16 495.39 43.792 494.55 45.352C493.71 46.912 492.366 48.544 490.518 50.248L485.766 54.64H496.098V59.5H479.106Z" fill="#1E2025"/>
<path d="M435.905 75.5V62.36H440.135C440.951 62.36 441.659 62.522 442.259 62.846C442.859 63.158 443.321 63.602 443.645 64.178C443.981 64.754 444.149 65.438 444.149 66.23C444.149 67.01 443.981 67.694 443.645 68.282C443.321 68.858 442.859 69.308 442.259 69.632C441.659 69.944 440.951 70.1 440.135 70.1H437.525V75.5H435.905ZM437.525 68.642H440.135C440.843 68.642 441.407 68.426 441.827 67.994C442.259 67.55 442.475 66.962 442.475 66.23C442.475 65.486 442.259 64.898 441.827 64.466C441.407 64.034 440.843 63.818 440.135 63.818H437.525V68.642ZM445.24 75.5V65.6H446.824V67.49H447.202L446.68 68.66C446.68 67.592 446.908 66.788 447.364 66.248C447.832 65.696 448.522 65.42 449.434 65.42C450.478 65.42 451.306 65.75 451.918 66.41C452.542 67.058 452.854 67.94 452.854 69.056V69.65H451.234V69.2C451.234 68.42 451.042 67.826 450.658 67.418C450.286 66.998 449.752 66.788 449.056 66.788C448.372 66.788 447.832 66.998 447.436 67.418C447.052 67.838 446.86 68.432 446.86 69.2V75.5H445.24ZM457.635 75.644C456.843 75.644 456.159 75.494 455.583 75.194C455.007 74.894 454.557 74.462 454.233 73.898C453.921 73.322 453.765 72.644 453.765 71.864V69.236C453.765 68.444 453.921 67.766 454.233 67.202C454.557 66.638 455.007 66.206 455.583 65.906C456.159 65.606 456.843 65.456 457.635 65.456C458.427 65.456 459.111 65.606 459.687 65.906C460.263 66.206 460.707 66.638 461.019 67.202C461.343 67.766 461.505 68.438 461.505 69.218V71.864C461.505 72.644 461.343 73.322 461.019 73.898C460.707 74.462 460.263 74.894 459.687 75.194C459.111 75.494 458.427 75.644 457.635 75.644ZM457.635 74.204C458.343 74.204 458.895 74.006 459.291 73.61C459.687 73.214 459.885 72.632 459.885 71.864V69.236C459.885 68.468 459.687 67.886 459.291 67.49C458.895 67.094 458.343 66.896 457.635 66.896C456.939 66.896 456.387 67.094 455.979 67.49C455.583 67.886 455.385 68.468 455.385 69.236V71.864C455.385 72.632 455.583 73.214 455.979 73.61C456.387 74.006 456.939 74.204 457.635 74.204ZM462.758 78.74V77.246H465.08C465.824 77.246 466.4 77.042 466.808 76.634C467.228 76.238 467.438 75.674 467.438 74.942V67.076H463.298V65.6H469.058V74.942C469.058 76.106 468.698 77.03 467.978 77.714C467.258 78.398 466.292 78.74 465.08 78.74H462.758ZM468.158 63.818C467.762 63.818 467.45 63.716 467.222 63.512C466.994 63.308 466.88 63.032 466.88 62.684C466.88 62.324 466.994 62.042 467.222 61.838C467.45 61.622 467.762 61.514 468.158 61.514C468.554 61.514 468.866 61.622 469.094 61.838C469.322 62.042 469.436 62.324 469.436 62.684C469.436 63.032 469.322 63.308 469.094 63.512C468.866 63.716 468.554 63.818 468.158 63.818ZM475.621 75.68C474.841 75.68 474.157 75.524 473.569 75.212C472.993 74.9 472.543 74.462 472.219 73.898C471.907 73.322 471.751 72.656 471.751 71.9V69.2C471.751 68.432 471.907 67.766 472.219 67.202C472.543 66.638 472.993 66.2 473.569 65.888C474.157 65.576 474.841 65.42 475.621 65.42C476.401 65.42 477.079 65.576 477.655 65.888C478.243 66.2 478.693 66.638 479.005 67.202C479.329 67.766 479.491 68.432 479.491 69.2V70.946H473.335V71.9C473.335 72.68 473.533 73.28 473.929 73.7C474.325 74.108 474.889 74.312 475.621 74.312C476.245 74.312 476.749 74.204 477.133 73.988C477.517 73.76 477.751 73.424 477.835 72.98H479.455C479.347 73.808 478.939 74.468 478.231 74.96C477.535 75.44 476.665 75.68 475.621 75.68ZM477.907 69.866V69.2C477.907 68.42 477.709 67.82 477.313 67.4C476.929 66.98 476.365 66.77 475.621 66.77C474.889 66.77 474.325 66.98 473.929 67.4C473.533 67.82 473.335 68.42 473.335 69.2V69.722H478.033L477.907 69.866ZM484.686 75.68C483.894 75.68 483.198 75.53 482.598 75.23C482.01 74.93 481.554 74.498 481.23 73.934C480.906 73.358 480.744 72.68 480.744 71.9V69.2C480.744 68.408 480.906 67.73 481.23 67.166C481.554 66.602 482.01 66.17 482.598 65.87C483.198 65.57 483.894 65.42 484.686 65.42C485.826 65.42 486.744 65.726 487.44 66.338C488.136 66.95 488.502 67.784 488.538 68.84H486.918C486.882 68.204 486.666 67.718 486.27 67.382C485.886 67.034 485.358 66.86 484.686 66.86C483.978 66.86 483.414 67.064 482.994 67.472C482.574 67.868 482.364 68.438 482.364 69.182V71.9C482.364 72.644 482.574 73.22 482.994 73.628C483.414 74.036 483.978 74.24 484.686 74.24C485.358 74.24 485.886 74.066 486.27 73.718C486.666 73.37 486.882 72.884 486.918 72.26H488.538C488.502 73.316 488.136 74.15 487.44 74.762C486.744 75.374 485.826 75.68 484.686 75.68ZM494.687 75.5C493.835 75.5 493.169 75.272 492.689 74.816C492.221 74.36 491.987 73.718 491.987 72.89V67.076H489.197V65.6H491.987V62.81H493.607V65.6H497.567V67.076H493.607V72.89C493.607 73.646 493.967 74.024 494.687 74.024H497.387V75.5H494.687Z" fill="#1E2025"/>
<path d="M0 7C0 3.13401 3.13401 0 7 0H509C512.866 0 516 3.13401 516 7H512C512 5.34315 510.657 4 509 4H7C5.34315 4 4 5.34315 4 7H0ZM516 101C516 104.866 512.866 108 509 108H7C3.13401 108 0 104.866 0 101L4 96C4 96 5.34315 96 7 96H509C510.657 96 512 96 512 96L516 101ZM7 108C3.13401 108 0 104.866 0 101V7C0 3.13401 3.13401 0 7 0V4C5.34315 4 4 5.34315 4 7V96C4 96 5.34315 96 7 96V108ZM509 0C512.866 0 516 3.13401 516 7V101C516 104.866 512.866 108 509 108V96C510.657 96 512 96 512 96V7C512 5.34315 510.657 4 509 4V0Z" fill="#1E2025" mask="url(#path-1-outside-1_3_120)"/>
</svg>
