<svg width="516" height="108" viewBox="0 0 516 108" fill="none" xmlns="http://www.w3.org/2000/svg">
<mask id="path-1-outside-1_3_120" maskUnits="userSpaceOnUse" x="0" y="0" width="516" height="108" fill="black">
<rect fill="white" width="516" height="108"/>
<path d="M2 7C2 4.23858 4.23858 2 7 2H509C511.761 2 514 4.23858 514 7V97C514 99.7614 511.761 102 509 102H7C4.23858 102 2 99.7614 2 97V7Z"/>
</mask>
<path d="M2 7C2 4.23858 4.23858 2 7 2H509C511.761 2 514 4.23858 514 7V97C514 99.7614 511.761 102 509 102H7C4.23858 102 2 99.7614 2 97V7Z" fill="white"/>
<path d="M18.872 80V60.2H22.544V62.864H23.3L22.688 63.512C22.688 62.408 23 61.52 23.624 60.848C24.248 60.176 25.052 59.84 26.036 59.84C27.092 59.84 27.908 60.272 28.484 61.136C29.084 62 29.384 63.164 29.384 64.628L28.592 62.864H29.816L29.348 63.512C29.348 62.408 29.66 61.52 30.284 60.848C30.908 60.176 31.736 59.84 32.768 59.84C33.992 59.84 34.964 60.296 35.684 61.208C36.404 62.12 36.764 63.356 36.764 64.916V80H32.804V65.096C32.804 64.448 32.66 63.944 32.372 63.584C32.084 63.2 31.664 63.008 31.112 63.008C30.584 63.008 30.164 63.188 29.852 63.548C29.564 63.908 29.42 64.424 29.42 65.096V80H26.18V65.096C26.18 64.424 26.036 63.908 25.748 63.548C25.46 63.188 25.04 63.008 24.488 63.008C23.936 63.008 23.516 63.188 23.228 63.548C22.964 63.908 22.832 64.424 22.832 65.096V80H18.872ZM41.3219 80V75.896H48.2339V64.268H42.2219V60.2H52.5539V75.896H58.6739V80H41.3219ZM50.0339 56.888C49.1219 56.888 48.4019 56.66 47.8739 56.204C47.3459 55.724 47.0819 55.088 47.0819 54.296C47.0819 53.504 47.3459 52.88 47.8739 52.424C48.4019 51.944 49.1219 51.704 50.0339 51.704C50.9459 51.704 51.6659 51.944 52.1939 52.424C52.7219 52.88 52.9859 53.504 52.9859 54.296C52.9859 55.088 52.7219 55.724 52.1939 56.204C51.6659 56.66 50.9459 56.888 50.0339 56.888ZM62.9439 80V60.2H67.3359V63.98H68.5599L67.3359 65.024C67.3359 63.392 67.8039 62.12 68.7399 61.208C69.6999 60.296 71.0079 59.84 72.6639 59.84C74.6079 59.84 76.1559 60.488 77.3079 61.784C78.4839 63.08 79.0719 64.82 79.0719 67.004V80H74.5719V67.472C74.5719 66.272 74.2599 65.348 73.6359 64.7C73.0119 64.052 72.1359 63.728 71.0079 63.728C69.9039 63.728 69.0279 64.064 68.3799 64.736C67.7559 65.408 67.4439 66.368 67.4439 67.616V80H62.9439ZM84.4938 80V75.896H91.4058V64.268H85.3938V60.2H95.7258V75.896H101.846V80H84.4938ZM93.2058 56.888C92.2938 56.888 91.5738 56.66 91.0458 56.204C90.5178 55.724 90.2538 55.088 90.2538 54.296C90.2538 53.504 90.5178 52.88 91.0458 52.424C91.5738 51.944 92.2938 51.704 93.2058 51.704C94.1178 51.704 94.8378 51.944 95.3658 52.424C95.8938 52.88 96.1578 53.504 96.1578 54.296C96.1578 55.088 95.8938 55.724 95.3658 56.204C94.8378 56.66 94.1178 56.888 93.2058 56.888ZM113.388 80.324C111.876 80.324 110.556 80.084 109.428 79.604C108.3 79.124 107.412 78.464 106.764 77.624C106.14 76.76 105.804 75.752 105.756 74.6H110.256C110.304 75.224 110.604 75.728 111.156 76.112C111.732 76.496 112.476 76.688 113.388 76.688H114.972C116.076 76.688 116.904 76.472 117.456 76.04C118.008 75.608 118.284 75.02 118.284 74.276C118.284 73.58 118.032 73.04 117.528 72.656C117.048 72.248 116.292 71.984 115.26 71.864L112.812 71.504C110.556 71.192 108.9 70.592 107.844 69.704C106.788 68.816 106.26 67.484 106.26 65.708C106.26 63.86 106.884 62.432 108.132 61.424C109.38 60.392 111.216 59.876 113.64 59.876H115.008C117.216 59.876 118.98 60.368 120.3 61.352C121.62 62.336 122.328 63.656 122.424 65.312H117.924C117.852 64.784 117.552 64.352 117.024 64.016C116.52 63.68 115.848 63.512 115.008 63.512H113.64C112.608 63.512 111.852 63.704 111.372 64.088C110.916 64.448 110.688 64.988 110.688 65.708C110.688 66.38 110.892 66.884 111.3 67.22C111.708 67.532 112.368 67.76 113.28 67.904L115.836 68.264C118.188 68.6 119.916 69.236 121.02 70.172C122.148 71.084 122.712 72.44 122.712 74.24C122.712 76.16 122.052 77.66 120.732 78.74C119.436 79.796 117.516 80.324 114.972 80.324H113.388ZM127.702 80V53.72H132.202V60.2L132.094 63.98H133.318L132.094 65.024C132.094 63.392 132.562 62.12 133.498 61.208C134.458 60.296 135.766 59.84 137.422 59.84C139.366 59.84 140.914 60.488 142.066 61.784C143.242 63.08 143.83 64.82 143.83 67.004V80H139.33V67.472C139.33 66.272 139.018 65.348 138.394 64.7C137.77 64.052 136.894 63.728 135.766 63.728C134.662 63.728 133.786 64.064 133.138 64.736C132.514 65.408 132.202 66.368 132.202 67.616V80H127.702ZM157.352 80.36C155.672 80.36 154.208 80.036 152.96 79.388C151.712 78.74 150.74 77.84 150.044 76.688C149.372 75.512 149.036 74.144 149.036 72.584V67.616C149.036 66.056 149.372 64.7 150.044 63.548C150.74 62.372 151.712 61.46 152.96 60.812C154.208 60.164 155.672 59.84 157.352 59.84C159.008 59.84 160.448 60.164 161.672 60.812C162.92 61.46 163.88 62.372 164.552 63.548C165.248 64.7 165.596 66.056 165.596 67.616V71.18H153.392V72.584C153.392 73.976 153.728 75.032 154.4 75.752C155.072 76.448 156.068 76.796 157.388 76.796C158.396 76.796 159.212 76.628 159.836 76.292C160.46 75.932 160.856 75.416 161.024 74.744H165.452C165.116 76.448 164.204 77.816 162.716 78.848C161.252 79.856 159.464 80.36 157.352 80.36ZM161.24 68.66V67.58C161.24 66.212 160.916 65.168 160.268 64.448C159.62 63.704 158.648 63.332 157.352 63.332C156.056 63.332 155.072 63.704 154.4 64.448C153.728 65.192 153.392 66.248 153.392 67.616V68.372L161.564 68.3L161.24 68.66ZM181.926 80C180.63 80 179.49 79.736 178.506 79.208C177.546 78.68 176.79 77.936 176.238 76.976C175.686 75.992 175.41 74.864 175.41 73.592V57.788H169.074V53.72H179.91V73.592C179.91 74.312 180.114 74.888 180.522 75.32C180.954 75.728 181.53 75.932 182.25 75.932H188.226V80H181.926ZM203.512 80C202.216 80 201.076 79.736 200.092 79.208C199.132 78.68 198.376 77.936 197.824 76.976C197.272 75.992 196.996 74.864 196.996 73.592V57.788H190.66V53.72H201.496V73.592C201.496 74.312 201.7 74.888 202.108 75.32C202.54 75.728 203.116 75.932 203.836 75.932H209.812V80H203.512Z" fill="#1E2025"/>
<path d="M468.5 59.5V54.676H456.98V47.152L466.844 33.22H472.964L462.02 48.664V49.996H468.5V44.38H473.9V59.5H468.5ZM479.106 59.5V54.424L487.458 46.36C488.442 45.4 489.174 44.512 489.654 43.696C490.158 42.88 490.41 41.992 490.41 41.032C490.41 39.976 490.122 39.16 489.546 38.584C488.994 38.008 488.226 37.72 487.242 37.72C486.162 37.72 485.31 38.044 484.686 38.692C484.086 39.316 483.786 40.192 483.786 41.32H478.386C478.386 39.592 478.746 38.104 479.466 36.856C480.21 35.584 481.254 34.6 482.598 33.904C483.942 33.208 485.526 32.86 487.35 32.86C489.054 32.86 490.53 33.184 491.778 33.832C493.05 34.456 494.034 35.332 494.73 36.46C495.45 37.588 495.81 38.92 495.81 40.456C495.81 42.16 495.39 43.792 494.55 45.352C493.71 46.912 492.366 48.544 490.518 50.248L485.766 54.64H496.098V59.5H479.106Z" fill="#1E2025"/>
<path d="M435.905 75.5V62.36H440.135C440.951 62.36 441.659 62.522 442.259 62.846C442.859 63.158 443.321 63.602 443.645 64.178C443.981 64.754 444.149 65.438 444.149 66.23C444.149 67.01 443.981 67.694 443.645 68.282C443.321 68.858 442.859 69.308 442.259 69.632C441.659 69.944 440.951 70.1 440.135 70.1H437.525V75.5H435.905ZM437.525 68.642H440.135C440.843 68.642 441.407 68.426 441.827 67.994C442.259 67.55 442.475 66.962 442.475 66.23C442.475 65.486 442.259 64.898 441.827 64.466C441.407 64.034 440.843 63.818 440.135 63.818H437.525V68.642ZM445.24 75.5V65.6H446.824V67.49H447.202L446.68 68.66C446.68 67.592 446.908 66.788 447.364 66.248C447.832 65.696 448.522 65.42 449.434 65.42C450.478 65.42 451.306 65.75 451.918 66.41C452.542 67.058 452.854 67.94 452.854 69.056V69.65H451.234V69.2C451.234 68.42 451.042 67.826 450.658 67.418C450.286 66.998 449.752 66.788 449.056 66.788C448.372 66.788 447.832 66.998 447.436 67.418C447.052 67.838 446.86 68.432 446.86 69.2V75.5H445.24ZM457.635 75.644C456.843 75.644 456.159 75.494 455.583 75.194C455.007 74.894 454.557 74.462 454.233 73.898C453.921 73.322 453.765 72.644 453.765 71.864V69.236C453.765 68.444 453.921 67.766 454.233 67.202C454.557 66.638 455.007 66.206 455.583 65.906C456.159 65.606 456.843 65.456 457.635 65.456C458.427 65.456 459.111 65.606 459.687 65.906C460.263 66.206 460.707 66.638 461.019 67.202C461.343 67.766 461.505 68.438 461.505 69.218V71.864C461.505 72.644 461.343 73.322 461.019 73.898C460.707 74.462 460.263 74.894 459.687 75.194C459.111 75.494 458.427 75.644 457.635 75.644ZM457.635 74.204C458.343 74.204 458.895 74.006 459.291 73.61C459.687 73.214 459.885 72.632 459.885 71.864V69.236C459.885 68.468 459.687 67.886 459.291 67.49C458.895 67.094 458.343 66.896 457.635 66.896C456.939 66.896 456.387 67.094 455.979 67.49C455.583 67.886 455.385 68.468 455.385 69.236V71.864C455.385 72.632 455.583 73.214 455.979 73.61C456.387 74.006 456.939 74.204 457.635 74.204ZM462.758 78.74V77.246H465.08C465.824 77.246 466.4 77.042 466.808 76.634C467.228 76.238 467.438 75.674 467.438 74.942V67.076H463.298V65.6H469.058V74.942C469.058 76.106 468.698 77.03 467.978 77.714C467.258 78.398 466.292 78.74 465.08 78.74H462.758ZM468.158 63.818C467.762 63.818 467.45 63.716 467.222 63.512C466.994 63.308 466.88 63.032 466.88 62.684C466.88 62.324 466.994 62.042 467.222 61.838C467.45 61.622 467.762 61.514 468.158 61.514C468.554 61.514 468.866 61.622 469.094 61.838C469.322 62.042 469.436 62.324 469.436 62.684C469.436 63.032 469.322 63.308 469.094 63.512C468.866 63.716 468.554 63.818 468.158 63.818ZM475.621 75.68C474.841 75.68 474.157 75.524 473.569 75.212C472.993 74.9 472.543 74.462 472.219 73.898C471.907 73.322 471.751 72.656 471.751 71.9V69.2C471.751 68.432 471.907 67.766 472.219 67.202C472.543 66.638 472.993 66.2 473.569 65.888C474.157 65.576 474.841 65.42 475.621 65.42C476.401 65.42 477.079 65.576 477.655 65.888C478.243 66.2 478.693 66.638 479.005 67.202C479.329 67.766 479.491 68.432 479.491 69.2V70.946H473.335V71.9C473.335 72.68 473.533 73.28 473.929 73.7C474.325 74.108 474.889 74.312 475.621 74.312C476.245 74.312 476.749 74.204 477.133 73.988C477.517 73.76 477.751 73.424 477.835 72.98H479.455C479.347 73.808 478.939 74.468 478.231 74.96C477.535 75.44 476.665 75.68 475.621 75.68ZM477.907 69.866V69.2C477.907 68.42 477.709 67.82 477.313 67.4C476.929 66.98 476.365 66.77 475.621 66.77C474.889 66.77 474.325 66.98 473.929 67.4C473.533 67.82 473.335 68.42 473.335 69.2V69.722H478.033L477.907 69.866ZM484.686 75.68C483.894 75.68 483.198 75.53 482.598 75.23C482.01 74.93 481.554 74.498 481.23 73.934C480.906 73.358 480.744 72.68 480.744 71.9V69.2C480.744 68.408 480.906 67.73 481.23 67.166C481.554 66.602 482.01 66.17 482.598 65.87C483.198 65.57 483.894 65.42 484.686 65.42C485.826 65.42 486.744 65.726 487.44 66.338C488.136 66.95 488.502 67.784 488.538 68.84H486.918C486.882 68.204 486.666 67.718 486.27 67.382C485.886 67.034 485.358 66.86 484.686 66.86C483.978 66.86 483.414 67.064 482.994 67.472C482.574 67.868 482.364 68.438 482.364 69.182V71.9C482.364 72.644 482.574 73.22 482.994 73.628C483.414 74.036 483.978 74.24 484.686 74.24C485.358 74.24 485.886 74.066 486.27 73.718C486.666 73.37 486.882 72.884 486.918 72.26H488.538C488.502 73.316 488.136 74.15 487.44 74.762C486.744 75.374 485.826 75.68 484.686 75.68ZM494.687 75.5C493.835 75.5 493.169 75.272 492.689 74.816C492.221 74.36 491.987 73.718 491.987 72.89V67.076H489.197V65.6H491.987V62.81H493.607V65.6H497.567V67.076H493.607V72.89C493.607 73.646 493.967 74.024 494.687 74.024H497.387V75.5H494.687Z" fill="#1E2025"/>
<path d="M0 7C0 3.13401 3.13401 0 7 0H509C512.866 0 516 3.13401 516 7H512C512 5.34315 510.657 4 509 4H7C5.34315 4 4 5.34315 4 7H0ZM516 101C516 104.866 512.866 108 509 108H7C3.13401 108 0 104.866 0 101L4 96C4 96 5.34315 96 7 96H509C510.657 96 512 96 512 96L516 101ZM7 108C3.13401 108 0 104.866 0 101V7C0 3.13401 3.13401 0 7 0V4C5.34315 4 4 5.34315 4 7V96C4 96 5.34315 96 7 96V108ZM509 0C512.866 0 516 3.13401 516 7V101C516 104.866 512.866 108 509 108V96C510.657 96 512 96 512 96V7C512 5.34315 510.657 4 509 4V0Z" fill="#1E2025" mask="url(#path-1-outside-1_3_120)"/>
</svg>
