<svg width="516" height="108" viewBox="0 0 516 108" fill="none" xmlns="http://www.w3.org/2000/svg">
<mask id="path-1-outside-1_3_120" maskUnits="userSpaceOnUse" x="0" y="0" width="516" height="108" fill="black">
<rect fill="white" width="516" height="108"/>
<path d="M2 7C2 4.23858 4.23858 2 7 2H509C511.761 2 514 4.23858 514 7V97C514 99.7614 511.761 102 509 102H7C4.23858 102 2 99.7614 2 97V7Z"/>
</mask>
<path d="M2 7C2 4.23858 4.23858 2 7 2H509C511.761 2 514 4.23858 514 7V97C514 99.7614 511.761 102 509 102H7C4.23858 102 2 99.7614 2 97V7Z" fill="white"/>
<path d="M19.772 80V60.2H24.164V63.98H25.388L24.164 65.024C24.164 63.392 24.632 62.12 25.568 61.208C26.528 60.296 27.836 59.84 29.492 59.84C31.436 59.84 32.984 60.488 34.136 61.784C35.312 63.08 35.9 64.82 35.9 67.004V80H31.4V67.472C31.4 66.272 31.088 65.348 30.464 64.7C29.84 64.052 28.964 63.728 27.836 63.728C26.732 63.728 25.856 64.064 25.208 64.736C24.584 65.408 24.272 66.368 24.272 67.616V80H19.772ZM49.4219 80.36C47.7419 80.36 46.2779 80.036 45.0299 79.388C43.7819 78.74 42.8099 77.84 42.1139 76.688C41.4419 75.512 41.1059 74.144 41.1059 72.584V67.616C41.1059 66.056 41.4419 64.7 42.1139 63.548C42.8099 62.372 43.7819 61.46 45.0299 60.812C46.2779 60.164 47.7419 59.84 49.4219 59.84C51.0779 59.84 52.5179 60.164 53.7419 60.812C54.9899 61.46 55.9499 62.372 56.6219 63.548C57.3179 64.7 57.6659 66.056 57.6659 67.616V71.18H45.4619V72.584C45.4619 73.976 45.7979 75.032 46.4699 75.752C47.1419 76.448 48.1379 76.796 49.4579 76.796C50.4659 76.796 51.2819 76.628 51.9059 76.292C52.5299 75.932 52.9259 75.416 53.0939 74.744H57.5219C57.1859 76.448 56.2739 77.816 54.7859 78.848C53.3219 79.856 51.5339 80.36 49.4219 80.36ZM53.3099 68.66V67.58C53.3099 66.212 52.9859 65.168 52.3379 64.448C51.6899 63.704 50.7179 63.332 49.4219 63.332C48.1259 63.332 47.1419 63.704 46.4699 64.448C45.7979 65.192 45.4619 66.248 45.4619 67.616V68.372L53.6339 68.3L53.3099 68.66ZM73.1319 80C71.2359 80 69.7479 79.472 68.6679 78.416C67.6119 77.36 67.0839 75.908 67.0839 74.06V64.268H61.7199V60.2H67.0839V54.62H71.6199V60.2H79.2159V64.268H71.6199V74.06C71.6199 75.308 72.2319 75.932 73.4559 75.932H78.8559V80H73.1319ZM84.5298 86.48V60.2H88.9218V63.98H89.9298L88.9218 65.024C88.9218 63.416 89.4018 62.156 90.3618 61.244C91.3218 60.308 92.6178 59.84 94.2498 59.84C96.2418 59.84 97.8378 60.524 99.0378 61.892C100.238 63.26 100.838 65.096 100.838 67.4V72.764C100.838 74.3 100.562 75.644 100.01 76.796C99.4818 77.924 98.7258 78.8 97.7418 79.424C96.7578 80.048 95.5938 80.36 94.2498 80.36C92.6178 80.36 91.3218 79.904 90.3618 78.992C89.4018 78.056 88.9218 76.784 88.9218 75.176L89.9298 76.22H88.8858L89.0298 80.936V86.48H84.5298ZM92.6658 76.472C93.8178 76.472 94.7178 76.136 95.3658 75.464C96.0138 74.792 96.3378 73.832 96.3378 72.584V67.616C96.3378 66.368 96.0138 65.408 95.3658 64.736C94.7178 64.064 93.8178 63.728 92.6658 63.728C91.5378 63.728 90.6498 64.076 90.0018 64.772C89.3538 65.444 89.0298 66.392 89.0298 67.616V72.584C89.0298 73.808 89.3538 74.768 90.0018 75.464C90.6498 76.136 91.5378 76.472 92.6658 76.472ZM106.728 80V60.2H110.976V63.98H112.092L110.76 66.284C110.76 64.148 111.24 62.54 112.2 61.46C113.16 60.38 114.576 59.84 116.448 59.84C118.584 59.84 120.264 60.5 121.488 61.82C122.712 63.14 123.324 64.964 123.324 67.292V68.732H118.608V67.616C118.608 66.344 118.272 65.36 117.6 64.664C116.952 63.968 116.052 63.62 114.9 63.62C113.724 63.62 112.812 63.968 112.164 64.664C111.54 65.36 111.228 66.344 111.228 67.616V80H106.728ZM133.534 80.36C131.494 80.36 129.886 79.82 128.71 78.74C127.534 77.66 126.946 76.208 126.946 74.384C126.946 72.44 127.594 70.94 128.89 69.884C130.186 68.828 132.022 68.3 134.398 68.3H139.33V66.608C139.33 65.648 139.018 64.904 138.394 64.376C137.77 63.824 136.918 63.548 135.838 63.548C134.854 63.548 134.038 63.764 133.39 64.196C132.742 64.628 132.358 65.216 132.238 65.96H127.846C128.062 64.088 128.902 62.6 130.366 61.496C131.83 60.392 133.702 59.84 135.982 59.84C138.406 59.84 140.314 60.452 141.706 61.676C143.122 62.876 143.83 64.508 143.83 66.572V80H139.474V76.544H138.754L139.474 75.572C139.474 77.036 138.934 78.2 137.854 79.064C136.774 79.928 135.334 80.36 133.534 80.36ZM135.01 76.976C136.282 76.976 137.314 76.652 138.106 76.004C138.922 75.356 139.33 74.516 139.33 73.484V71.072H134.47C133.558 71.072 132.826 71.336 132.274 71.864C131.722 72.392 131.446 73.088 131.446 73.952C131.446 74.888 131.758 75.632 132.382 76.184C133.03 76.712 133.906 76.976 135.01 76.976ZM157.424 80.36C155.744 80.36 154.268 80.048 152.996 79.424C151.748 78.776 150.776 77.876 150.08 76.724C149.384 75.548 149.036 74.168 149.036 72.584V67.616C149.036 66.008 149.384 64.628 150.08 63.476C150.776 62.324 151.748 61.436 152.996 60.812C154.268 60.164 155.744 59.84 157.424 59.84C159.92 59.84 161.912 60.488 163.4 61.784C164.888 63.056 165.668 64.796 165.74 67.004H161.24C161.168 65.972 160.796 65.18 160.124 64.628C159.476 64.052 158.576 63.764 157.424 63.764C156.224 63.764 155.276 64.1 154.58 64.772C153.884 65.42 153.536 66.356 153.536 67.58V72.584C153.536 73.808 153.884 74.756 154.58 75.428C155.276 76.1 156.224 76.436 157.424 76.436C158.576 76.436 159.476 76.16 160.124 75.608C160.796 75.032 161.168 74.228 161.24 73.196H165.74C165.668 75.404 164.888 77.156 163.4 78.452C161.912 79.724 159.92 80.36 157.424 80.36ZM181.062 80C179.166 80 177.678 79.472 176.598 78.416C175.542 77.36 175.014 75.908 175.014 74.06V64.268H169.65V60.2H175.014V54.62H179.55V60.2H187.146V64.268H179.55V74.06C179.55 75.308 180.162 75.932 181.386 75.932H186.786V80H181.062ZM192.424 80V75.896H199.336V64.268H193.324V60.2H203.656V75.896H209.776V80H192.424ZM201.136 56.888C200.224 56.888 199.504 56.66 198.976 56.204C198.448 55.724 198.184 55.088 198.184 54.296C198.184 53.504 198.448 52.88 198.976 52.424C199.504 51.944 200.224 51.704 201.136 51.704C202.048 51.704 202.768 51.944 203.296 52.424C203.824 52.88 204.088 53.504 204.088 54.296C204.088 55.088 203.824 55.724 203.296 56.204C202.768 56.66 202.048 56.888 201.136 56.888ZM222.181 80.36C220.501 80.36 219.025 80.048 217.753 79.424C216.505 78.776 215.533 77.876 214.837 76.724C214.141 75.548 213.793 74.168 213.793 72.584V67.616C213.793 66.008 214.141 64.628 214.837 63.476C215.533 62.324 216.505 61.436 217.753 60.812C219.025 60.164 220.501 59.84 222.181 59.84C224.677 59.84 226.669 60.488 228.157 61.784C229.645 63.056 230.425 64.796 230.497 67.004H225.997C225.925 65.972 225.553 65.18 224.881 64.628C224.233 64.052 223.333 63.764 222.181 63.764C220.981 63.764 220.033 64.1 219.337 64.772C218.641 65.42 218.293 66.356 218.293 67.58V72.584C218.293 73.808 218.641 74.756 219.337 75.428C220.033 76.1 220.981 76.436 222.181 76.436C223.333 76.436 224.233 76.16 224.881 75.608C225.553 75.032 225.925 74.228 225.997 73.196H230.497C230.425 75.404 229.645 77.156 228.157 78.452C226.669 79.724 224.677 80.36 222.181 80.36ZM243.695 80.36C242.015 80.36 240.551 80.036 239.303 79.388C238.055 78.74 237.083 77.84 236.387 76.688C235.715 75.512 235.379 74.144 235.379 72.584V67.616C235.379 66.056 235.715 64.7 236.387 63.548C237.083 62.372 238.055 61.46 239.303 60.812C240.551 60.164 242.015 59.84 243.695 59.84C245.351 59.84 246.791 60.164 248.015 60.812C249.263 61.46 250.223 62.372 250.895 63.548C251.591 64.7 251.939 66.056 251.939 67.616V71.18H239.735V72.584C239.735 73.976 240.071 75.032 240.743 75.752C241.415 76.448 242.411 76.796 243.731 76.796C244.739 76.796 245.555 76.628 246.179 76.292C246.803 75.932 247.199 75.416 247.367 74.744H251.795C251.459 76.448 250.547 77.816 249.059 78.848C247.595 79.856 245.807 80.36 243.695 80.36ZM247.583 68.66V67.58C247.583 66.212 247.259 65.168 246.611 64.448C245.963 63.704 244.991 63.332 243.695 63.332C242.399 63.332 241.415 63.704 240.743 64.448C240.071 65.192 239.735 66.248 239.735 67.616V68.372L247.907 68.3L247.583 68.66Z" fill="#1E2025"/>
<path d="M468.5 59.5V54.676H456.98V47.152L466.844 33.22H472.964L462.02 48.664V49.996H468.5V44.38H473.9V59.5H468.5ZM479.106 59.5V54.424L487.458 46.36C488.442 45.4 489.174 44.512 489.654 43.696C490.158 42.88 490.41 41.992 490.41 41.032C490.41 39.976 490.122 39.16 489.546 38.584C488.994 38.008 488.226 37.72 487.242 37.72C486.162 37.72 485.31 38.044 484.686 38.692C484.086 39.316 483.786 40.192 483.786 41.32H478.386C478.386 39.592 478.746 38.104 479.466 36.856C480.21 35.584 481.254 34.6 482.598 33.904C483.942 33.208 485.526 32.86 487.35 32.86C489.054 32.86 490.53 33.184 491.778 33.832C493.05 34.456 494.034 35.332 494.73 36.46C495.45 37.588 495.81 38.92 495.81 40.456C495.81 42.16 495.39 43.792 494.55 45.352C493.71 46.912 492.366 48.544 490.518 50.248L485.766 54.64H496.098V59.5H479.106Z" fill="#1E2025"/>
<path d="M435.905 75.5V62.36H440.135C440.951 62.36 441.659 62.522 442.259 62.846C442.859 63.158 443.321 63.602 443.645 64.178C443.981 64.754 444.149 65.438 444.149 66.23C444.149 67.01 443.981 67.694 443.645 68.282C443.321 68.858 442.859 69.308 442.259 69.632C441.659 69.944 440.951 70.1 440.135 70.1H437.525V75.5H435.905ZM437.525 68.642H440.135C440.843 68.642 441.407 68.426 441.827 67.994C442.259 67.55 442.475 66.962 442.475 66.23C442.475 65.486 442.259 64.898 441.827 64.466C441.407 64.034 440.843 63.818 440.135 63.818H437.525V68.642ZM445.24 75.5V65.6H446.824V67.49H447.202L446.68 68.66C446.68 67.592 446.908 66.788 447.364 66.248C447.832 65.696 448.522 65.42 449.434 65.42C450.478 65.42 451.306 65.75 451.918 66.41C452.542 67.058 452.854 67.94 452.854 69.056V69.65H451.234V69.2C451.234 68.42 451.042 67.826 450.658 67.418C450.286 66.998 449.752 66.788 449.056 66.788C448.372 66.788 447.832 66.998 447.436 67.418C447.052 67.838 446.86 68.432 446.86 69.2V75.5H445.24ZM457.635 75.644C456.843 75.644 456.159 75.494 455.583 75.194C455.007 74.894 454.557 74.462 454.233 73.898C453.921 73.322 453.765 72.644 453.765 71.864V69.236C453.765 68.444 453.921 67.766 454.233 67.202C454.557 66.638 455.007 66.206 455.583 65.906C456.159 65.606 456.843 65.456 457.635 65.456C458.427 65.456 459.111 65.606 459.687 65.906C460.263 66.206 460.707 66.638 461.019 67.202C461.343 67.766 461.505 68.438 461.505 69.218V71.864C461.505 72.644 461.343 73.322 461.019 73.898C460.707 74.462 460.263 74.894 459.687 75.194C459.111 75.494 458.427 75.644 457.635 75.644ZM457.635 74.204C458.343 74.204 458.895 74.006 459.291 73.61C459.687 73.214 459.885 72.632 459.885 71.864V69.236C459.885 68.468 459.687 67.886 459.291 67.49C458.895 67.094 458.343 66.896 457.635 66.896C456.939 66.896 456.387 67.094 455.979 67.49C455.583 67.886 455.385 68.468 455.385 69.236V71.864C455.385 72.632 455.583 73.214 455.979 73.61C456.387 74.006 456.939 74.204 457.635 74.204ZM462.758 78.74V77.246H465.08C465.824 77.246 466.4 77.042 466.808 76.634C467.228 76.238 467.438 75.674 467.438 74.942V67.076H463.298V65.6H469.058V74.942C469.058 76.106 468.698 77.03 467.978 77.714C467.258 78.398 466.292 78.74 465.08 78.74H462.758ZM468.158 63.818C467.762 63.818 467.45 63.716 467.222 63.512C466.994 63.308 466.88 63.032 466.88 62.684C466.88 62.324 466.994 62.042 467.222 61.838C467.45 61.622 467.762 61.514 468.158 61.514C468.554 61.514 468.866 61.622 469.094 61.838C469.322 62.042 469.436 62.324 469.436 62.684C469.436 63.032 469.322 63.308 469.094 63.512C468.866 63.716 468.554 63.818 468.158 63.818ZM475.621 75.68C474.841 75.68 474.157 75.524 473.569 75.212C472.993 74.9 472.543 74.462 472.219 73.898C471.907 73.322 471.751 72.656 471.751 71.9V69.2C471.751 68.432 471.907 67.766 472.219 67.202C472.543 66.638 472.993 66.2 473.569 65.888C474.157 65.576 474.841 65.42 475.621 65.42C476.401 65.42 477.079 65.576 477.655 65.888C478.243 66.2 478.693 66.638 479.005 67.202C479.329 67.766 479.491 68.432 479.491 69.2V70.946H473.335V71.9C473.335 72.68 473.533 73.28 473.929 73.7C474.325 74.108 474.889 74.312 475.621 74.312C476.245 74.312 476.749 74.204 477.133 73.988C477.517 73.76 477.751 73.424 477.835 72.98H479.455C479.347 73.808 478.939 74.468 478.231 74.96C477.535 75.44 476.665 75.68 475.621 75.68ZM477.907 69.866V69.2C477.907 68.42 477.709 67.82 477.313 67.4C476.929 66.98 476.365 66.77 475.621 66.77C474.889 66.77 474.325 66.98 473.929 67.4C473.533 67.82 473.335 68.42 473.335 69.2V69.722H478.033L477.907 69.866ZM484.686 75.68C483.894 75.68 483.198 75.53 482.598 75.23C482.01 74.93 481.554 74.498 481.23 73.934C480.906 73.358 480.744 72.68 480.744 71.9V69.2C480.744 68.408 480.906 67.73 481.23 67.166C481.554 66.602 482.01 66.17 482.598 65.87C483.198 65.57 483.894 65.42 484.686 65.42C485.826 65.42 486.744 65.726 487.44 66.338C488.136 66.95 488.502 67.784 488.538 68.84H486.918C486.882 68.204 486.666 67.718 486.27 67.382C485.886 67.034 485.358 66.86 484.686 66.86C483.978 66.86 483.414 67.064 482.994 67.472C482.574 67.868 482.364 68.438 482.364 69.182V71.9C482.364 72.644 482.574 73.22 482.994 73.628C483.414 74.036 483.978 74.24 484.686 74.24C485.358 74.24 485.886 74.066 486.27 73.718C486.666 73.37 486.882 72.884 486.918 72.26H488.538C488.502 73.316 488.136 74.15 487.44 74.762C486.744 75.374 485.826 75.68 484.686 75.68ZM494.687 75.5C493.835 75.5 493.169 75.272 492.689 74.816C492.221 74.36 491.987 73.718 491.987 72.89V67.076H489.197V65.6H491.987V62.81H493.607V65.6H497.567V67.076H493.607V72.89C493.607 73.646 493.967 74.024 494.687 74.024H497.387V75.5H494.687Z" fill="#1E2025"/>
<path d="M0 7C0 3.13401 3.13401 0 7 0H509C512.866 0 516 3.13401 516 7H512C512 5.34315 510.657 4 509 4H7C5.34315 4 4 5.34315 4 7H0ZM516 101C516 104.866 512.866 108 509 108H7C3.13401 108 0 104.866 0 101L4 96C4 96 5.34315 96 7 96H509C510.657 96 512 96 512 96L516 101ZM7 108C3.13401 108 0 104.866 0 101V7C0 3.13401 3.13401 0 7 0V4C5.34315 4 4 5.34315 4 7V96C4 96 5.34315 96 7 96V108ZM509 0C512.866 0 516 3.13401 516 7V101C516 104.866 512.866 108 509 108V96C510.657 96 512 96 512 96V7C512 5.34315 510.657 4 509 4V0Z" fill="#1E2025" mask="url(#path-1-outside-1_3_120)"/>
</svg>
