<svg width="516" height="108" viewBox="0 0 516 108" fill="none" xmlns="http://www.w3.org/2000/svg">
<mask id="path-1-outside-1_3_120" maskUnits="userSpaceOnUse" x="0" y="0" width="516" height="108" fill="black">
<rect fill="white" width="516" height="108"/>
<path d="M2 7C2 4.23858 4.23858 2 7 2H509C511.761 2 514 4.23858 514 7V97C514 99.7614 511.761 102 509 102H7C4.23858 102 2 99.7614 2 97V7Z"/>
</mask>
<path d="M2 7C2 4.23858 4.23858 2 7 2H509C511.761 2 514 4.23858 514 7V97C514 99.7614 511.761 102 509 102H7C4.23858 102 2 99.7614 2 97V7Z" fill="white"/>
<path d="M19.772 86.48V60.2H24.164V63.98H25.172L24.164 65.024C24.164 63.416 24.644 62.156 25.604 61.244C26.564 60.308 27.86 59.84 29.492 59.84C31.484 59.84 33.08 60.524 34.28 61.892C35.48 63.26 36.08 65.096 36.08 67.4V72.764C36.08 74.3 35.804 75.644 35.252 76.796C34.724 77.924 33.968 78.8 32.984 79.424C32 80.048 30.836 80.36 29.492 80.36C27.86 80.36 26.564 79.904 25.604 78.992C24.644 78.056 24.164 76.784 24.164 75.176L25.172 76.22H24.128L24.272 80.936V86.48H19.772ZM27.908 76.472C29.06 76.472 29.96 76.136 30.608 75.464C31.256 74.792 31.58 73.832 31.58 72.584V67.616C31.58 66.368 31.256 65.408 30.608 64.736C29.96 64.064 29.06 63.728 27.908 63.728C26.78 63.728 25.892 64.076 25.244 64.772C24.596 65.444 24.272 66.392 24.272 67.616V72.584C24.272 73.808 24.596 74.768 25.244 75.464C25.892 76.136 26.78 76.472 27.908 76.472ZM49.3859 80.36C46.8659 80.36 44.8859 79.664 43.4459 78.272C42.0059 76.856 41.2859 74.936 41.2859 72.512V60.2H45.7859V72.476C45.7859 73.748 46.0979 74.732 46.7219 75.428C47.3459 76.1 48.2339 76.436 49.3859 76.436C50.5139 76.436 51.3899 76.1 52.0139 75.428C52.6619 74.732 52.9859 73.748 52.9859 72.476V60.2H57.4859V72.512C57.4859 74.936 56.7539 76.856 55.2899 78.272C53.8259 79.664 51.8579 80.36 49.3859 80.36ZM70.2159 80.324C68.7039 80.324 67.3839 80.084 66.2559 79.604C65.1279 79.124 64.2399 78.464 63.5919 77.624C62.9679 76.76 62.6319 75.752 62.5839 74.6H67.0839C67.1319 75.224 67.4319 75.728 67.9839 76.112C68.5599 76.496 69.3039 76.688 70.2159 76.688H71.7999C72.9039 76.688 73.7319 76.472 74.2839 76.04C74.8359 75.608 75.1119 75.02 75.1119 74.276C75.1119 73.58 74.8599 73.04 74.3559 72.656C73.8759 72.248 73.1199 71.984 72.0879 71.864L69.6399 71.504C67.3839 71.192 65.7279 70.592 64.6719 69.704C63.6159 68.816 63.0879 67.484 63.0879 65.708C63.0879 63.86 63.7119 62.432 64.9599 61.424C66.2079 60.392 68.0439 59.876 70.4679 59.876H71.8359C74.0439 59.876 75.8079 60.368 77.1279 61.352C78.4479 62.336 79.1559 63.656 79.2519 65.312H74.7519C74.6799 64.784 74.3799 64.352 73.8519 64.016C73.3479 63.68 72.6759 63.512 71.8359 63.512H70.4679C69.4359 63.512 68.6799 63.704 68.1999 64.088C67.7439 64.448 67.5159 64.988 67.5159 65.708C67.5159 66.38 67.7199 66.884 68.1279 67.22C68.5359 67.532 69.1959 67.76 70.1079 67.904L72.6639 68.264C75.0159 68.6 76.7439 69.236 77.8479 70.172C78.9759 71.084 79.5399 72.44 79.5399 74.24C79.5399 76.16 78.8799 77.66 77.5599 78.74C76.2639 79.796 74.3439 80.324 71.7999 80.324H70.2159ZM84.5298 80V53.72H89.0298V60.2L88.9218 63.98H90.1458L88.9218 65.024C88.9218 63.392 89.3898 62.12 90.3258 61.208C91.2858 60.296 92.5938 59.84 94.2498 59.84C96.1938 59.84 97.7418 60.488 98.8938 61.784C100.07 63.08 100.658 64.82 100.658 67.004V80H96.1578V67.472C96.1578 66.272 95.8458 65.348 95.2218 64.7C94.5978 64.052 93.7218 63.728 92.5938 63.728C91.4898 63.728 90.6138 64.064 89.9658 64.736C89.3418 65.408 89.0298 66.368 89.0298 67.616V80H84.5298ZM105.504 84.968V80.9H122.784V84.968H105.504ZM134.974 80.324C133.462 80.324 132.142 80.084 131.014 79.604C129.886 79.124 128.998 78.464 128.35 77.624C127.726 76.76 127.39 75.752 127.342 74.6H131.842C131.89 75.224 132.19 75.728 132.742 76.112C133.318 76.496 134.062 76.688 134.974 76.688H136.558C137.662 76.688 138.49 76.472 139.042 76.04C139.594 75.608 139.87 75.02 139.87 74.276C139.87 73.58 139.618 73.04 139.114 72.656C138.634 72.248 137.878 71.984 136.846 71.864L134.398 71.504C132.142 71.192 130.486 70.592 129.43 69.704C128.374 68.816 127.846 67.484 127.846 65.708C127.846 63.86 128.47 62.432 129.718 61.424C130.966 60.392 132.802 59.876 135.226 59.876H136.594C138.802 59.876 140.566 60.368 141.886 61.352C143.206 62.336 143.914 63.656 144.01 65.312H139.51C139.438 64.784 139.138 64.352 138.61 64.016C138.106 63.68 137.434 63.512 136.594 63.512H135.226C134.194 63.512 133.438 63.704 132.958 64.088C132.502 64.448 132.274 64.988 132.274 65.708C132.274 66.38 132.478 66.884 132.886 67.22C133.294 67.532 133.954 67.76 134.866 67.904L137.422 68.264C139.774 68.6 141.502 69.236 142.606 70.172C143.734 71.084 144.298 72.44 144.298 74.24C144.298 76.16 143.638 77.66 142.318 78.74C141.022 79.796 139.102 80.324 136.558 80.324H134.974ZM150.26 80L147.236 60.2H150.98L152.636 72.332C152.732 73.028 152.816 73.796 152.888 74.636C152.984 75.476 153.056 76.172 153.104 76.724C153.176 76.172 153.272 75.476 153.392 74.636C153.512 73.796 153.62 73.028 153.716 72.332L155.588 60.2H159.08L160.916 72.332C161.012 73.028 161.12 73.808 161.24 74.672C161.36 75.512 161.456 76.208 161.528 76.76C161.576 76.184 161.648 75.476 161.744 74.636C161.864 73.772 161.96 73.004 162.032 72.332L163.796 60.2H167.396L164.3 80H159.656L157.928 67.796C157.832 67.124 157.724 66.38 157.604 65.564C157.484 64.724 157.388 64.04 157.316 63.512C157.244 64.04 157.148 64.724 157.028 65.564C156.932 66.38 156.824 67.124 156.704 67.796L154.904 80H150.26ZM176.706 80.36C174.666 80.36 173.058 79.82 171.882 78.74C170.706 77.66 170.118 76.208 170.118 74.384C170.118 72.44 170.766 70.94 172.062 69.884C173.358 68.828 175.194 68.3 177.57 68.3H182.502V66.608C182.502 65.648 182.19 64.904 181.566 64.376C180.942 63.824 180.09 63.548 179.01 63.548C178.026 63.548 177.21 63.764 176.562 64.196C175.914 64.628 175.53 65.216 175.41 65.96H171.018C171.234 64.088 172.074 62.6 173.538 61.496C175.002 60.392 176.874 59.84 179.154 59.84C181.578 59.84 183.486 60.452 184.878 61.676C186.294 62.876 187.002 64.508 187.002 66.572V80H182.646V76.544H181.926L182.646 75.572C182.646 77.036 182.106 78.2 181.026 79.064C179.946 79.928 178.506 80.36 176.706 80.36ZM178.182 76.976C179.454 76.976 180.486 76.652 181.278 76.004C182.094 75.356 182.502 74.516 182.502 73.484V71.072H177.642C176.73 71.072 175.998 71.336 175.446 71.864C174.894 72.392 174.618 73.088 174.618 73.952C174.618 74.888 174.93 75.632 175.554 76.184C176.202 76.712 177.078 76.976 178.182 76.976ZM192.46 86.48V60.2H196.852V63.98H197.86L196.852 65.024C196.852 63.416 197.332 62.156 198.292 61.244C199.252 60.308 200.548 59.84 202.18 59.84C204.172 59.84 205.768 60.524 206.968 61.892C208.168 63.26 208.768 65.096 208.768 67.4V72.764C208.768 74.3 208.492 75.644 207.94 76.796C207.412 77.924 206.656 78.8 205.672 79.424C204.688 80.048 203.524 80.36 202.18 80.36C200.548 80.36 199.252 79.904 198.292 78.992C197.332 78.056 196.852 76.784 196.852 75.176L197.86 76.22H196.816L196.96 80.936V86.48H192.46ZM200.596 76.472C201.748 76.472 202.648 76.136 203.296 75.464C203.944 74.792 204.268 73.832 204.268 72.584V67.616C204.268 66.368 203.944 65.408 203.296 64.736C202.648 64.064 201.748 63.728 200.596 63.728C199.468 63.728 198.58 64.076 197.932 64.772C197.284 65.444 196.96 66.392 196.96 67.616V72.584C196.96 73.808 197.284 74.768 197.932 75.464C198.58 76.136 199.468 76.472 200.596 76.472Z" fill="#1E2025"/>
<path d="M468.5 59.5V54.676H456.98V47.152L466.844 33.22H472.964L462.02 48.664V49.996H468.5V44.38H473.9V59.5H468.5ZM479.106 59.5V54.424L487.458 46.36C488.442 45.4 489.174 44.512 489.654 43.696C490.158 42.88 490.41 41.992 490.41 41.032C490.41 39.976 490.122 39.16 489.546 38.584C488.994 38.008 488.226 37.72 487.242 37.72C486.162 37.72 485.31 38.044 484.686 38.692C484.086 39.316 483.786 40.192 483.786 41.32H478.386C478.386 39.592 478.746 38.104 479.466 36.856C480.21 35.584 481.254 34.6 482.598 33.904C483.942 33.208 485.526 32.86 487.35 32.86C489.054 32.86 490.53 33.184 491.778 33.832C493.05 34.456 494.034 35.332 494.73 36.46C495.45 37.588 495.81 38.92 495.81 40.456C495.81 42.16 495.39 43.792 494.55 45.352C493.71 46.912 492.366 48.544 490.518 50.248L485.766 54.64H496.098V59.5H479.106Z" fill="#1E2025"/>
<path d="M435.905 75.5V62.36H440.135C440.951 62.36 441.659 62.522 442.259 62.846C442.859 63.158 443.321 63.602 443.645 64.178C443.981 64.754 444.149 65.438 444.149 66.23C444.149 67.01 443.981 67.694 443.645 68.282C443.321 68.858 442.859 69.308 442.259 69.632C441.659 69.944 440.951 70.1 440.135 70.1H437.525V75.5H435.905ZM437.525 68.642H440.135C440.843 68.642 441.407 68.426 441.827 67.994C442.259 67.55 442.475 66.962 442.475 66.23C442.475 65.486 442.259 64.898 441.827 64.466C441.407 64.034 440.843 63.818 440.135 63.818H437.525V68.642ZM445.24 75.5V65.6H446.824V67.49H447.202L446.68 68.66C446.68 67.592 446.908 66.788 447.364 66.248C447.832 65.696 448.522 65.42 449.434 65.42C450.478 65.42 451.306 65.75 451.918 66.41C452.542 67.058 452.854 67.94 452.854 69.056V69.65H451.234V69.2C451.234 68.42 451.042 67.826 450.658 67.418C450.286 66.998 449.752 66.788 449.056 66.788C448.372 66.788 447.832 66.998 447.436 67.418C447.052 67.838 446.86 68.432 446.86 69.2V75.5H445.24ZM457.635 75.644C456.843 75.644 456.159 75.494 455.583 75.194C455.007 74.894 454.557 74.462 454.233 73.898C453.921 73.322 453.765 72.644 453.765 71.864V69.236C453.765 68.444 453.921 67.766 454.233 67.202C454.557 66.638 455.007 66.206 455.583 65.906C456.159 65.606 456.843 65.456 457.635 65.456C458.427 65.456 459.111 65.606 459.687 65.906C460.263 66.206 460.707 66.638 461.019 67.202C461.343 67.766 461.505 68.438 461.505 69.218V71.864C461.505 72.644 461.343 73.322 461.019 73.898C460.707 74.462 460.263 74.894 459.687 75.194C459.111 75.494 458.427 75.644 457.635 75.644ZM457.635 74.204C458.343 74.204 458.895 74.006 459.291 73.61C459.687 73.214 459.885 72.632 459.885 71.864V69.236C459.885 68.468 459.687 67.886 459.291 67.49C458.895 67.094 458.343 66.896 457.635 66.896C456.939 66.896 456.387 67.094 455.979 67.49C455.583 67.886 455.385 68.468 455.385 69.236V71.864C455.385 72.632 455.583 73.214 455.979 73.61C456.387 74.006 456.939 74.204 457.635 74.204ZM462.758 78.74V77.246H465.08C465.824 77.246 466.4 77.042 466.808 76.634C467.228 76.238 467.438 75.674 467.438 74.942V67.076H463.298V65.6H469.058V74.942C469.058 76.106 468.698 77.03 467.978 77.714C467.258 78.398 466.292 78.74 465.08 78.74H462.758ZM468.158 63.818C467.762 63.818 467.45 63.716 467.222 63.512C466.994 63.308 466.88 63.032 466.88 62.684C466.88 62.324 466.994 62.042 467.222 61.838C467.45 61.622 467.762 61.514 468.158 61.514C468.554 61.514 468.866 61.622 469.094 61.838C469.322 62.042 469.436 62.324 469.436 62.684C469.436 63.032 469.322 63.308 469.094 63.512C468.866 63.716 468.554 63.818 468.158 63.818ZM475.621 75.68C474.841 75.68 474.157 75.524 473.569 75.212C472.993 74.9 472.543 74.462 472.219 73.898C471.907 73.322 471.751 72.656 471.751 71.9V69.2C471.751 68.432 471.907 67.766 472.219 67.202C472.543 66.638 472.993 66.2 473.569 65.888C474.157 65.576 474.841 65.42 475.621 65.42C476.401 65.42 477.079 65.576 477.655 65.888C478.243 66.2 478.693 66.638 479.005 67.202C479.329 67.766 479.491 68.432 479.491 69.2V70.946H473.335V71.9C473.335 72.68 473.533 73.28 473.929 73.7C474.325 74.108 474.889 74.312 475.621 74.312C476.245 74.312 476.749 74.204 477.133 73.988C477.517 73.76 477.751 73.424 477.835 72.98H479.455C479.347 73.808 478.939 74.468 478.231 74.96C477.535 75.44 476.665 75.68 475.621 75.68ZM477.907 69.866V69.2C477.907 68.42 477.709 67.82 477.313 67.4C476.929 66.98 476.365 66.77 475.621 66.77C474.889 66.77 474.325 66.98 473.929 67.4C473.533 67.82 473.335 68.42 473.335 69.2V69.722H478.033L477.907 69.866ZM484.686 75.68C483.894 75.68 483.198 75.53 482.598 75.23C482.01 74.93 481.554 74.498 481.23 73.934C480.906 73.358 480.744 72.68 480.744 71.9V69.2C480.744 68.408 480.906 67.73 481.23 67.166C481.554 66.602 482.01 66.17 482.598 65.87C483.198 65.57 483.894 65.42 484.686 65.42C485.826 65.42 486.744 65.726 487.44 66.338C488.136 66.95 488.502 67.784 488.538 68.84H486.918C486.882 68.204 486.666 67.718 486.27 67.382C485.886 67.034 485.358 66.86 484.686 66.86C483.978 66.86 483.414 67.064 482.994 67.472C482.574 67.868 482.364 68.438 482.364 69.182V71.9C482.364 72.644 482.574 73.22 482.994 73.628C483.414 74.036 483.978 74.24 484.686 74.24C485.358 74.24 485.886 74.066 486.27 73.718C486.666 73.37 486.882 72.884 486.918 72.26H488.538C488.502 73.316 488.136 74.15 487.44 74.762C486.744 75.374 485.826 75.68 484.686 75.68ZM494.687 75.5C493.835 75.5 493.169 75.272 492.689 74.816C492.221 74.36 491.987 73.718 491.987 72.89V67.076H489.197V65.6H491.987V62.81H493.607V65.6H497.567V67.076H493.607V72.89C493.607 73.646 493.967 74.024 494.687 74.024H497.387V75.5H494.687Z" fill="#1E2025"/>
<path d="M0 7C0 3.13401 3.13401 0 7 0H509C512.866 0 516 3.13401 516 7H512C512 5.34315 510.657 4 509 4H7C5.34315 4 4 5.34315 4 7H0ZM516 101C516 104.866 512.866 108 509 108H7C3.13401 108 0 104.866 0 101L4 96C4 96 5.34315 96 7 96H509C510.657 96 512 96 512 96L516 101ZM7 108C3.13401 108 0 104.866 0 101V7C0 3.13401 3.13401 0 7 0V4C5.34315 4 4 5.34315 4 7V96C4 96 5.34315 96 7 96V108ZM509 0C512.866 0 516 3.13401 516 7V101C516 104.866 512.866 108 509 108V96C510.657 96 512 96 512 96V7C512 5.34315 510.657 4 509 4V0Z" fill="#1E2025" mask="url(#path-1-outside-1_3_120)"/>
</svg>
