<svg width="516" height="108" viewBox="0 0 516 108" fill="none" xmlns="http://www.w3.org/2000/svg">
<mask id="path-1-outside-1_3_120" maskUnits="userSpaceOnUse" x="0" y="0" width="516" height="108" fill="black">
<rect fill="white" width="516" height="108"/>
<path d="M2 7C2 4.23858 4.23858 2 7 2H509C511.761 2 514 4.23858 514 7V97C514 99.7614 511.761 102 509 102H7C4.23858 102 2 99.7614 2 97V7Z"/>
</mask>
<path d="M2 7C2 4.23858 4.23858 2 7 2H509C511.761 2 514 4.23858 514 7V97C514 99.7614 511.761 102 509 102H7C4.23858 102 2 99.7614 2 97V7Z" fill="white"/>
<path d="M27.044 80.324C25.532 80.324 24.212 80.084 23.084 79.604C21.956 79.124 21.068 78.464 20.42 77.624C19.796 76.76 19.46 75.752 19.412 74.6H23.912C23.96 75.224 24.26 75.728 24.812 76.112C25.388 76.496 26.132 76.688 27.044 76.688H28.628C29.732 76.688 30.56 76.472 31.112 76.04C31.664 75.608 31.94 75.02 31.94 74.276C31.94 73.58 31.688 73.04 31.184 72.656C30.704 72.248 29.948 71.984 28.916 71.864L26.468 71.504C24.212 71.192 22.556 70.592 21.5 69.704C20.444 68.816 19.916 67.484 19.916 65.708C19.916 63.86 20.54 62.432 21.788 61.424C23.036 60.392 24.872 59.876 27.296 59.876H28.664C30.872 59.876 32.636 60.368 33.956 61.352C35.276 62.336 35.984 63.656 36.08 65.312H31.58C31.508 64.784 31.208 64.352 30.68 64.016C30.176 63.68 29.504 63.512 28.664 63.512H27.296C26.264 63.512 25.508 63.704 25.028 64.088C24.572 64.448 24.344 64.988 24.344 65.708C24.344 66.38 24.548 66.884 24.956 67.22C25.364 67.532 26.024 67.76 26.936 67.904L29.492 68.264C31.844 68.6 33.572 69.236 34.676 70.172C35.804 71.084 36.368 72.44 36.368 74.24C36.368 76.16 35.708 77.66 34.388 78.74C33.092 79.796 31.172 80.324 28.628 80.324H27.044ZM49.3859 80.324C47.7059 80.324 46.2419 80.012 44.9939 79.388C43.7699 78.74 42.8099 77.84 42.1139 76.688C41.4419 75.512 41.1059 74.132 41.1059 72.548V67.652C41.1059 66.068 41.4419 64.7 42.1139 63.548C42.8099 62.372 43.7699 61.472 44.9939 60.848C46.2419 60.2 47.7059 59.876 49.3859 59.876C51.0899 59.876 52.5539 60.2 53.7779 60.848C55.0019 61.472 55.9499 62.372 56.6219 63.548C57.3179 64.7 57.6659 66.056 57.6659 67.616V72.548C57.6659 74.132 57.3179 75.512 56.6219 76.688C55.9499 77.84 55.0019 78.74 53.7779 79.388C52.5539 80.012 51.0899 80.324 49.3859 80.324ZM49.3859 76.4C50.5859 76.4 51.5099 76.076 52.1579 75.428C52.8299 74.756 53.1659 73.796 53.1659 72.548V67.652C53.1659 66.38 52.8299 65.42 52.1579 64.772C51.5099 64.124 50.5859 63.8 49.3859 63.8C48.2099 63.8 47.2859 64.124 46.6139 64.772C45.9419 65.42 45.6059 66.38 45.6059 67.652V72.548C45.6059 73.796 45.9419 74.756 46.6139 75.428C47.2859 76.076 48.2099 76.4 49.3859 76.4ZM62.3319 84.968V80.9H79.6119V84.968H62.3319ZM95.5818 80C94.2858 80 93.1458 79.736 92.1618 79.208C91.2018 78.68 90.4458 77.936 89.8938 76.976C89.3418 75.992 89.0658 74.864 89.0658 73.592V57.788H82.7298V53.72H93.5658V73.592C93.5658 74.312 93.7698 74.888 94.1778 75.32C94.6098 75.728 95.1858 75.932 95.9058 75.932H101.882V80H95.5818ZM114.144 80.324C112.464 80.324 111 80.012 109.752 79.388C108.528 78.74 107.568 77.84 106.872 76.688C106.2 75.512 105.864 74.132 105.864 72.548V67.652C105.864 66.068 106.2 64.7 106.872 63.548C107.568 62.372 108.528 61.472 109.752 60.848C111 60.2 112.464 59.876 114.144 59.876C115.848 59.876 117.312 60.2 118.536 60.848C119.76 61.472 120.708 62.372 121.38 63.548C122.076 64.7 122.424 66.056 122.424 67.616V72.548C122.424 74.132 122.076 75.512 121.38 76.688C120.708 77.84 119.76 78.74 118.536 79.388C117.312 80.012 115.848 80.324 114.144 80.324ZM114.144 76.4C115.344 76.4 116.268 76.076 116.916 75.428C117.588 74.756 117.924 73.796 117.924 72.548V67.652C117.924 66.38 117.588 65.42 116.916 64.772C116.268 64.124 115.344 63.8 114.144 63.8C112.968 63.8 112.044 64.124 111.372 64.772C110.7 65.42 110.364 66.38 110.364 67.652V72.548C110.364 73.796 110.7 74.756 111.372 75.428C112.044 76.076 112.968 76.4 114.144 76.4ZM127.702 80V60.2H132.094V63.98H133.318L132.094 65.024C132.094 63.392 132.562 62.12 133.498 61.208C134.458 60.296 135.766 59.84 137.422 59.84C139.366 59.84 140.914 60.488 142.066 61.784C143.242 63.08 143.83 64.82 143.83 67.004V80H139.33V67.472C139.33 66.272 139.018 65.348 138.394 64.7C137.77 64.052 136.894 63.728 135.766 63.728C134.662 63.728 133.786 64.064 133.138 64.736C132.514 65.408 132.202 66.368 132.202 67.616V80H127.702ZM151.988 86.48V82.736H157.856C158.864 82.736 159.62 82.484 160.124 81.98C160.628 81.5 160.88 80.804 160.88 79.892V78.416L160.952 74.708H159.98L160.952 73.736C160.952 75.344 160.472 76.604 159.512 77.516C158.576 78.404 157.304 78.848 155.696 78.848C153.68 78.848 152.072 78.164 150.872 76.796C149.696 75.428 149.108 73.58 149.108 71.252V67.4C149.108 65.096 149.696 63.26 150.872 61.892C152.072 60.524 153.68 59.84 155.696 59.84C157.304 59.84 158.576 60.296 159.512 61.208C160.472 62.096 160.952 63.344 160.952 64.952L159.98 63.98H160.952L160.844 60.2H165.344V80C165.344 81.992 164.684 83.564 163.364 84.716C162.044 85.892 160.232 86.48 157.928 86.48H151.988ZM157.208 74.96C158.36 74.96 159.248 74.624 159.872 73.952C160.52 73.256 160.844 72.296 160.844 71.072V67.616C160.844 66.392 160.52 65.444 159.872 64.772C159.248 64.076 158.36 63.728 157.208 63.728C156.056 63.728 155.168 64.064 154.544 64.736C153.92 65.408 153.608 66.368 153.608 67.616V71.072C153.608 72.32 153.92 73.28 154.544 73.952C155.168 74.624 156.056 74.96 157.208 74.96Z" fill="#1E2025"/>
<path d="M468.5 59.5V54.676H456.98V47.152L466.844 33.22H472.964L462.02 48.664V49.996H468.5V44.38H473.9V59.5H468.5ZM479.106 59.5V54.424L487.458 46.36C488.442 45.4 489.174 44.512 489.654 43.696C490.158 42.88 490.41 41.992 490.41 41.032C490.41 39.976 490.122 39.16 489.546 38.584C488.994 38.008 488.226 37.72 487.242 37.72C486.162 37.72 485.31 38.044 484.686 38.692C484.086 39.316 483.786 40.192 483.786 41.32H478.386C478.386 39.592 478.746 38.104 479.466 36.856C480.21 35.584 481.254 34.6 482.598 33.904C483.942 33.208 485.526 32.86 487.35 32.86C489.054 32.86 490.53 33.184 491.778 33.832C493.05 34.456 494.034 35.332 494.73 36.46C495.45 37.588 495.81 38.92 495.81 40.456C495.81 42.16 495.39 43.792 494.55 45.352C493.71 46.912 492.366 48.544 490.518 50.248L485.766 54.64H496.098V59.5H479.106Z" fill="#1E2025"/>
<path d="M435.905 75.5V62.36H440.135C440.951 62.36 441.659 62.522 442.259 62.846C442.859 63.158 443.321 63.602 443.645 64.178C443.981 64.754 444.149 65.438 444.149 66.23C444.149 67.01 443.981 67.694 443.645 68.282C443.321 68.858 442.859 69.308 442.259 69.632C441.659 69.944 440.951 70.1 440.135 70.1H437.525V75.5H435.905ZM437.525 68.642H440.135C440.843 68.642 441.407 68.426 441.827 67.994C442.259 67.55 442.475 66.962 442.475 66.23C442.475 65.486 442.259 64.898 441.827 64.466C441.407 64.034 440.843 63.818 440.135 63.818H437.525V68.642ZM445.24 75.5V65.6H446.824V67.49H447.202L446.68 68.66C446.68 67.592 446.908 66.788 447.364 66.248C447.832 65.696 448.522 65.42 449.434 65.42C450.478 65.42 451.306 65.75 451.918 66.41C452.542 67.058 452.854 67.94 452.854 69.056V69.65H451.234V69.2C451.234 68.42 451.042 67.826 450.658 67.418C450.286 66.998 449.752 66.788 449.056 66.788C448.372 66.788 447.832 66.998 447.436 67.418C447.052 67.838 446.86 68.432 446.86 69.2V75.5H445.24ZM457.635 75.644C456.843 75.644 456.159 75.494 455.583 75.194C455.007 74.894 454.557 74.462 454.233 73.898C453.921 73.322 453.765 72.644 453.765 71.864V69.236C453.765 68.444 453.921 67.766 454.233 67.202C454.557 66.638 455.007 66.206 455.583 65.906C456.159 65.606 456.843 65.456 457.635 65.456C458.427 65.456 459.111 65.606 459.687 65.906C460.263 66.206 460.707 66.638 461.019 67.202C461.343 67.766 461.505 68.438 461.505 69.218V71.864C461.505 72.644 461.343 73.322 461.019 73.898C460.707 74.462 460.263 74.894 459.687 75.194C459.111 75.494 458.427 75.644 457.635 75.644ZM457.635 74.204C458.343 74.204 458.895 74.006 459.291 73.61C459.687 73.214 459.885 72.632 459.885 71.864V69.236C459.885 68.468 459.687 67.886 459.291 67.49C458.895 67.094 458.343 66.896 457.635 66.896C456.939 66.896 456.387 67.094 455.979 67.49C455.583 67.886 455.385 68.468 455.385 69.236V71.864C455.385 72.632 455.583 73.214 455.979 73.61C456.387 74.006 456.939 74.204 457.635 74.204ZM462.758 78.74V77.246H465.08C465.824 77.246 466.4 77.042 466.808 76.634C467.228 76.238 467.438 75.674 467.438 74.942V67.076H463.298V65.6H469.058V74.942C469.058 76.106 468.698 77.03 467.978 77.714C467.258 78.398 466.292 78.74 465.08 78.74H462.758ZM468.158 63.818C467.762 63.818 467.45 63.716 467.222 63.512C466.994 63.308 466.88 63.032 466.88 62.684C466.88 62.324 466.994 62.042 467.222 61.838C467.45 61.622 467.762 61.514 468.158 61.514C468.554 61.514 468.866 61.622 469.094 61.838C469.322 62.042 469.436 62.324 469.436 62.684C469.436 63.032 469.322 63.308 469.094 63.512C468.866 63.716 468.554 63.818 468.158 63.818ZM475.621 75.68C474.841 75.68 474.157 75.524 473.569 75.212C472.993 74.9 472.543 74.462 472.219 73.898C471.907 73.322 471.751 72.656 471.751 71.9V69.2C471.751 68.432 471.907 67.766 472.219 67.202C472.543 66.638 472.993 66.2 473.569 65.888C474.157 65.576 474.841 65.42 475.621 65.42C476.401 65.42 477.079 65.576 477.655 65.888C478.243 66.2 478.693 66.638 479.005 67.202C479.329 67.766 479.491 68.432 479.491 69.2V70.946H473.335V71.9C473.335 72.68 473.533 73.28 473.929 73.7C474.325 74.108 474.889 74.312 475.621 74.312C476.245 74.312 476.749 74.204 477.133 73.988C477.517 73.76 477.751 73.424 477.835 72.98H479.455C479.347 73.808 478.939 74.468 478.231 74.96C477.535 75.44 476.665 75.68 475.621 75.68ZM477.907 69.866V69.2C477.907 68.42 477.709 67.82 477.313 67.4C476.929 66.98 476.365 66.77 475.621 66.77C474.889 66.77 474.325 66.98 473.929 67.4C473.533 67.82 473.335 68.42 473.335 69.2V69.722H478.033L477.907 69.866ZM484.686 75.68C483.894 75.68 483.198 75.53 482.598 75.23C482.01 74.93 481.554 74.498 481.23 73.934C480.906 73.358 480.744 72.68 480.744 71.9V69.2C480.744 68.408 480.906 67.73 481.23 67.166C481.554 66.602 482.01 66.17 482.598 65.87C483.198 65.57 483.894 65.42 484.686 65.42C485.826 65.42 486.744 65.726 487.44 66.338C488.136 66.95 488.502 67.784 488.538 68.84H486.918C486.882 68.204 486.666 67.718 486.27 67.382C485.886 67.034 485.358 66.86 484.686 66.86C483.978 66.86 483.414 67.064 482.994 67.472C482.574 67.868 482.364 68.438 482.364 69.182V71.9C482.364 72.644 482.574 73.22 482.994 73.628C483.414 74.036 483.978 74.24 484.686 74.24C485.358 74.24 485.886 74.066 486.27 73.718C486.666 73.37 486.882 72.884 486.918 72.26H488.538C488.502 73.316 488.136 74.15 487.44 74.762C486.744 75.374 485.826 75.68 484.686 75.68ZM494.687 75.5C493.835 75.5 493.169 75.272 492.689 74.816C492.221 74.36 491.987 73.718 491.987 72.89V67.076H489.197V65.6H491.987V62.81H493.607V65.6H497.567V67.076H493.607V72.89C493.607 73.646 493.967 74.024 494.687 74.024H497.387V75.5H494.687Z" fill="#1E2025"/>
<path d="M0 7C0 3.13401 3.13401 0 7 0H509C512.866 0 516 3.13401 516 7H512C512 5.34315 510.657 4 509 4H7C5.34315 4 4 5.34315 4 7H0ZM516 101C516 104.866 512.866 108 509 108H7C3.13401 108 0 104.866 0 101L4 96C4 96 5.34315 96 7 96H509C510.657 96 512 96 512 96L516 101ZM7 108C3.13401 108 0 104.866 0 101V7C0 3.13401 3.13401 0 7 0V4C5.34315 4 4 5.34315 4 7V96C4 96 5.34315 96 7 96V108ZM509 0C512.866 0 516 3.13401 516 7V101C516 104.866 512.866 108 509 108V96C510.657 96 512 96 512 96V7C512 5.34315 510.657 4 509 4V0Z" fill="#1E2025" mask="url(#path-1-outside-1_3_120)"/>
</svg>
